{
.appVersion = "3306";
.formatVersion = 3;
DisplayStrings = (
"asıl",
creation,
c,
"pregnand grandma",
"½",
g
);
axes = (
{
name = Weight;
tag = wght;
}
);
date = "2024-07-22 21:15:21 +0000";
familyName = "Fliege Mono";
fontMaster = (
{
axesValues = (
100
);
id = m004;
metricValues = (
{
pos = 900;
},
{
pos = 770;
},
{
over = 16;
pos = 700;
},
{
over = 22;
pos = 530;
},
{
over = -12;
},
{
pos = -240;
},
{
},
{
pos = -200;
}
);
name = Thin;
userData = {
GSCornerRadius = 111;
GSExtrudeAngle = 30;
GSExtrudeOffset = 15;
GSOffsetHorizontal = -65;
GSOffsetVertical = -70;
};
},
{
axesValues = (
400
);
id = m003;
metricValues = (
{
pos = 900;
},
{
pos = 770;
},
{
over = 16;
pos = 700;
},
{
over = 22;
pos = 530;
},
{
over = -12;
},
{
pos = -240;
},
{
},
{
pos = -200;
}
);
name = Regular;
userData = {
GSCornerRadius = 50;
GSExtrudeAngle = 30;
GSExtrudeOffset = 15;
GSOffsetHorizontal = -65;
GSOffsetVertical = -70;
};
visible = 1;
},
{
axesValues = (
900
);
iconName = SemiBold;
id = m002;
metricValues = (
{
pos = 900;
},
{
pos = 770;
},
{
over = 16;
pos = 700;
},
{
over = 22;
pos = 530;
},
{
over = -12;
},
{
pos = -240;
},
{
},
{
pos = -200;
}
);
name = Black;
userData = {
GSCornerRadius = 92;
GSExtrudeAngle = 30;
GSExtrudeOffset = 15;
GSOffsetHorizontal = -65;
GSOffsetVertical = -70;
};
}
);
glyphs = (
{
glyphname = A;
lastChange = "2024-10-25 18:18:26 +0000";
layers = (
{
anchors = (
{
name = bottom;
pos = (300,0);
},
{
name = "ogonek-hook";
pos = (552,0);
},
{
name = top;
pos = (300,700);
}
);
layerId = m003;
shapes = (
{
closed = 1;
nodes = (
(227,700,l),
(48,0,l),
(141,0,l),
(188,185,l),
(412,185,l),
(459,0,l),
(552,0,l),
(373,700,l)
);
},
{
closed = 1;
nodes = (
(277,530,l),
(280,630,l),
(320,630,l),
(323,530,l),
(389,275,l),
(211,275,l)
);
}
);
width = 600;
},
{
anchors = (
{
name = bottom;
pos = (296,0);
},
{
name = "ogonek-hook";
pos = (548,0);
},
{
name = top;
pos = (300,700);
}
);
layerId = m002;
shapes = (
{
closed = 1;
nodes = (
(217,700,l),
(38,0,l),
(191,0,l),
(225,140,l),
(375,140,l),
(409,0,l),
(562,0,l),
(383,700,l)
);
},
{
closed = 1;
nodes = (
(280,384,l),
(280,570,l),
(320,570,l),
(320,384,l),
(340,290,l),
(260,290,l)
);
}
);
width = 600;
},
{
anchors = (
{
name = bottom;
pos = (300,0);
},
{
name = "ogonek-hook";
pos = (552,0);
},
{
name = top;
pos = (300,700);
}
);
layerId = m004;
shapes = (
{
closed = 1;
nodes = (
(264,700,l),
(56,0,l),
(98,0,l),
(163,220,l),
(437,220,l),
(502,0,l),
(544,0,l),
(336,700,l)
);
},
{
closed = 1;
nodes = (
(282,638,l),
(285,670,l),
(315,670,l),
(318,638,l),
(426,260,l),
(174,260,l)
);
}
);
width = 600;
}
);
unicode = 65;
},
{
glyphname = AE;
lastChange = "2024-10-20 13:55:15 +0000";
layers = (
{
anchors = (
{
name = bottom;
pos = (296,0);
},
{
name = top;
pos = (406,700);
}
);
layerId = m003;
shapes = (
{
closed = 1;
nodes = (
(195,700,l),
(25,0,l),
(118,0,l),
(164,185,l),
(300,185,l),
(300,0,l),
(565,0,l),
(565,90,l),
(390,90,l),
(390,327,l),
(555,327,l),
(555,417,l),
(390,417,l),
(390,610,l),
(565,610,l),
(565,700,l)
);
},
{
closed = 1;
nodes = (
(249,530,l),
(260,610,l),
(300,610,l),
(300,275,l),
(186,275,l)
);
}
);
width = 600;
},
{
anchors = (
{
name = bottom;
pos = (296,0);
},
{
name = top;
pos = (406,700);
}
);
layerId = m002;
shapes = (
{
closed = 1;
nodes = (
(184,700,l),
(14,0,l),
(168,0,l),
(202,140,l),
(280,140,l),
(280,0,l),
(575,0,l),
(575,150,l),
(430,150,l),
(430,297,l),
(565,297,l),
(565,447,l),
(430,447,l),
(430,550,l),
(575,550,l),
(575,700,l)
);
},
{
closed = 1;
nodes = (
(238,417,l),
(250,570,l),
(280,570,l),
(280,290,l),
(209,290,l)
);
}
);
width = 600;
},
{
anchors = (
{
name = bottom;
pos = (296,0);
},
{
name = top;
pos = (406,700);
}
);
layerId = m004;
shapes = (
{
closed = 1;
nodes = (
(209,700,l),
(37,0,l),
(78,0,l),
(131,215,l),
(300,215,l),
(300,0,l),
(565,0,l),
(565,40,l),
(340,40,l),
(340,352,l),
(555,352,l),
(555,392,l),
(340,392,l),
(340,660,l),
(565,660,l),
(565,700,l)
);
},
{
closed = 1;
nodes = (
(219,580,l),
(230,660,l),
(300,660,l),
(300,255,l),
(141,255,l)
);
}
);
width = 600;
}
);
unicode = 198;
},
{
glyphname = B;
lastChange = "2024-10-26 21:08:11 +0000";
layers = (
{
background = {
shapes = (
{
ref = E;
}
);
};
layerId = m003;
shapes = (
{
closed = 1;
nodes = (
(300,0,ls),
(440,0,o),
(533,68,o),
(533,209,cs),
(533,308,o),
(458,363,o),
(371,368,c),
(371,408,l),
(458,417,o),
(488,487,o),
(488,541,cs),
(488,649,o),
(406,700,o),
(293,700,cs),
(90,700,l),
(90,0,l)
);
},
{
closed = 1;
nodes = (
(180,337,l),
(297,337,ls),
(388,337,o),
(443,296,o),
(443,216,cs),
(443,129,o),
(389,90,o),
(297,90,cs),
(180,90,l)
);
},
{
closed = 1;
nodes = (
(180,610,l),
(293,610,ls),
(361,610,o),
(398,579,o),
(398,527,cs),
(398,463,o),
(360,427,o),
(293,427,cs),
(180,427,l)
);
}
);
width = 600;
},
{
layerId = m002;
shapes = (
{
closed = 1;
nodes = (
(300,0,ls),
(440,0,o),
(543,65,o),
(543,206,cs),
(543,305,o),
(463,363,o),
(396,368,c),
(396,408,l),
(463,420,o),
(498,477,o),
(498,541,cs),
(498,649,o),
(406,700,o),
(293,700,cs),
(80,700,l),
(80,0,l)
);
},
{
closed = 1;
nodes = (
(230,307,l),
(293,307,ls),
(352,307,o),
(393,287,o),
(393,230,cs),
(393,165,o),
(353,150,o),
(293,150,cs),
(230,150,l)
);
},
{
closed = 1;
nodes = (
(230,550,l),
(285,550,ls),
(319,550,o),
(348,541,o),
(348,505,cs),
(348,468,o),
(318,457,o),
(285,457,cs),
(230,457,l)
);
}
);
width = 600;
},
{
background = {
shapes = (
{
ref = E;
}
);
};
layerId = m004;
shapes = (
{
closed = 1;
nodes = (
(292,0,ls),
(422,0,o),
(523,68,o),
(523,199,cs),
(523,298,o),
(460,362,o),
(371,373,c),
(371,403,l),
(449,412,o),
(478,487,o),
(478,541,cs),
(478,649,o),
(396,700,o),
(293,700,cs),
(100,700,l),
(100,0,l)
);
},
{
closed = 1;
nodes = (
(140,364,l),
(297,364,ls),
(418,364,o),
(483,303,o),
(483,203,cs),
(483,107,o),
(413,40,o),
(291,40,cs),
(140,40,l)
);
},
{
closed = 1;
nodes = (
(140,660,l),
(293,660,ls),
(399,660,o),
(438,603,o),
(438,537,cs),
(438,463,o),
(386,404,o),
(299,404,cs),
(140,404,l)
);
}
);
width = 600;
}
);
unicode = 66;
},
{
glyphname = C;
lastChange = "2024-11-03 23:13:17 +0000";
layers = (
{
anchors = (
{
name = bottom;
pos = (309,0);
},
{
name = top;
pos = (299,700);
}
);
background = {
shapes = (
{
ref = O;
}
);
};
layerId = m003;
shapes = (
{
closed = 1;
nodes = (
(371,626,o),
(430,563,o),
(427,460,c),
(518,460,l),
(515,612,o),
(428,716,o),
(299,716,cs),
(143,716,o),
(63,578,o),
(63,350,cs),
(63,122,o),
(144,-12,o),
(299,-12,cs),
(431,-12,o),
(520,96,o),
(520,256,c),
(430,256,l),
(434,144,o),
(375,78,o),
(299,78,cs),
(206,78,o),
(153,162,o),
(153,350,cs),
(153,538,o),
(206,626,o),
(299,626,cs)
);
}
);
width = 600;
},
{
anchors = (
{
name = bottom;
pos = (309,0);
},
{
name = top;
pos = (299,700);
}
);
layerId = m002;
shapes = (
{
closed = 1;
nodes = (
(342,566,o),
(383,533,o),
(380,450,c),
(528,450,l),
(525,622,o),
(428,716,o),
(299,716,cs),
(143,716,o),
(53,578,o),
(53,350,cs),
(53,122,o),
(144,-12,o),
(299,-12,cs),
(431,-12,o),
(530,86,o),
(530,266,c),
(384,266,l),
(388,174,o),
(346,138,o),
(300,138,cs),
(240,138,o),
(203,192,o),
(203,350,cs),
(203,508,o),
(240,566,o),
(300,566,cs)
);
}
);
width = 600;
},
{
anchors = (
{
name = bottom;
pos = (309,0);
},
{
name = top;
pos = (299,700);
}
);
layerId = m004;
shapes = (
{
closed = 1;
nodes = (
(411,676,o),
(460,563,o),
(457,460,c),
(498,460,l),
(495,612,o),
(418,716,o),
(299,716,cs),
(153,716,o),
(83,578,o),
(83,350,cs),
(83,122,o),
(154,-12,o),
(299,-12,cs),
(421,-12,o),
(500,96,o),
(500,256,c),
(460,256,l),
(464,144,o),
(415,28,o),
(299,28,cs),
(166,28,o),
(123,162,o),
(123,350,cs),
(123,538,o),
(166,676,o),
(299,676,cs)
);
}
);
width = 600;
}
);
unicode = 67;
},
{
glyphname = D;
lastChange = "2024-10-05 20:25:16 +0000";
layers = (
{
anchors = (
{
name = bottom;
pos = (275,0);
},
{
name = top;
pos = (275,700);
}
);
layerId = m003;
shapes = (
{
closed = 1;
nodes = (
(233,610,l),
(356,612,o),
(433,543.8,o),
(433,376,c),
(433,329,l),
(433,161,o),
(357,90,o),
(234,90,c),
(173,90,l),
(173,609.411,l)
);
},
{
closed = 1;
nodes = (
(83,0,l),
(234,0,l),
(415,0,o),
(523,119,o),
(523,329,c),
(523,376,l),
(523,586.2,o),
(414,702,o),
(233,700,c),
(83,698.589,l)
);
}
);
width = 600;
},
{
anchors = (
{
name = bottom;
pos = (275,0);
},
{
name = top;
pos = (275,700);
}
);
layerId = m002;
shapes = (
{
closed = 1;
nodes = (
(243,551,l),
(350,553,o),
(383,514,o),
(383,376,c),
(383,329,l),
(383,201,o),
(351,150,o),
(244,150,c),
(223,150,l),
(223,550,l)
);
},
{
closed = 1;
nodes = (
(73,0,l),
(244,0,l),
(425,0,o),
(533,119,o),
(533,329,c),
(533,376,l),
(533,586,o),
(424,702,o),
(243,700,c),
(73,699,l)
);
}
);
width = 600;
},
{
anchors = (
{
name = bottom;
pos = (275,0);
},
{
name = top;
pos = (275,700);
}
);
layerId = m004;
shapes = (
{
closed = 1;
nodes = (
(243,660,l),
(392,662,o),
(473,554,o),
(473,396,c),
(473,309,l),
(473,151,o),
(393,40,o),
(244,40,c),
(133,40,l),
(133,659,l)
);
},
{
closed = 1;
nodes = (
(93,0,l),
(244,0,l),
(425,0,o),
(513,129,o),
(513,309,c),
(513,396,l),
(513,576,o),
(424,702,o),
(243,700,c),
(93,699,l)
);
}
);
width = 600;
}
);
unicode = 68;
},
{
glyphname = Dcroat;
lastChange = "2024-10-06 23:59:03 +0000";
layers = (
{
layerId = m003;
shapes = (
{
pos = (20,0);
ref = D;
},
{
closed = 1;
nodes = (
(44,314,l),
(342,314,l),
(342,404,l),
(44,404,l)
);
}
);
width = 600;
},
{
layerId = m002;
shapes = (
{
pos = (20,0);
ref = D;
},
{
closed = 1;
nodes = (
(34,284,l),
(342,284,l),
(342,434,l),
(34,434,l)
);
}
);
width = 600;
},
{
layerId = m004;
shapes = (
{
pos = (20,0);
ref = D;
},
{
closed = 1;
nodes = (
(44,339,l),
(342,339,l),
(342,379,l),
(44,379,l)
);
}
);
width = 600;
}
);
unicode = 272;
},
{
glyphname = E;
lastChange = "2024-10-07 00:22:06 +0000";
layers = (
{
anchors = (
{
name = bottom;
pos = (300,0);
},
{
name = "ogonek-hook";
pos = (515,0);
},
{
name = top;
pos = (300,700);
}
);
layerId = m003;
shapes = (
{
closed = 1;
nodes = (
(90,0,l),
(515,0,l),
(515,90,l),
(180,90,l),
(180,327,l),
(475,327,l),
(475,417,l),
(180,417,l),
(180,610,l),
(515,610,l),
(515,700,l),
(90,700,l)
);
}
);
width = 600;
},
{
anchors = (
{
name = bottom;
pos = (300,0);
},
{
name = "ogonek-hook";
pos = (525,0);
},
{
name = top;
pos = (300,700);
}
);
layerId = m002;
shapes = (
{
closed = 1;
nodes = (
(80,0,l),
(525,0,l),
(525,150,l),
(230,150,l),
(230,287,l),
(485,287,l),
(485,437,l),
(230,437,l),
(230,550,l),
(525,550,l),
(525,700,l),
(80,700,l)
);
}
);
width = 600;
},
{
anchors = (
{
name = bottom;
pos = (300,0);
},
{
name = "ogonek-hook";
pos = (515,0);
},
{
name = top;
pos = (300,700);
}
);
layerId = m004;
shapes = (
{
closed = 1;
nodes = (
(100,0,l),
(515,0,l),
(515,40,l),
(140,40,l),
(140,352,l),
(475,352,l),
(475,392,l),
(140,392,l),
(140,660,l),
(515,660,l),
(515,700,l),
(100,700,l)
);
}
);
width = 600;
}
);
unicode = 69;
},
{
glyphname = F;
lastChange = "2024-10-05 21:50:46 +0000";
layers = (
{
anchors = (
{
name = bottom;
pos = (300,0);
},
{
name = top;
pos = (300,700);
}
);
layerId = m003;
shapes = (
{
closed = 1;
nodes = (
(90,0,l),
(180,0,l),
(180,327,l),
(475,327,l),
(475,417,l),
(180,417,l),
(180,610,l),
(515,610,l),
(515,700,l),
(90,700,l)
);
}
);
width = 600;
},
{
anchors = (
{
name = bottom;
pos = (300,0);
},
{
name = top;
pos = (300,700);
}
);
layerId = m002;
shapes = (
{
closed = 1;
nodes = (
(80,0,l),
(230,0,l),
(230,297,l),
(485,297,l),
(485,447,l),
(230,447,l),
(230,550,l),
(525,550,l),
(525,700,l),
(80,700,l)
);
}
);
width = 600;
},
{
anchors = (
{
name = bottom;
pos = (300,0);
},
{
name = top;
pos = (300,700);
}
);
layerId = m004;
shapes = (
{
closed = 1;
nodes = (
(100,0,l),
(140,0,l),
(140,352,l),
(475,352,l),
(475,392,l),
(140,392,l),
(140,660,l),
(515,660,l),
(515,700,l),
(100,700,l)
);
}
);
width = 600;
}
);
unicode = 70;
},
{
glyphname = G;
lastChange = "2024-11-03 23:27:15 +0000";
layers = (
{
anchors = (
{
name = bottom;
pos = (300,-10);
},
{
name = top;
pos = (310,700);
}
);
layerId = m003;
shapes = (
{
closed = 1;
nodes = (
(218,80,o),
(163,151,o),
(163,350,cs),
(163,546,o),
(220,626,o),
(310,626,cs),
(390,626,o),
(440,552,o),
(437,460,c),
(528,460,l),
(527,590,o),
(453,716,o),
(310,716,cs),
(171,716,o),
(73,606,o),
(73,350,cs),
(73,85,o),
(181,-10,o),
(300,-10,cs),
(385,-10,o),
(427,66,o),
(443,145,c),
(483,145,l),
(438,0,l),
(528,0,l),
(528,385,l),
(267,385,l),
(267,295,l),
(429,295,l),
(429,173,o),
(381,80,o),
(312,80,cs)
);
}
);
width = 600;
},
{
anchors = (
{
name = bottom;
pos = (300,-10);
},
{
name = top;
pos = (310,700);
}
);
layerId = m002;
shapes = (
{
closed = 1;
nodes = (
(243,140,o),
(213,201,o),
(213,350,cs),
(213,516,o),
(243,566,o),
(310,566,cs),
(368,566,o),
(391,522,o),
(388,460,c),
(538,460,l),
(537,598,o),
(453,716,o),
(310,716,cs),
(171,716,o),
(63,606,o),
(63,350,cs),
(63,85,o),
(181,-10,o),
(300,-10,cs),
(380,-10,o),
(409,46,o),
(425,125,c),
(465,125,l),
(418,0,l),
(538,0,l),
(538,405,l),
(267,405,l),
(267,255,l),
(409,255,l),
(401,208,o),
(381,140,o),
(312,140,cs)
);
}
);
width = 600;
},
{
anchors = (
{
name = bottom;
pos = (300,-10);
},
{
name = top;
pos = (310,700);
}
);
layerId = m004;
shapes = (
{
closed = 1;
nodes = (
(198,30,o),
(123,151,o),
(123,350,cs),
(123,586,o),
(190,676,o),
(310,676,cs),
(400,676,o),
(490,602,o),
(487,460,c),
(528,460,l),
(527,590,o),
(453,716,o),
(310,716,cs),
(171,716,o),
(83,606,o),
(83,350,cs),
(83,85,o),
(181,-10,o),
(300,-10,cs),
(385,-10,o),
(452,46,o),
(468,145,c),
(508,145,l),
(488,0,l),
(528,0,l),
(528,365,l),
(267,365,l),
(267,325,l),
(489,325,l),
(489,203,o),
(431,30,o),
(312,30,cs)
);
}
);
width = 600;
}
);
unicode = 71;
},
{
glyphname = H;
lastChange = "2024-10-26 20:52:00 +0000";
layers = (
{
anchors = (
{
name = bottom;
pos = (299,0);
},
{
name = top;
pos = (299,700);
}
);
layerId = m003;
shapes = (
{
closed = 1;
nodes = (
(430,0,l),
(520,0,l),
(520,700,l),
(430,700,l),
(430,408,l),
(170,408,l),
(170,700,l),
(80,700,l),
(80,0,l),
(170,0,l),
(170,318,l),
(430,318,l)
);
}
);
width = 600;
},
{
anchors = (
{
name = bottom;
pos = (299,0);
},
{
name = top;
pos = (299,700);
}
);
layerId = m002;
shapes = (
{
closed = 1;
nodes = (
(380,0,l),
(530,0,l),
(530,700,l),
(380,700,l),
(380,438,l),
(220,438,l),
(220,700,l),
(70,700,l),
(70,0,l),
(220,0,l),
(220,288,l),
(380,288,l)
);
}
);
width = 599;
},
{
anchors = (
{
name = bottom;
pos = (299,0);
},
{
name = top;
pos = (299,700);
}
);
layerId = m004;
shapes = (
{
closed = 1;
nodes = (
(470,0,l),
(510,0,l),
(510,700,l),
(470,700,l),
(470,383,l),
(130,383,l),
(130,700,l),
(90,700,l),
(90,0,l),
(130,0,l),
(130,343,l),
(470,343,l)
);
}
);
width = 600;
}
);
unicode = 72;
},
{
glyphname = Hbar;
lastChange = "2024-11-03 23:28:42 +0000";
layers = (
{
anchors = (
{
name = bottom;
pos = (299,0);
},
{
name = top;
pos = (299,700);
}
);
layerId = m003;
name = "SemiExpanded Regular";
shapes = (
{
ref = H;
},
{
closed = 1;
nodes = (
(39,510,l),
(561,510,l),
(561,590,l),
(39,590,l)
);
}
);
width = 600;
},
{
anchors = (
{
name = bottom;
pos = (299,0);
},
{
name = top;
pos = (299,700);
}
);
layerId = m002;
name = "SemiExpanded Regular";
shapes = (
{
ref = H;
},
{
closed = 1;
nodes = (
(29,480,l),
(571,480,l),
(571,630,l),
(29,630,l)
);
}
);
width = 600;
},
{
anchors = (
{
name = bottom;
pos = (299,0);
},
{
name = top;
pos = (299,700);
}
);
layerId = m004;
name = "SemiExpanded Regular";
shapes = (
{
ref = H;
},
{
closed = 1;
nodes = (
(39,510,l),
(561,510,l),
(561,550,l),
(39,550,l)
);
}
);
width = 600;
}
);
unicode = 294;
},
{
glyphname = I;
lastChange = "2024-10-05 20:23:25 +0000";
layers = (
{
anchors = (
{
name = bottom;
pos = (300,0);
},
{
name = "ogonek-hook";
pos = (500,0);
},
{
name = top;
pos = (300,700);
}
);
layerId = m003;
shapes = (
{
closed = 1;
nodes = (
(100,0,l),
(500,0,l),
(500,90,l),
(345,90,l),
(345,610,l),
(500,610,l),
(500,700,l),
(100,700,l),
(100,610,l),
(255,610,l),
(255,90,l),
(100,90,l)
);
}
);
width = 600;
},
{
anchors = (
{
name = bottom;
pos = (300,0);
},
{
name = "ogonek-hook";
pos = (510,0);
},
{
name = top;
pos = (300,700);
}
);
layerId = m002;
shapes = (
{
closed = 1;
nodes = (
(90,0,l),
(510,0,l),
(510,150,l),
(375,150,l),
(375,550,l),
(510,550,l),
(510,700,l),
(90,700,l),
(90,550,l),
(225,550,l),
(225,150,l),
(90,150,l)
);
}
);
width = 600;
},
{
anchors = (
{
name = bottom;
pos = (300,0);
},
{
name = "ogonek-hook";
pos = (500,0);
},
{
name = top;
pos = (300,700);
}
);
layerId = m004;
shapes = (
{
closed = 1;
nodes = (
(100,0,l),
(500,0,l),
(500,40,l),
(320,40,l),
(320,660,l),
(500,660,l),
(500,700,l),
(100,700,l),
(100,660,l),
(280,660,l),
(280,40,l),
(100,40,l)
);
}
);
width = 600;
}
);
unicode = 73;
},
{
glyphname = IJ;
lastChange = "2024-10-06 11:24:42 +0000";
layers = (
{
anchors = (
{
name = bottom;
pos = (300,0);
},
{
name = top;
pos = (300,700);
}
);
layerId = m003;
shapes = (
{
closed = 1;
nodes = (
(84,360,l),
(174,360,l),
(174,700,l),
(84,700,l)
);
},
{
closed = 1;
nodes = (
(84,223,l),
(84,77.785,o),
(162.493,-12,o),
(299,-12,c),
(431.963,-12,o),
(509,77.215,o),
(509,223,c),
(509,700,l),
(254,700,l),
(254,610,l),
(419,610,l),
(419,223,l),
(419,123.785,o),
(379.037,78,o),
(299,78,c),
(215.507,78,o),
(174,124.215,o),
(174,223,c),
(174,274,l),
(84,274,l)
);
}
);
width = 600;
},
{
anchors = (
{
name = bottom;
pos = (300,0);
},
{
name = top;
pos = (300,700);
}
);
layerId = m002;
shapes = (
{
closed = 1;
nodes = (
(74,350,l),
(224,350,l),
(224,700,l),
(74,700,l)
);
},
{
closed = 1;
nodes = (
(74,223,l),
(74,78,o),
(162,-12,o),
(299,-12,c),
(432,-12,o),
(519,77,o),
(519,223,c),
(519,700,l),
(284,700,l),
(284,550,l),
(369,550,l),
(369,223,l),
(369,172,o),
(349,138,o),
(297,138,c),
(242,138,o),
(224,166,o),
(224,223,c),
(224,284,l),
(74,284,l)
);
}
);
width = 600;
},
{
anchors = (
{
name = bottom;
pos = (300,0);
},
{
name = top;
pos = (300,700);
}
);
layerId = m004;
shapes = (
{
closed = 1;
nodes = (
(94,370,l),
(134,370,l),
(134,700,l),
(94,700,l)
);
},
{
closed = 1;
nodes = (
(94,223,l),
(94,78,o),
(162,-12,o),
(299,-12,c),
(431.963,-12,o),
(499,77,o),
(499,223,c),
(499,700,l),
(224,700,l),
(224,660,l),
(459,660,l),
(459,213,l),
(459,84,o),
(389,28,o),
(299,28,c),
(206,28,o),
(134,84,o),
(134,213,c),
(134,264,l),
(94,264,l)
);
}
);
width = 600;
}
);
unicode = 306;
},
{
glyphname = J;
lastChange = "2024-10-06 11:25:59 +0000";
layers = (
{
anchors = (
{
name = bottom;
pos = (300,0);
},
{
name = top;
pos = (300,700);
}
);
layerId = m003;
shapes = (
{
closed = 1;
nodes = (
(84,223,l),
(84,77.785,o),
(162.493,-12,o),
(299,-12,c),
(431.963,-12,o),
(509,77.215,o),
(509,223,c),
(509,700,l),
(90,700,l),
(90,610,l),
(419,610,l),
(419,223,l),
(419,123.785,o),
(379.037,78,o),
(299,78,c),
(215.507,78,o),
(174,124.215,o),
(174,223,c),
(174,274,l),
(84,274,l)
);
}
);
width = 600;
},
{
anchors = (
{
name = bottom;
pos = (300,0);
},
{
name = top;
pos = (300,700);
}
);
layerId = m002;
shapes = (
{
closed = 1;
nodes = (
(74,223,l),
(74,78,o),
(162.493,-12,o),
(299,-12,c),
(431.963,-12,o),
(519,77,o),
(519,223,c),
(519,700,l),
(80,700,l),
(80,550,l),
(369,550,l),
(369,223,l),
(369,182,o),
(359,138,o),
(299,138,c),
(236,138,o),
(224,182,o),
(224,223,c),
(224,274,l),
(74,274,l)
);
}
);
width = 600;
},
{
anchors = (
{
name = bottom;
pos = (300,0);
},
{
name = top;
pos = (300,700);
}
);
layerId = m004;
shapes = (
{
closed = 1;
nodes = (
(94,223,l),
(94,48,o),
(172,-12,o),
(299,-12,c),
(432,-12,o),
(499,77,o),
(499,223,cs),
(499,700,l),
(100,700,l),
(100,660,l),
(459,660,l),
(459,213,ls),
(459,81,o),
(379,28,o),
(299,28,c),
(195,28,o),
(134,82,o),
(134,205,c),
(134,274,l),
(94,274,l)
);
}
);
width = 600;
}
);
unicode = 74;
},
{
glyphname = K;
lastChange = "2024-10-25 18:19:01 +0000";
layers = (
{
anchors = (
{
name = bottom;
pos = (293,0);
},
{
name = top;
pos = (285,700);
}
);
background = {
shapes = (
{
ref = H;
}
);
};
layerId = m003;
shapes = (
{
closed = 1;
nodes = (
(80,0,l),
(170,0,l),
(170,278,l),
(237,353,l),
(444,0,l),
(554,0,l),
(300,424,l),
(546,700,l),
(424,700,l),
(253,506,l),
(171,403,l),
(131,403,l),
(170,487,l),
(170,700,l),
(80,700,l)
);
}
);
width = 600;
},
{
anchors = (
{
name = bottom;
pos = (293,0);
},
{
name = top;
pos = (285,700);
}
);
layerId = m002;
shapes = (
{
closed = 1;
nodes = (
(70,0,l),
(220,0,l),
(220,278,l),
(224,283,l),
(389,0,l),
(574,0,l),
(320,424,l),
(566,700,l),
(369,700,l),
(252,568,l),
(194,433,l),
(154,433,l),
(215,577,l),
(220,700,l),
(70,700,l)
);
}
);
width = 600;
},
{
anchors = (
{
name = bottom;
pos = (293,0);
},
{
name = top;
pos = (285,700);
}
);
layerId = m004;
shapes = (
{
closed = 1;
nodes = (
(90,0,l),
(130,0,l),
(130,278,l),
(255,389,l),
(487,0,l),
(534,0,l),
(280,424,l),
(526,700,l),
(472,700,l),
(274,475,l),
(146,331,l),
(116,331,l),
(130,487,l),
(130,700,l),
(90,700,l)
);
}
);
width = 600;
}
);
unicode = 75;
},
{
glyphname = L;
lastChange = "2024-10-06 11:44:23 +0000";
layers = (
{
anchors = (
{
name = bottom;
pos = (300,0);
},
{
name = top;
pos = (135,700);
}
);
layerId = m003;
shapes = (
{
closed = 1;
nodes = (
(90,0,l),
(510,0,l),
(510,90,l),
(180,90,l),
(180,700,l),
(90,700,l)
);
}
);
width = 600;
},
{
anchors = (
{
name = bottom;
pos = (300,0);
},
{
name = top;
pos = (153,700);
}
);
layerId = m002;
shapes = (
{
closed = 1;
nodes = (
(80,0,l),
(520,0,l),
(520,150,l),
(230,150,l),
(230,700,l),
(80,700,l)
);
}
);
width = 600;
},
{
anchors = (
{
name = bottom;
pos = (300,0);
},
{
name = top;
pos = (120,700);
}
);
layerId = m004;
shapes = (
{
closed = 1;
nodes = (
(100,0,l),
(500,0,l),
(500,40,l),
(140,40,l),
(140,700,l),
(100,700,l)
);
}
);
width = 600;
}
);
unicode = 76;
},
{
glyphname = Lslash;
lastChange = "2024-11-03 23:29:31 +0000";
layers = (
{
layerId = m003;
shapes = (
{
ref = L;
},
{
closed = 1;
nodes = (
(23,206,l),
(389,377,l),
(389,467,l),
(23,296,l)
);
}
);
width = 600;
},
{
layerId = m002;
shapes = (
{
ref = L;
},
{
closed = 1;
nodes = (
(23,167,l),
(389,338,l),
(389,502,l),
(23,331,l)
);
}
);
width = 600;
},
{
layerId = m004;
shapes = (
{
ref = L;
},
{
closed = 1;
nodes = (
(23,229,l),
(389,400,l),
(389,443,l),
(23,272,l)
);
}
);
width = 600;
}
);
unicode = 321;
},
{
glyphname = M;
lastChange = "2024-10-25 18:19:16 +0000";
layers = (
{
layerId = m003;
shapes = (
{
closed = 1;
nodes = (
(158,0,l),
(158,303,l),
(121,630,l),
(161,630,l),
(193,403,l),
(230,245,l),
(370,245,l),
(407,403,l),
(439,630,l),
(479,630,l),
(442,303,l),
(442,0,l),
(532,0,l),
(532,700,l),
(403,700,l),
(320,383,l),
(320,315,l),
(280,315,l),
(280,383,l),
(197,700,l),
(68,700,l),
(68,0,l)
);
}
);
width = 600;
},
{
layerId = m002;
shapes = (
{
closed = 1;
nodes = (
(208,0,l),
(208,153,l),
(138,580,l),
(178,580,l),
(215,343,l),
(240,205,l),
(360,205,l),
(385,343,l),
(422,580,l),
(462,580,l),
(392,153,l),
(392,0,l),
(542,0,l),
(542,700,l),
(363,700,l),
(320,542,l),
(320,335,l),
(280,335,l),
(280,542,l),
(237,700,l),
(58,700,l),
(58,0,l)
);
}
);
width = 600;
},
{
layerId = m004;
shapes = (
{
closed = 1;
nodes = (
(118,0,l),
(118,303,l),
(110,670,l),
(140,670,l),
(239,345,l),
(263,265,l),
(339,265,l),
(363,345,l),
(462,670,l),
(492,670,l),
(484,303,l),
(484,0,l),
(524,0,l),
(524,700,l),
(435,700,l),
(321,335,l),
(317,295,l),
(285,295,l),
(281,335,l),
(167,700,l),
(78,700,l),
(78,0,l)
);
}
);
width = 600;
}
);
unicode = 77;
},
{
glyphname = N;
lastChange = "2024-10-25 18:19:32 +0000";
layers = (
{
anchors = (
{
name = bottom;
pos = (307,0);
},
{
name = hookleft;
pos = (80,0);
},
{
name = hookright;
pos = (520,0);
},
{
name = top;
pos = (301,700);
}
);
background = {
shapes = (
{
ref = H;
}
);
};
layerId = m003;
shapes = (
{
closed = 1;
nodes = (
(430,271,l),
(475,80,l),
(435,80,l),
(395,244,l),
(183,700,l),
(80,700,l),
(80,0,l),
(170,0,l),
(170,429,l),
(125,620,l),
(165,620,l),
(205,456,l),
(417,0,l),
(520,0,l),
(520,700,l),
(430,700,l)
);
}
);
width = 600;
},
{
anchors = (
{
name = bottom;
pos = (307,0);
},
{
name = hookleft;
pos = (70,0);
},
{
name = hookright;
pos = (530,0);
},
{
name = top;
pos = (301,700);
}
);
layerId = m002;
shapes = (
{
closed = 1;
nodes = (
(385,457,l),
(455,120,l),
(415,120,l),
(341,433,l),
(219,700,l),
(70,700,l),
(70,0,l),
(220,0,l),
(215,249,l),
(145,580,l),
(185,580,l),
(260,259,l),
(379,0,l),
(530,0,l),
(530,700,l),
(380,700,l)
);
}
);
width = 600;
},
{
anchors = (
{
name = bottom;
pos = (307,0);
},
{
name = hookleft;
pos = (80,0);
},
{
name = hookright;
pos = (520,0);
},
{
name = top;
pos = (301,700);
}
);
layerId = m004;
shapes = (
{
closed = 1;
nodes = (
(470,271,l),
(483,30,l),
(453,30,l),
(375,244,l),
(168,700,l),
(90,700,l),
(90,0,l),
(130,0,l),
(130,429,l),
(117,670,l),
(147,670,l),
(231,456,l),
(438,0,l),
(510,0,l),
(510,700,l),
(470,700,l)
);
}
);
width = 600;
}
);
unicode = 78;
},
{
glyphname = Nhookleft;
lastChange = "2024-11-03 23:31:00 +0000";
layers = (
{
layerId = m003;
name = "SemiExpanded Regular";
shapes = (
{
ref = N;
},
{
closed = 1;
nodes = (
(32,-160,ls),
(118,-160,o),
(170,-121,o),
(170,-14,c),
(170,0,l),
(124,10,l),
(80,0,l),
(80,-14,l),
(80,-63,o),
(59,-70,o),
(32,-70,cs),
(1,-70,l),
(1,-160,l)
);
}
);
width = 600;
},
{
associatedMasterId = m003;
layerId = "F44A6043-0F12-49EB-98EB-492B1A75D8E8";
name = "Condensed Regular";
shapes = (
{
ref = N;
},
{
anchor = hookleft;
pos = (600,0);
ref = _part.Hook;
}
);
width = 600;
},
{
associatedMasterId = m003;
layerId = "283BBB11-10E2-4BA3-B2DC-225682E9E3A7";
name = "Condensed ExtraBold";
shapes = (
{
ref = N;
},
{
anchor = hookleft;
pos = (600,0);
ref = _part.Hook;
}
);
width = 600;
},
{
associatedMasterId = m003;
layerId = "E933CF4D-0C06-463E-9C20-D89B75D937A0";
name = "SemiExpanded Thin";
shapes = (
{
ref = N;
},
{
anchor = hookleft;
pos = (600,0);
ref = _part.Hook;
}
);
width = 600;
},
{
associatedMasterId = m003;
layerId = "68903EB4-BA36-4B9B-AE7A-CBD80F8490C4";
name = "SemiExpanded ExtraBold";
shapes = (
{
ref = N;
},
{
anchor = hookleft;
pos = (600,0);
ref = _part.Hook;
}
);
width = 600;
},
{
layerId = m002;
name = "SemiExpanded Regular";
shapes = (
{
ref = N;
},
{
closed = 1;
nodes = (
(62,-195,ls),
(188,-195,o),
(220,-111,o),
(220,-34,c),
(220,0,l),
(136,20,l),
(70,0,l),
(70,-14,l),
(70,-40,o),
(59,-45,o),
(42,-45,cs),
(1,-45,l),
(1,-195,l)
);
}
);
width = 600;
},
{
associatedMasterId = m002;
layerId = "F90A4D65-7796-450B-989B-6DF32B3B03EA";
name = "Condensed Regular";
shapes = (
{
ref = N;
},
{
anchor = hookleft;
pos = (600,0);
ref = _part.Hook;
}
);
width = 600;
},
{
associatedMasterId = m002;
layerId = "977A500F-FF0E-4252-9F0D-246B390B9D6F";
name = "Condensed ExtraBold";
shapes = (
{
ref = N;
},
{
anchor = hookleft;
pos = (600,0);
ref = _part.Hook;
}
);
width = 600;
},
{
associatedMasterId = m002;
layerId = "0C481356-F34E-4EAD-9A0D-0906EEC08413";
name = "SemiExpanded Thin";
shapes = (
{
ref = N;
},
{
anchor = hookleft;
pos = (600,0);
ref = _part.Hook;
}
);
width = 600;
},
{
associatedMasterId = m002;
layerId = "3B3B3A5F-9346-4DE1-A0E9-2580F462DBE4";
name = "SemiExpanded ExtraBold";
shapes = (
{
ref = N;
},
{
anchor = hookleft;
pos = (600,0);
ref = _part.Hook;
}
);
width = 600;
},
{
layerId = m004;
name = "SemiExpanded Regular";
shapes = (
{
ref = N;
},
{
closed = 1;
nodes = (
(32,-120,ls),
(91,-120,o),
(130,-89,o),
(130,-14,c),
(130,0,l),
(124,10,l),
(90,0,l),
(90,-14,l),
(90,-65,o),
(69,-80,o),
(32,-80,cs),
(1,-80,l),
(1,-120,l)
);
}
);
width = 600;
},
{
associatedMasterId = m004;
layerId = "100C8C0E-CFC9-4937-9378-C5F08062AD86";
name = "Condensed Regular";
shapes = (
{
ref = N;
},
{
anchor = hookleft;
pos = (600,0);
ref = _part.Hook;
}
);
width = 600;
},
{
associatedMasterId = m004;
layerId = "9024882E-4C05-4893-8A49-FDA6D9EB4AD6";
name = "Condensed ExtraBold";
shapes = (
{
ref = N;
},
{
anchor = hookleft;
pos = (600,0);
ref = _part.Hook;
}
);
width = 600;
},
{
associatedMasterId = m004;
layerId = "D287A1C7-9314-4301-83BC-C00918B89AA5";
name = "SemiExpanded Thin";
shapes = (
{
ref = N;
},
{
anchor = hookleft;
pos = (600,0);
ref = _part.Hook;
}
);
width = 600;
},
{
associatedMasterId = m004;
layerId = "E701E3AE-7480-4D19-A556-215436D3749F";
name = "SemiExpanded ExtraBold";
shapes = (
{
ref = N;
},
{
anchor = hookleft;
pos = (600,0);
ref = _part.Hook;
}
);
width = 600;
}
);
unicode = 413;
},
{
glyphname = Eng;
lastChange = "2024-11-03 23:55:14 +0000";
layers = (
{
layerId = m003;
name = "SemiExpanded Regular";
shapes = (
{
ref = N;
},
{
closed = 1;
nodes = (
(387,-160,ls),
(473,-160,o),
(520,-127,o),
(520,-20,c),
(520,0,l),
(466,10,l),
(417,0,l),
(417,-24,l),
(417,-56,o),
(410,-70,o),
(382,-70,cs),
(351,-70,l),
(351,-160,l)
);
}
);
width = 600;
},
{
associatedMasterId = m003;
layerId = "1FD5232B-C939-4003-8234-F562C5D9F425";
name = "Condensed Regular";
shapes = (
{
ref = N;
},
{
anchor = bottomright;
pos = (600,0);
ref = _part.Hook;
}
);
width = 600;
},
{
associatedMasterId = m003;
layerId = "D4DED1BC-DBAE-4613-8CA8-9A66E1ED7730";
name = "Condensed ExtraBold";
shapes = (
{
ref = N;
},
{
anchor = bottomright;
pos = (600,0);
ref = _part.Hook;
}
);
width = 600;
},
{
associatedMasterId = m003;
layerId = "AFE3DA56-ED02-4738-B044-A0B553257340";
name = "SemiExpanded Thin";
shapes = (
{
ref = N;
},
{
anchor = bottomright;
pos = (600,0);
ref = _part.Hook;
}
);
width = 600;
},
{
associatedMasterId = m003;
layerId = "6C58C34D-0F00-4A5B-9764-9761FC999931";
name = "SemiExpanded ExtraBold";
shapes = (
{
ref = N;
},
{
anchor = bottomright;
pos = (600,0);
ref = _part.Hook;
}
);
width = 600;
},
{
layerId = m002;
name = "SemiExpanded Regular";
shapes = (
{
ref = N;
},
{
closed = 1;
nodes = (
(369,-180,ls),
(485,-180,o),
(530,-131,o),
(530,-24,c),
(530,0,l),
(463,20,l),
(379,0,l),
(379,-14,l),
(379,-33,o),
(373,-40,o),
(357,-40,cs),
(338,-40,l),
(338,-180,l)
);
}
);
width = 600;
},
{
associatedMasterId = m002;
layerId = "0DCEC7C9-BC2A-4748-82EC-9D5FB1314993";
name = "Condensed Regular";
shapes = (
{
ref = N;
},
{
anchor = bottomright;
pos = (600,0);
ref = _part.Hook;
}
);
width = 600;
},
{
associatedMasterId = m002;
layerId = "C8375676-3196-4936-A727-3BDE8C8E9C4D";
name = "Condensed ExtraBold";
shapes = (
{
ref = N;
},
{
anchor = bottomright;
pos = (600,0);
ref = _part.Hook;
}
);
width = 600;
},
{
associatedMasterId = m002;
layerId = "3850C303-9DDF-436B-8043-4A83E803E97A";
name = "SemiExpanded Thin";
shapes = (
{
ref = N;
},
{
anchor = bottomright;
pos = (600,0);
ref = _part.Hook;
}
);
width = 600;
},
{
associatedMasterId = m002;
layerId = "4B435B22-66EC-4738-BD84-681D78048697";
name = "SemiExpanded ExtraBold";
shapes = (
{
ref = N;
},
{
anchor = bottomright;
pos = (600,0);
ref = _part.Hook;
}
);
width = 600;
},
{
layerId = m004;
name = "SemiExpanded Regular";
shapes = (
{
ref = N;
},
{
closed = 1;
nodes = (
(387,-150,ls),
(455,-150,o),
(510,-127,o),
(510,-20,c),
(510,0,l),
(490,10,l),
(470,0,l),
(470,-24,l),
(470,-86,o),
(449,-110,o),
(388,-110,cs),
(351,-110,l),
(351,-150,l)
);
}
);
width = 600;
},
{
associatedMasterId = m004;
layerId = "14DB5012-3EE2-41F9-B5B4-6770A1F1146E";
name = "Condensed Regular";
shapes = (
{
ref = N;
},
{
anchor = bottomright;
pos = (600,0);
ref = _part.Hook;
}
);
width = 600;
},
{
associatedMasterId = m004;
layerId = "8347356D-116F-4009-99B1-052A27ABFD00";
name = "Condensed ExtraBold";
shapes = (
{
ref = N;
},
{
anchor = bottomright;
pos = (600,0);
ref = _part.Hook;
}
);
width = 600;
},
{
associatedMasterId = m004;
layerId = "1F25C0A3-2AD5-4906-942F-E69C080BE467";
name = "SemiExpanded Thin";
shapes = (
{
ref = N;
},
{
anchor = bottomright;
pos = (600,0);
ref = _part.Hook;
}
);
width = 600;
},
{
associatedMasterId = m004;
layerId = "F5F3EFE0-7453-42AC-8127-FB8C9FD37603";
name = "SemiExpanded ExtraBold";
shapes = (
{
ref = N;
},
{
anchor = bottomright;
pos = (600,0);
ref = _part.Hook;
}
);
width = 600;
}
);
unicode = 330;
},
{
glyphname = O;
lastChange = "2024-10-06 12:21:21 +0000";
layers = (
{
anchors = (
{
name = bottom;
pos = (300,0);
},
{
name = top;
pos = (300,700);
}
);
layerId = m003;
shapes = (
{
closed = 1;
nodes = (
(392.082,626,o),
(445,537.768,o),
(445,350,c),
(445,162.425,o),
(392.361,78,o),
(299,78,c),
(205.639,78,o),
(153,162.425,o),
(153,350,c),
(153,537.768,o),
(205.918,626,o),
(299,626,c)
);
},
{
closed = 1;
nodes = (
(143.482,716,o),
(63,577.832,o),
(63,350,c),
(63,121.975,o),
(143.761,-12,o),
(299,-12,c),
(454.239,-12,o),
(535,121.975,o),
(535,350,c),
(535,577.832,o),
(454.518,716,o),
(299,716,c)
);
}
);
width = 600;
},
{
anchors = (
{
name = bottom;
pos = (300,0);
},
{
name = top;
pos = (300,700);
}
);
layerId = m002;
shapes = (
{
closed = 1;
nodes = (
(372,566,o),
(395,478,o),
(395,350,c),
(395,222,o),
(372,138,o),
(299,138,c),
(226,138,o),
(203,222,o),
(203,350,c),
(203,478,o),
(226,566,o),
(299,566,c)
);
},
{
closed = 1;
nodes = (
(143.482,716,o),
(53,578,o),
(53,350,c),
(53,122,o),
(143.761,-12,o),
(299,-12,c),
(454.239,-12,o),
(545,122,o),
(545,350,c),
(545,578,o),
(454.518,716,o),
(299,716,c)
);
}
);
width = 600;
},
{
anchors = (
{
name = bottom;
pos = (300,0);
},
{
name = top;
pos = (300,700);
}
);
layerId = m004;
shapes = (
{
closed = 1;
nodes = (
(409,676,o),
(485,581,o),
(485,350,c),
(485,120,o),
(409,28,o),
(299,28,c),
(189,28,o),
(113,120,o),
(113,350,c),
(113,581,o),
(189,676,o),
(299,676,c)
);
},
{
closed = 1;
nodes = (
(143.482,716,o),
(73,578,o),
(73,350,c),
(73,122,o),
(143.761,-12,o),
(299,-12,c),
(454,-12,o),
(525,122,o),
(525,350,c),
(525,578,o),
(455,716,o),
(299,716,c)
);
}
);
width = 600;
}
);
unicode = 79;
},
{
glyphname = Oslash;
lastChange = "2024-10-06 12:23:33 +0000";
layers = (
{
layerId = m003;
shapes = (
{
closed = 1;
nodes = (
(68,0,l),
(158,0,l),
(534,700,l),
(444,700,l)
);
},
{
ref = O;
}
);
width = 600;
},
{
layerId = m002;
shapes = (
{
closed = 1;
nodes = (
(28,0,l),
(198,0,l),
(574,700,l),
(404,700,l)
);
},
{
ref = O;
}
);
width = 600;
},
{
layerId = m004;
shapes = (
{
closed = 1;
nodes = (
(90,0,l),
(136,0,l),
(512,700,l),
(466,700,l)
);
},
{
ref = O;
}
);
width = 600;
}
);
unicode = 216;
},
{
glyphname = OE;
lastChange = "2024-10-25 18:19:47 +0000";
layers = (
{
anchors = (
{
name = bottom;
pos = (300,0);
},
{
name = top;
pos = (300,700);
}
);
layerId = m003;
shapes = (
{
closed = 1;
nodes = (
(255,626,o),
(289,538,o),
(289,350,cs),
(289,162,o),
(255,78,o),
(207,78,cs),
(159,78,o),
(125,162,o),
(125,350,cs),
(125,538,o),
(159,626,o),
(207,626,cs)
);
},
{
closed = 1;
nodes = (
(93,716,o),
(35,578,o),
(35,350,cs),
(35,122,o),
(94,-12,o),
(207,-12,cs),
(261,-12,o),
(296,27,o),
(308,75,c),
(348,75,l),
(348,0,l),
(573,0,l),
(573,90,l),
(408,90,l),
(408,327,l),
(563,327,l),
(563,417,l),
(408,417,l),
(408,610,l),
(573,610,l),
(573,700,l),
(348,700,l),
(348,625,l),
(308,625,l),
(296,673,o),
(261,716,o),
(207,716,cs)
);
}
);
width = 600;
},
{
anchors = (
{
name = bottom;
pos = (300,0);
},
{
name = top;
pos = (300,700);
}
);
layerId = m002;
shapes = (
{
closed = 1;
nodes = (
(242,566,o),
(249,498,o),
(249,350,cs),
(249,202,o),
(242,138,o),
(214,138,cs),
(186,138,o),
(175,202,o),
(175,350,cs),
(175,498,o),
(186,566,o),
(214,566,cs)
);
},
{
closed = 1;
nodes = (
(93,716,o),
(25,578,o),
(25,350,cs),
(25,122,o),
(94,-12,o),
(207,-12,cs),
(261,-12,o),
(295,17,o),
(308,75,c),
(348,75,l),
(348,0,l),
(583,0,l),
(583,150,l),
(418,150,l),
(418,297,l),
(573,297,l),
(573,447,l),
(418,447,l),
(418,550,l),
(583,550,l),
(583,700,l),
(348,700,l),
(348,625,l),
(308,625,l),
(296,683,o),
(261,716,o),
(207,716,cs)
);
}
);
width = 600;
},
{
anchors = (
{
name = bottom;
pos = (300,0);
},
{
name = top;
pos = (300,700);
}
);
layerId = m004;
shapes = (
{
closed = 1;
nodes = (
(285,676,o),
(328,578,o),
(328,350,cs),
(328,132,o),
(285,28,o),
(207,28,cs),
(129,28,o),
(85,132,o),
(85,350,cs),
(85,578,o),
(129,676,o),
(207,676,cs)
);
},
{
closed = 1;
nodes = (
(93,716,o),
(45,578,o),
(45,350,cs),
(45,122,o),
(94,-12,o),
(207,-12,cs),
(261,-12,o),
(306,27,o),
(318,75,c),
(348,75,l),
(348,0,l),
(563,0,l),
(563,40,l),
(388,40,l),
(388,352,l),
(553,352,l),
(553,392,l),
(388,392,l),
(388,660,l),
(563,660,l),
(563,700,l),
(348,700,l),
(348,625,l),
(318,625,l),
(306,673,o),
(261,716,o),
(207,716,cs)
);
}
);
width = 600;
}
);
unicode = 338;
},
{
glyphname = P;
lastChange = "2024-10-06 12:43:01 +0000";
layers = (
{
background = {
shapes = (
{
ref = B;
}
);
};
layerId = m003;
shapes = (
{
closed = 1;
nodes = (
(180,0,l),
(180,308,l),
(339,308,ls),
(462,308,o),
(536,382,o),
(536,505,cs),
(536,628,o),
(462,702,o),
(339,702,cs),
(90,702,l),
(90,0,l)
);
},
{
closed = 1;
nodes = (
(180,612,l),
(339,612,ls),
(412,612,o),
(446,578,o),
(446,505,cs),
(446,432,o),
(412,398,o),
(339,398,cs),
(180,398,l)
);
}
);
width = 600;
},
{
layerId = m002;
shapes = (
{
closed = 1;
nodes = (
(230,0,l),
(230,275,l),
(329,275,ls),
(472,275,o),
(546,362,o),
(546,491,cs),
(546,608,o),
(472,702,o),
(329,702,cs),
(80,702,l),
(80,0,l)
);
},
{
closed = 1;
nodes = (
(230,552,l),
(318,552,ls),
(371,552,o),
(396,534,o),
(396,491,cs),
(396,448,o),
(371,425,o),
(318,425,cs),
(230,425,l)
);
}
);
width = 600;
},
{
layerId = m004;
shapes = (
{
closed = 1;
nodes = (
(140,0,l),
(140,328,l),
(327,328,ls),
(450,328,o),
(526,402,o),
(526,515,cs),
(526,618,o),
(450,702,o),
(327,702,cs),
(100,702,l),
(100,0,l)
);
},
{
closed = 1;
nodes = (
(140,662,l),
(333,662,ls),
(445,662,o),
(486,578,o),
(486,515,cs),
(486,442,o),
(445,368,o),
(333,368,cs),
(140,368,l)
);
}
);
width = 600;
}
);
unicode = 80;
},
{
glyphname = Thorn;
lastChange = "2024-10-06 12:52:06 +0000";
layers = (
{
layerId = m003;
shapes = (
{
closed = 1;
nodes = (
(90,0,l),
(180,0,l),
(180,172,l),
(339,172,ls),
(462,172,o),
(536,246,o),
(536,369,cs),
(536,492,o),
(462,566,o),
(339,566,cs),
(180,566,l),
(180,700,l),
(90,700,l)
);
},
{
closed = 1;
nodes = (
(180,476,l),
(339,476,ls),
(412,476,o),
(446,442,o),
(446,369,cs),
(446,296,o),
(412,262,o),
(339,262,cs),
(180,262,l)
);
}
);
width = 600;
},
{
layerId = m002;
shapes = (
{
closed = 1;
nodes = (
(80,0,l),
(230,0,l),
(230,137,l),
(319,137,ls),
(452,137,o),
(546,226,o),
(546,369,cs),
(546,512,o),
(452,597,o),
(319,597,cs),
(230,597,l),
(230,700,l),
(80,700,l)
);
},
{
closed = 1;
nodes = (
(230,447,l),
(311,447,ls),
(364,447,o),
(396,422,o),
(396,369,cs),
(396,316,o),
(364,287,o),
(311,287,cs),
(230,287,l)
);
}
);
width = 600;
},
{
layerId = m004;
shapes = (
{
closed = 1;
nodes = (
(100,0,l),
(140,0,l),
(140,197,l),
(331,197,ls),
(448,197,o),
(526,246,o),
(526,369,cs),
(526,492,o),
(448,541,o),
(331,541,cs),
(140,541,l),
(140,700,l),
(100,700,l)
);
},
{
closed = 1;
nodes = (
(140,501,l),
(341,501,ls),
(434,501,o),
(486,462,o),
(486,369,cs),
(486,276,o),
(434,237,o),
(341,237,cs),
(140,237,l)
);
}
);
width = 600;
}
);
unicode = 222;
},
{
glyphname = Q;
lastChange = "2024-10-06 12:50:05 +0000";
layers = (
{
layerId = m003;
shapes = (
{
ref = O;
},
{
closed = 1;
nodes = (
(342,237,l),
(238,237,l),
(422,-84,l),
(526,-84,l)
);
}
);
width = 600;
},
{
layerId = m002;
shapes = (
{
ref = O;
},
{
closed = 1;
nodes = (
(395,237,l),
(238,237,l),
(422,-84,l),
(579,-84,l)
);
}
);
width = 600;
},
{
layerId = m004;
shapes = (
{
ref = O;
},
{
closed = 1;
nodes = (
(342,237,l),
(298,237,l),
(482,-84,l),
(526,-84,l)
);
}
);
width = 600;
}
);
unicode = 81;
},
{
glyphname = R;
lastChange = "2024-11-01 01:24:30 +0000";
layers = (
{
anchors = (
{
name = bottom;
pos = (304,0);
},
{
name = top;
pos = (287,700);
}
);
layerId = m003;
shapes = (
{
closed = 1;
nodes = (
(180,0,l),
(180,308,l),
(286,308,l),
(437,0,l),
(540,0,l),
(422,241,ls),
(409,267,o),
(396,288,o),
(370,301,cs),
(335,318,l),
(335,358,l),
(404,327,o),
(536,358,o),
(536,512,cs),
(536,635,o),
(462,700,o),
(339,700,cs),
(90,700,l),
(90,0,l)
);
},
{
closed = 1;
nodes = (
(180,610,l),
(338,610,ls),
(411,610,o),
(446,577,o),
(446,504,cs),
(446,432,o),
(408,398,o),
(335,398,cs),
(180,398,l)
);
}
);
width = 600;
},
{
anchors = (
{
name = bottom;
pos = (304,0);
},
{
name = top;
pos = (287,700);
}
);
layerId = m002;
shapes = (
{
closed = 1;
nodes = (
(230,0,l),
(230,273,l),
(282,273,l),
(414,0,l),
(580,0,l),
(455,251,ls),
(438,284,o),
(424,293,o),
(397,304,cs),
(377,312,l),
(377,352,l),
(451,318,o),
(546,382,o),
(546,512,cs),
(546,645,o),
(462,700,o),
(339,700,cs),
(80,700,l),
(80,0,l)
);
},
{
closed = 1;
nodes = (
(230,550,l),
(334,550,ls),
(370,550,o),
(396,531,o),
(396,495,cs),
(396,460,o),
(367,438,o),
(334,438,cs),
(230,438,l)
);
}
);
width = 600;
},
{
anchors = (
{
name = bottom;
pos = (304,0);
},
{
name = top;
pos = (287,700);
}
);
layerId = m004;
shapes = (
{
closed = 1;
nodes = (
(140,0,l),
(140,335,l),
(306,335,l),
(484,0,l),
(530,0,l),
(386,277,ls),
(375,298,o),
(363,310,o),
(354,316,cs),
(339,325,l),
(339,355,l),
(401,336,o),
(526,373,o),
(526,518,cs),
(526,635,o),
(462,700,o),
(329,700,cs),
(100,700,l),
(100,0,l)
);
},
{
closed = 1;
nodes = (
(140,660,l),
(328,660,ls),
(441,660,o),
(486,611,o),
(486,518,cs),
(486,416,o),
(416,375,o),
(315,375,cs),
(140,375,l)
);
}
);
width = 600;
}
);
unicode = 82;
},
{
glyphname = S;
lastChange = "2024-11-04 00:24:06 +0000";
layers = (
{
anchors = (
{
name = bottom;
pos = (303,0);
},
{
name = top;
pos = (296,700);
}
);
layerId = m003;
shapes = (
{
closed = 1;
nodes = (
(83,33,o),
(203,-11,o),
(301,-12,c),
(395,-13,o),
(518,45,o),
(519,193,c),
(520,445,o),
(171,355,o),
(169,517,c),
(168,575,o),
(211,625,o),
(296,626,c),
(381,627,o),
(423,577,o),
(423,500,c),
(513,500,l),
(513,621,o),
(435,717,o),
(296,716,c),
(157,715,o),
(78,619,o),
(79,515,c),
(83,265,o),
(430,365,o),
(429,193,c),
(428,107,o),
(361,77,o),
(303,78,c),
(229,79,o),
(171,104,o),
(169,209,c),
(79,207,l)
);
}
);
width = 600;
},
{
anchors = (
{
name = bottom;
pos = (303,0);
},
{
name = top;
pos = (296,700);
}
);
layerId = m002;
shapes = (
{
closed = 1;
nodes = (
(73,33,o),
(203.245,-10.855,o),
(301,-12,c),
(395.432,-13.233,o),
(528,35,o),
(529,193,cs),
(530,455,o),
(221,396,o),
(219,513,c),
(218,549,o),
(249,566,o),
(294,566,cs),
(348,566,o),
(373,544,o),
(373,500,c),
(523,500,l),
(523,621,o),
(435,717,o),
(296,716,cs),
(157,715,o),
(67,629,o),
(69,515,cs),
(73,255,o),
(380,325,o),
(379,193,cs),
(379,167,o),
(361,138,o),
(303,138,cs),
(246,138,o),
(221,164,o),
(219,209,c),
(69,207,l)
);
}
);
width = 600;
},
{
anchors = (
{
name = bottom;
pos = (303,0);
},
{
name = top;
pos = (296,700);
}
);
layerId = m004;
shapes = (
{
closed = 1;
nodes = (
(93,33,o),
(203,-11,o),
(301,-12,c),
(395,-13,o),
(508,35,o),
(509,183,c),
(510,425,o),
(131,349,o),
(129,527,c),
(128,625,o),
(191,675,o),
(296,676,c),
(411,677,o),
(463,597,o),
(463,500,c),
(503,500,l),
(503,621,o),
(435,717,o),
(296,716,c),
(157,715,o),
(88,629,o),
(89,525,c),
(93,305,o),
(470,395,o),
(469,183,c),
(468,67,o),
(391,27,o),
(303,28,c),
(209,29,o),
(131,74,o),
(129,209,c),
(89,207,l)
);
}
);
width = 600;
}
);
unicode = 83;
},
{
glyphname = Germandbls;
lastChange = "2024-10-25 18:20:13 +0000";
layers = (
{
layerId = m003;
shapes = (
{
closed = 1;
nodes = (
(180,0,l),
(180,610,l),
(293,610,ls),
(361,610,o),
(398,579,o),
(398,527,cs),
(398,463,o),
(360,427,o),
(293,427,cs),
(260,427,l),
(260,337,l),
(297,337,ls),
(388,337,o),
(443,296,o),
(443,216,cs),
(443,129,o),
(389,90,o),
(297,90,cs),
(260,90,l),
(260,0,l),
(300,0,ls),
(440,0,o),
(533,65,o),
(533,206,cs),
(533,307,o),
(458,363,o),
(371,368,c),
(371,408,l),
(458,417,o),
(488,487,o),
(488,541,cs),
(488,649,o),
(406,700,o),
(293,700,c),
(90,700,l),
(90,0,l)
);
}
);
width = 600;
},
{
layerId = m002;
shapes = (
{
closed = 1;
nodes = (
(220,0,l),
(220,550,l),
(293,550,ls),
(321,550,o),
(348,542,o),
(348,509,cs),
(348,475,o),
(320,462,o),
(293,462,cs),
(260,462,l),
(260,302,l),
(297,302,ls),
(347,302,o),
(393,289,o),
(393,229,cs),
(393,162,o),
(348,150,o),
(297,150,cs),
(260,150,l),
(260,0,l),
(310,0,ls),
(441,0,o),
(543,63,o),
(543,204,cs),
(543,313,o),
(471,363,o),
(371,368,c),
(371,408,l),
(471,417,o),
(498,487,o),
(498,541,cs),
(498,649,o),
(416,700,o),
(293,700,cs),
(80,700,l),
(80,0,l)
);
}
);
width = 600;
},
{
layerId = m004;
shapes = (
{
closed = 1;
nodes = (
(140,0,l),
(140,660,l),
(293,660,ls),
(381,660,o),
(438,615,o),
(438,547,cs),
(438,453,o),
(360,403,o),
(293,403,cs),
(260,403,l),
(260,363,l),
(307,363,ls),
(398,363,o),
(483,319,o),
(483,199,cs),
(483,92,o),
(402,40,o),
(297,40,cs),
(260,40,l),
(260,0,l),
(300,0,ls),
(423,0,o),
(523,71,o),
(523,202,cs),
(523,301,o),
(448,368,o),
(361,373,c),
(361,403,l),
(448,412,o),
(478,487,o),
(478,541,cs),
(478,639,o),
(406,700,o),
(293,700,c),
(100,700,l),
(100,0,l)
);
}
);
width = 600;
}
);
unicode = 7838;
},
{
glyphname = T;
lastChange = "2024-10-06 23:04:44 +0000";
layers = (
{
anchors = (
{
name = bottom;
pos = (300,0);
},
{
name = top;
pos = (300,700);
}
);
layerId = m003;
shapes = (
{
closed = 1;
nodes = (
(255,0,l),
(345,0,l),
(345,610,l),
(530,610,l),
(530,700,l),
(70,700,l),
(70,610,l),
(255,610,l)
);
}
);
width = 600;
},
{
anchors = (
{
name = bottom;
pos = (300,0);
},
{
name = top;
pos = (300,700);
}
);
layerId = m002;
shapes = (
{
closed = 1;
nodes = (
(225,0,l),
(375,0,l),
(375,550,l),
(540,550,l),
(540,700,l),
(60,700,l),
(60,550,l),
(225,550,l)
);
}
);
width = 600;
},
{
anchors = (
{
name = bottom;
pos = (300,0);
},
{
name = top;
pos = (300,700);
}
);
layerId = m004;
shapes = (
{
closed = 1;
nodes = (
(280,0,l),
(320,0,l),
(320,660,l),
(530,660,l),
(530,700,l),
(70,700,l),
(70,660,l),
(280,660,l)
);
}
);
width = 600;
}
);
unicode = 84;
},
{
glyphname = Tbar;
lastChange = "2024-10-06 23:06:57 +0000";
layers = (
{
layerId = m003;
shapes = (
{
closed = 1;
nodes = (
(109,330,l),
(491,330,l),
(491,420,l),
(109,420,l)
);
},
{
ref = T;
}
);
width = 600;
},
{
layerId = m002;
shapes = (
{
closed = 1;
nodes = (
(99,280,l),
(501,280,l),
(501,430,l),
(99,430,l)
);
},
{
ref = T;
}
);
width = 600;
},
{
layerId = m004;
shapes = (
{
closed = 1;
nodes = (
(109,370,l),
(491,370,l),
(491,410,l),
(109,410,l)
);
},
{
ref = T;
}
);
width = 600;
}
);
unicode = 358;
},
{
glyphname = U;
lastChange = "2024-10-06 23:10:16 +0000";
layers = (
{
anchors = (
{
name = bottom;
pos = (300,-10);
},
{
name = top;
pos = (300,700);
}
);
layerId = m003;
shapes = (
{
closed = 1;
nodes = (
(228,80,o),
(180,100,o),
(180,228,cs),
(180,700,l),
(90,700,l),
(90,228,ls),
(90,85,o),
(140,-10,o),
(300,-10,cs),
(460,-10,o),
(510,85,o),
(510,228,cs),
(510,700,l),
(420,700,l),
(420,228,ls),
(420,100,o),
(372,80,o),
(300,80,cs)
);
}
);
width = 600;
},
{
anchors = (
{
name = bottom;
pos = (300,-10);
},
{
name = top;
pos = (300,700);
}
);
layerId = m002;
shapes = (
{
closed = 1;
nodes = (
(248,140,o),
(230,173,o),
(230,238,cs),
(230,700,l),
(80,700,l),
(80,228,ls),
(80,80,o),
(140,-10,o),
(300,-10,cs),
(460,-10,o),
(520,80,o),
(520,228,cs),
(520,700,l),
(370,700,l),
(370,238,ls),
(370,173,o),
(352,140,o),
(300,140,cs)
);
}
);
width = 600;
},
{
anchors = (
{
name = bottom;
pos = (300,-10);
},
{
name = top;
pos = (300,700);
}
);
layerId = m004;
shapes = (
{
closed = 1;
nodes = (
(208,30,o),
(140,70,o),
(140,218,cs),
(140,700,l),
(100,700,l),
(100,228,ls),
(100,85,o),
(150,-10,o),
(300,-10,cs),
(450,-10,o),
(500,85,o),
(500,228,cs),
(500,700,l),
(460,700,l),
(460,218,ls),
(460,70,o),
(392,30,o),
(300,30,cs)
);
}
);
width = 600;
}
);
unicode = 85;
},
{
glyphname = V;
lastChange = "2024-10-25 18:20:23 +0000";
layers = (
{
anchors = (
{
name = bottom;
pos = (303,0);
},
{
name = top;
pos = (300,700);
}
);
layerId = m003;
shapes = (
{
closed = 1;
nodes = (
(230,0,l),
(375,0,l),
(555,700,l),
(455,700,l),
(324,172,l),
(323,70,l),
(283,70,l),
(282,172,l),
(145,700,l),
(45,700,l)
);
}
);
width = 600;
},
{
anchors = (
{
name = bottom;
pos = (303,0);
},
{
name = top;
pos = (300,700);
}
);
layerId = m002;
shapes = (
{
closed = 1;
nodes = (
(220,0,l),
(385,0,l),
(565,700,l),
(405,700,l),
(323,358,l),
(323,120,l),
(283,120,l),
(283,358,l),
(195,700,l),
(35,700,l)
);
}
);
width = 600;
},
{
anchors = (
{
name = bottom;
pos = (303,0);
},
{
name = top;
pos = (300,700);
}
);
layerId = m004;
shapes = (
{
closed = 1;
nodes = (
(260,0,l),
(345,0,l),
(545,700,l),
(502,700,l),
(317,48,l),
(317,30,l),
(288,30,l),
(287,48,l),
(98,700,l),
(55,700,l)
);
}
);
width = 600;
}
);
unicode = 86;
},
{
glyphname = W;
lastChange = "2024-10-25 18:20:52 +0000";
layers = (
{
anchors = (
{
name = bottom;
pos = (300,0);
},
{
name = top;
pos = (300,700);
}
);
layerId = m003;
shapes = (
{
closed = 1;
nodes = (
(224,437,l),
(204,309,l),
(189,70,l),
(149,70,l),
(164,253,l),
(138,700,l),
(48,700,l),
(96,0,l),
(230,0,l),
(280,281,l),
(280,367,l),
(320,367,l),
(320,281,l),
(370,0,l),
(504,0,l),
(552,700,l),
(462,700,l),
(436,253,l),
(451,70,l),
(411,70,l),
(396,309,l),
(376,437,l)
);
}
);
width = 600;
},
{
anchors = (
{
name = bottom;
pos = (300,0);
},
{
name = top;
pos = (300,700);
}
);
layerId = m002;
shapes = (
{
closed = 1;
nodes = (
(214,437,l),
(201,299,l),
(200,120,l),
(160,120,l),
(192,633,l),
(188,700,l),
(38,700,l),
(86,0,l),
(270,0,l),
(280,76,l),
(280,317,l),
(320,317,l),
(320,76,l),
(330,0,l),
(514,0,l),
(562,700,l),
(412,700,l),
(408,633,l),
(440,120,l),
(400,120,l),
(399,299,l),
(386,437,l)
);
}
);
width = 600;
},
{
anchors = (
{
name = bottom;
pos = (300,0);
},
{
name = top;
pos = (300,700);
}
);
layerId = m004;
shapes = (
{
closed = 1;
nodes = (
(259,427,l),
(194,99,l),
(192,30,l),
(161,30,l),
(161,93,l),
(98,700,l),
(58,700,l),
(136,0,l),
(214,0,l),
(285,361,l),
(285,397,l),
(315,397,l),
(315,361,l),
(386,0,l),
(464,0,l),
(542,700,l),
(502,700,l),
(439,93,l),
(439,30,l),
(409,30,l),
(406,99,l),
(341,427,l)
);
}
);
width = 600;
}
);
unicode = 87;
},
{
glyphname = X;
lastChange = "2024-10-25 18:21:22 +0000";
layers = (
{
anchors = (
{
name = bottom;
pos = (300,0);
},
{
name = top;
pos = (300,700);
}
);
layerId = m003;
shapes = (
{
closed = 1;
nodes = (
(149,0,l),
(265,229,l),
(280,308,l),
(320,308,l),
(335,229,l),
(451,0,l),
(548,0,l),
(375,350,l),
(548,700,l),
(451,700,l),
(335,472,l),
(320,392,l),
(280,392,l),
(265,472,l),
(149,700,l),
(52,700,l),
(225,350,l),
(52,0,l)
);
}
);
width = 600;
},
{
anchors = (
{
name = bottom;
pos = (300,0);
},
{
name = top;
pos = (300,700);
}
);
layerId = m002;
shapes = (
{
closed = 1;
nodes = (
(199,0,l),
(281,166,l),
(281,280,l),
(319,280,l),
(319,166,l),
(401,0,l),
(558,0,l),
(385,350,l),
(558,700,l),
(401,700,l),
(319,536,l),
(319,420,l),
(281,420,l),
(281,536,l),
(199,700,l),
(42,700,l),
(215,350,l),
(42,0,l)
);
}
);
width = 600;
},
{
anchors = (
{
name = bottom;
pos = (300,0);
},
{
name = top;
pos = (300,700);
}
);
layerId = m004;
shapes = (
{
closed = 1;
nodes = (
(109,0,l),
(257,259,l),
(285,333,l),
(315,333,l),
(343,259,l),
(491,0,l),
(538,0,l),
(335,350,l),
(538,700,l),
(491,700,l),
(343,442,l),
(315,367,l),
(285,367,l),
(257,442,l),
(109,700,l),
(62,700,l),
(265,350,l),
(62,0,l)
);
}
);
width = 600;
}
);
unicode = 88;
},
{
glyphname = Y;
lastChange = "2024-10-25 18:21:38 +0000";
layers = (
{
anchors = (
{
name = bottom;
pos = (300,0);
},
{
name = top;
pos = (300,700);
}
);
layerId = m003;
shapes = (
{
closed = 1;
nodes = (
(255,0,l),
(345,0,l),
(345,248,l),
(554,700,l),
(454,700,l),
(328,427,l),
(320,328,l),
(280,328,l),
(272,427,l),
(146,700,l),
(46,700,l),
(255,248,l)
);
}
);
width = 600;
},
{
anchors = (
{
name = bottom;
pos = (300,0);
},
{
name = top;
pos = (300,700);
}
);
layerId = m002;
shapes = (
{
closed = 1;
nodes = (
(225,0,l),
(375,0,l),
(375,298,l),
(564,700,l),
(404,700,l),
(319,503,l),
(319,378,l),
(281,378,l),
(281,503,l),
(196,700,l),
(36,700,l),
(225,298,l)
);
}
);
width = 600;
},
{
anchors = (
{
name = bottom;
pos = (300,0);
},
{
name = top;
pos = (300,700);
}
);
layerId = m004;
shapes = (
{
closed = 1;
nodes = (
(280,0,l),
(320,0,l),
(320,268,l),
(544,700,l),
(498,700,l),
(368,447,l),
(315,308,l),
(285,308,l),
(232,447,l),
(102,700,l),
(56,700,l),
(280,268,l)
);
}
);
width = 600;
}
);
unicode = 89;
},
{
glyphname = Z;
lastChange = "2024-10-25 18:21:55 +0000";
layers = (
{
anchors = (
{
name = bottom;
pos = (300,0);
},
{
name = top;
pos = (300,700);
}
);
layerId = m003;
shapes = (
{
closed = 1;
nodes = (
(317,90,l),
(141,60,l),
(141,100,l),
(289,251,l),
(532,601,l),
(532,700,l),
(80,700,l),
(80,610,l),
(279,610,l),
(462,640,l),
(462,600,l),
(307,439,l),
(71,99,l),
(71,0,l),
(520,0,l),
(520,90,l)
);
}
);
width = 600;
},
{
anchors = (
{
name = bottom;
pos = (300,0);
},
{
name = top;
pos = (300,700);
}
);
layerId = m002;
shapes = (
{
closed = 1;
nodes = (
(304,150,l),
(161,70,l),
(161,110,l),
(284,185,l),
(542,575,l),
(542,700,l),
(70,700,l),
(70,550,l),
(299,550,l),
(442,630,l),
(442,590,l),
(319,515,l),
(61,125,l),
(61,0,l),
(530,0,l),
(530,150,l)
);
}
);
width = 600;
},
{
anchors = (
{
name = bottom;
pos = (300,0);
},
{
name = top;
pos = (300,700);
}
);
layerId = m004;
shapes = (
{
closed = 1;
nodes = (
(267,40,l),
(101,32,l),
(101,62,l),
(239,231,l),
(532,639,l),
(532,700,l),
(80,700,l),
(80,660,l),
(339,660,l),
(502,673,l),
(502,643,l),
(379,495,l),
(71,64,l),
(71,5,l),
(520,0,l),
(520,40,l)
);
}
);
width = 600;
}
);
unicode = 90;
},
{
glyphname = a;
lastChange = "2024-11-10 22:47:40 +0000";
layers = (
{
anchors = (
{
name = "ogonek-hook";
pos = (541,0);
},
{
name = top;
pos = (292,552);
}
);
backgroundImage = {
imagePath = "/Users/pavellaptev/Library/CloudStorage/GoogleDrive-pawellaptew@gmail.com/My Drive/GitButler/Images/a-Regular.tif";
};
layerId = m003;
shapes = (
{
closed = 1;
nodes = (
(470,90,l),
(470,355,ls),
(470,486,o),
(405,552,o),
(294,552,cs),
(179,552,o),
(98,487,o),
(98,355,c),
(188,355,l),
(188,411,o),
(214,462,o),
(294,462,cs),
(345,462,o),
(380,436,o),
(380,375,c),
(380,304,l),
(244,304,ls),
(118,304,o),
(55,234,o),
(55,150,cs),
(55,54,o),
(109,-12,o),
(230,-12,cs),
(315,-12,o),
(356,46,o),
(370,140,c),
(410,140,l),
(410,100,ls),
(410,45,o),
(442,0,o),
(517,0,cs),
(541,0,l),
(541,90,l)
);
},
{
closed = 1;
nodes = (
(177,78,o),
(145,97,o),
(145,150,cs),
(145,192,o),
(179,220,o),
(231,226,cs),
(380,244,l),
(380,204,l),
(330,188,l),
(312,125,o),
(291,78,o),
(230,78,cs)
);
}
);
width = 600;
},
{
anchors = (
{
name = "ogonek-hook";
pos = (541,0);
},
{
name = top;
pos = (292,552);
}
);
backgroundImage = {
imagePath = "/Users/pavellaptev/Library/CloudStorage/GoogleDrive-pawellaptew@gmail.com/My Drive/GitButler/Images/a-Regular.tif";
};
layerId = m002;
shapes = (
{
closed = 1;
nodes = (
(480,150,l),
(480,355,ls),
(480,489,o),
(405,552,o),
(294,552,cs),
(179,552,o),
(88,486,o),
(88,355,c),
(238,355,l),
(238,389,o),
(255,402,o),
(285,402,cs),
(315,402,o),
(330,389,o),
(330,355,c),
(330,319,l),
(244,319,ls),
(108,319,o),
(45,236,o),
(45,150,cs),
(45,54,o),
(99,-12,o),
(220,-12,cs),
(303,-12,o),
(363,40,o),
(370,120,c),
(410,120,l),
(410,100,ls),
(410,47,o),
(442,0,o),
(517,0,cs),
(541,0,l),
(541,150,l)
);
},
{
closed = 1;
nodes = (
(228,128,o),
(200,137,o),
(195,163,cs),
(191,185,o),
(200,208,o),
(234,213,cs),
(330,227,l),
(330,194,l),
(295,181,l),
(289,164,o),
(279,142,o),
(254,135,cs)
);
}
);
width = 600;
},
{
anchors = (
{
name = "ogonek-hook";
pos = (541,0);
},
{
name = top;
pos = (292,552);
}
);
backgroundImage = {
imagePath = "/Users/pavellaptev/Library/CloudStorage/GoogleDrive-pawellaptew@gmail.com/My Drive/GitButler/Images/a-Regular.tif";
};
layerId = m004;
shapes = (
{
closed = 1;
nodes = (
(460,40,l),
(460,355,ls),
(460,486,o),
(405,552,o),
(294,552,cs),
(179,552,o),
(108,479,o),
(108,355,c),
(148,355,l),
(148,431,o),
(173,512,o),
(294,512,cs),
(385,512,o),
(420,456,o),
(420,375,c),
(420,304,l),
(244,304,ls),
(126,304,o),
(65,234,o),
(65,150,cs),
(65,64,o),
(109,-12,o),
(230,-12,cs),
(315,-12,o),
(376,46,o),
(390,140,c),
(420,140,l),
(420,80,ls),
(420,27,o),
(441,0,o),
(506,0,cs),
(531,0,l),
(531,40,l)
);
},
{
closed = 1;
nodes = (
(147,28,o),
(105,72,o),
(105,150,cs),
(105,192,o),
(127,258,o),
(239,264,cs),
(420,274,l),
(420,180,l),
(363,170,l),
(349,86,o),
(311,28,o),
(230,28,cs)
);
}
);
width = 600;
}
);
unicode = 97;
},
{
glyphname = ae;
lastChange = "2024-10-25 18:22:30 +0000";
layers = (
{
anchors = (
{
name = "ogonek-hook";
pos = (423,-12);
},
{
name = top;
pos = (429,552);
}
);
layerId = m003;
shapes = (
{
closed = 1;
nodes = (
(214,-12,o),
(255,46,o),
(262,140,c),
(302,140,l),
(311,45,o),
(360,-12,o),
(433,-12,cs),
(502,-12,o),
(567,47,o),
(578,175,c),
(489,175,l),
(483,123,o),
(473,78,o),
(425,78,cs),
(372,78,o),
(357,143,o),
(358,245,c),
(580,245,l),
(580,315,ls),
(580,444,o),
(533,552,o),
(439,552,cs),
(392,552,o),
(344,518,o),
(330,438,c),
(290,438,l),
(281,518,o),
(228,552,o),
(188,552,cs),
(98,552,o),
(42,487,o),
(42,355,c),
(132,355,l),
(132,411,o),
(147,462,o),
(195,462,cs),
(235,462,o),
(253,433,o),
(253,375,cs),
(253,304,l),
(166,304,ls),
(67,304,o),
(20,234,o),
(20,150,cs),
(20,54,o),
(60,-12,o),
(155,-12,cs)
);
},
{
closed = 1;
nodes = (
(116,78,o),
(110,117,o),
(110,150,cs),
(110,182,o),
(119,219,o),
(156,226,cs),
(253,244,l),
(253,204,l),
(204,188,l),
(201,125,o),
(193,78,o),
(157,78,cs)
);
},
{
closed = 1;
nodes = (
(363,425,o),
(384,462,o),
(427,462,cs),
(468,462,o),
(489,421,o),
(490,335,c),
(358,335,l)
);
}
);
width = 600;
},
{
anchors = (
{
name = "ogonek-hook";
pos = (423,-12);
},
{
name = top;
pos = (429,552);
}
);
layerId = m002;
shapes = (
{
closed = 1;
nodes = (
(213,-12,o),
(252,24,o),
(264,70,c),
(304,70,l),
(316,24,o),
(360,-12,o),
(433,-12,cs),
(507,-12,o),
(577,37,o),
(588,175,c),
(439,175,l),
(439,159,o),
(438,138,o),
(415,138,cs),
(391,138,o),
(387,163,o),
(388,215,c),
(590,215,l),
(590,305,ls),
(590,444,o),
(536,552,o),
(432,552,cs),
(385,552,o),
(346,528,o),
(328,478,c),
(288,478,l),
(271,528,o),
(228,552,o),
(188,552,cs),
(88,552,o),
(22,487,o),
(22,355,c),
(172,355,l),
(172,388,o),
(182,402,o),
(200,402,cs),
(217,402,o),
(223,388,o),
(223,355,cs),
(223,324,l),
(161,324,ls),
(62,324,o),
(10,244,o),
(10,150,cs),
(10,54,o),
(60,-12,o),
(155,-12,cs)
);
},
{
closed = 1;
nodes = (
(162,138,o),
(160,159,o),
(160,182,cs),
(160,204,o),
(166,227,o),
(184,231,cs),
(223,239,l),
(223,194,l),
(194,184,l),
(193,161,o),
(193,138,o),
(176,138,cs)
);
},
{
closed = 1;
nodes = (
(388,387,o),
(399,402,o),
(415,402,cs),
(430,402,o),
(440,387,o),
(440,355,c),
(388,355,l)
);
}
);
width = 600;
},
{
anchors = (
{
name = "ogonek-hook";
pos = (423,-12);
},
{
name = top;
pos = (429,552);
}
);
layerId = m004;
shapes = (
{
closed = 1;
nodes = (
(214,-12,o),
(265,46,o),
(272,140,c),
(302,140,l),
(311,45,o),
(360,-12,o),
(433,-12,cs),
(502,-12,o),
(557,47,o),
(568,175,c),
(528,175,l),
(522,103,o),
(504,28,o),
(431,28,cs),
(361,28,o),
(327,93,o),
(328,245,c),
(570,245,l),
(570,315,ls),
(570,444,o),
(533,552,o),
(439,552,cs),
(392,552,o),
(339,518,o),
(325,438,c),
(295,438,l),
(287,518,o),
(228,552,o),
(188,552,cs),
(98,552,o),
(52,487,o),
(52,355,c),
(92,355,l),
(92,451,o),
(117,512,o),
(195,512,cs),
(275,512,o),
(283,403,o),
(283,345,cs),
(283,304,l),
(166,304,ls),
(67,304,o),
(30,234,o),
(30,150,cs),
(30,54,o),
(60,-12,o),
(155,-12,cs)
);
},
{
closed = 1;
nodes = (
(77,28,o),
(70,85,o),
(70,150,cs),
(70,222,o),
(91,262,o),
(156,266,cs),
(283,274,l),
(283,176,l),
(242,170,l),
(239,107,o),
(211,28,o),
(157,28,cs)
);
},
{
closed = 1;
nodes = (
(331,415,o),
(362,512,o),
(425,512,cs),
(519,512,o),
(531,391,o),
(530,285,c),
(328,285,l)
);
}
);
width = 600;
}
);
unicode = 230;
},
{
glyphname = b;
lastChange = "2024-11-01 12:16:49 +0000";
layers = (
{
hints = (
{
horizontal = 1;
origin = (0,0);
target = (0,3);
type = Stem;
}
);
layerId = m003;
shapes = (
{
closed = 1;
nodes = (
(75,0,l),
(165,0,l),
(165,34,l),
(125,146,l),
(165,146,l),
(192,44,o),
(255,-12,o),
(341,-12,cs),
(456,-12,o),
(532,88,o),
(532,268,cs),
(532,447,o),
(456,552,o),
(341,552,cs),
(251,552,o),
(186,488,o),
(162,375,c),
(122,375,l),
(165,510,l),
(165,770,l),
(75,770,l)
);
},
{
closed = 1;
nodes = (
(255,78,o),
(211,146,o),
(211,268,cs),
(211,389,o),
(255,462,o),
(325,462,cs),
(395,462,o),
(442,389,o),
(442,268,cs),
(442,146,o),
(395,78,o),
(325,78,cs)
);
}
);
width = 600;
},
{
layerId = m002;
shapes = (
{
closed = 1;
nodes = (
(65,0,l),
(195,0,l),
(195,7,l),
(151,106,l),
(190,106,l),
(211,44,o),
(255,-12,o),
(341,-12,cs),
(464,-12,o),
(542,88,o),
(542,268,cs),
(542,447,o),
(464,552,o),
(341,552,cs),
(251,552,o),
(210,497,o),
(186,415,c),
(147,415,l),
(215,570,l),
(215,770,l),
(65,770,l)
);
},
{
closed = 1;
nodes = (
(277,138,o),
(261,186,o),
(261,268,cs),
(261,349,o),
(277,402,o),
(327,402,cs),
(378,402,o),
(392,349,o),
(392,268,cs),
(392,186,o),
(378,138,o),
(327,138,cs)
);
}
);
width = 600;
},
{
hints = (
{
horizontal = 1;
origin = (0,0);
target = (0,3);
type = Stem;
}
);
layerId = m004;
shapes = (
{
closed = 1;
nodes = (
(85,0,l),
(125,0,l),
(125,34,l),
(114,146,l),
(144,146,l),
(171,44,o),
(245,-12,o),
(331,-12,cs),
(446,-12,o),
(522,88,o),
(522,268,cs),
(522,447,o),
(446,552,o),
(331,552,cs),
(241,552,o),
(168,488,o),
(144,375,c),
(114,375,l),
(125,510,l),
(125,770,l),
(85,770,l)
);
},
{
closed = 1;
nodes = (
(212,28,o),
(160,132,o),
(160,264,cs),
(160,395,o),
(212,512,o),
(322,512,cs),
(432,512,o),
(482,409,o),
(482,268,cs),
(482,126,o),
(432,28,o),
(322,28,cs)
);
}
);
width = 600;
}
);
unicode = 98;
},
{
glyphname = c;
lastChange = "2024-11-12 00:16:22 +0000";
layers = (
{
anchors = (
{
name = top;
pos = (304,550);
}
);
layerId = m003;
shapes = (
{
closed = 1;
nodes = (
(80,83,o),
(172,-12,o),
(305,-12,cs),
(414,-12,o),
(505,73,o),
(510,203,c),
(420,203,l),
(416,124,o),
(371,78,o),
(295,78,cs),
(222,78,o),
(169,132,o),
(170,268,cs),
(170,403,o),
(222,460,o),
(295,460,cs),
(370,460,o),
(414,409,o),
(418,345,c),
(508,345,l),
(503,460,o),
(418,550,o),
(305,550,cs),
(172,550,o),
(80,453,o),
(80,268,cs)
);
}
);
width = 600;
},
{
anchors = (
{
name = top;
pos = (304,550);
}
);
layerId = m002;
shapes = (
{
closed = 1;
nodes = (
(70,83,o),
(172,-12,o),
(305,-12,cs),
(414,-12,o),
(515,73,o),
(520,213,c),
(370,213,l),
(366,156,o),
(332,138,o),
(295,138,cs),
(252,138,o),
(219,172,o),
(220,268,cs),
(221,363,o),
(252,400,o),
(295,400,cs),
(331,400,o),
(363,378,o),
(368,335,c),
(518,335,l),
(513,460,o),
(418,550,o),
(305,550,cs),
(172,550,o),
(70,453,o),
(70,268,cs)
);
}
);
width = 600;
},
{
anchors = (
{
name = top;
pos = (304,550);
}
);
layerId = m004;
shapes = (
{
closed = 1;
nodes = (
(90,83,o),
(172,-12,o),
(305,-12,cs),
(414,-12,o),
(496,73,o),
(500,203,c),
(460,203,l),
(457,94,o),
(401,28,o),
(295,28,cs),
(192,28,o),
(130,112,o),
(130,268,cs),
(130,423,o),
(192,510,o),
(295,510,cs),
(400,510,o),
(454,439,o),
(458,345,c),
(498,345,l),
(494,460,o),
(418,550,o),
(305,550,cs),
(172,550,o),
(90,453,o),
(90,268,cs)
);
}
);
width = 600;
}
);
unicode = 99;
},
{
glyphname = dcaron;
lastChange = "2024-10-05 00:52:25 +0000";
layers = (
{
layerId = m003;
shapes = (
{
closed = 1;
nodes = (
(570,570,l),
(615,570,l),
(670,770,l),
(570,770,l)
);
},
{
pos = (-35,0);
ref = d;
}
);
width = 600;
},
{
layerId = m002;
shapes = (
{
closed = 1;
nodes = (
(570,570,l),
(615,570,l),
(670,770,l),
(570,770,l)
);
},
{
pos = (-35,0);
ref = d;
}
);
width = 600;
},
{
layerId = m004;
shapes = (
{
closed = 1;
nodes = (
(570,570,l),
(615,570,l),
(670,770,l),
(570,770,l)
);
},
{
pos = (-35,0);
ref = d;
}
);
width = 600;
}
);
unicode = 271;
},
{
glyphname = dcroat;
lastChange = "2024-11-04 00:29:47 +0000";
layers = (
{
layerId = m003;
shapes = (
{
ref = d;
},
{
closed = 1;
nodes = (
(585,620,l),
(585,700,l),
(155,700,l),
(155,620,l)
);
}
);
width = 600;
},
{
layerId = m002;
shapes = (
{
ref = d;
},
{
closed = 1;
nodes = (
(585,600,l),
(585,720,l),
(155,720,l),
(155,600,l)
);
}
);
width = 600;
},
{
layerId = m004;
shapes = (
{
ref = d;
},
{
closed = 1;
nodes = (
(585,640,l),
(585,680,l),
(155,680,l),
(155,640,l)
);
}
);
width = 600;
}
);
unicode = 273;
},
{
glyphname = eth;
lastChange = "2024-10-09 11:14:33 +0000";
layers = (
{
hints = (
{
horizontal = 1;
origin = (0,19);
target = (1,11);
type = Stem;
}
);
layerId = m003;
shapes = (
{
closed = 1;
nodes = (
(425,-12,o),
(514,112,o),
(514,378,cs),
(514,571,o),
(407,726,o),
(293,791,c),
(181,749,l),
(314,676,o),
(416,592,o),
(453,467,c),
(414,467,l),
(380,522,o),
(330,552,o),
(269,552,cs),
(154,552,o),
(78,447,o),
(78,268,cs),
(78,88,o),
(154,-12,o),
(269,-12,cs)
);
},
{
closed = 1;
nodes = (
(215,78,o),
(168,146,o),
(168,268,cs),
(168,389,o),
(215,462,o),
(285,462,cs),
(355,462,o),
(409,389,o),
(409,268,cs),
(409,146,o),
(355,78,o),
(285,78,cs)
);
},
{
closed = 1;
nodes = (
(172,572,l),
(510,695,l),
(486,760,l),
(148,637,l)
);
}
);
width = 600;
},
{
layerId = m002;
shapes = (
{
closed = 1;
nodes = (
(425,-12,o),
(524,112,o),
(524,378,cs),
(524,551,o),
(436,735,o),
(312,807,c),
(133,742,l),
(268,685,o),
(391,590,o),
(431,497,c),
(394,497,l),
(370,522,o),
(330,552,o),
(269,552,cs),
(154,552,o),
(68,447,o),
(68,268,cs),
(68,88,o),
(154,-12,o),
(269,-12,cs)
);
},
{
closed = 1;
nodes = (
(227,138,o),
(218,199,o),
(218,268,cs),
(218,336,o),
(227,402,o),
(285,402,cs),
(346,402,o),
(359,336,o),
(359,268,cs),
(359,199,o),
(346,138,o),
(285,138,cs)
);
},
{
closed = 1;
nodes = (
(178,557,l),
(516,680,l),
(476,786,l),
(138,663,l)
);
}
);
width = 600;
},
{
layerId = m004;
shapes = (
{
closed = 1;
nodes = (
(415,-12,o),
(494,112,o),
(494,358,cs),
(494,551,o),
(413,707,o),
(269,782,c),
(209,760,l),
(362,687,o),
(426,592,o),
(453,467,c),
(414,467,l),
(380,522,o),
(330,552,o),
(269,552,cs),
(164,552,o),
(88,447,o),
(88,268,cs),
(88,88,o),
(164,-12,o),
(269,-12,cs)
);
},
{
closed = 1;
nodes = (
(181,28,o),
(128,126,o),
(128,268,cs),
(128,419,o),
(178,512,o),
(278,512,cs),
(368,512,o),
(439,419,o),
(439,268,cs),
(439,116,o),
(368,28,o),
(278,28,cs)
);
},
{
closed = 1;
nodes = (
(166,587,l),
(505,710,l),
(491,747,l),
(153,624,l)
);
}
);
width = 600;
}
);
unicode = 240;
},
{
glyphname = e;
lastChange = "2024-11-01 01:16:01 +0000";
layers = (
{
anchors = (
{
name = "ogonek-hook";
pos = (305,-10);
},
{
name = top;
pos = (305,552);
}
);
layerId = m003;
shapes = (
{
closed = 1;
nodes = (
(386,-10,o),
(490,47,o),
(506,175,c),
(416,175,l),
(406,105,o),
(360,80,o),
(295,80,cs),
(222,80,o),
(171,143,o),
(170,245,c),
(508,245,l),
(508,315,ls),
(508,454,o),
(421,550,o),
(305,550,cs),
(172,550,o),
(80,454,o),
(80,269,cs),
(80,84,o),
(172,-10,o),
(305,-10,cs)
);
},
{
closed = 1;
nodes = (
(183,431,o),
(242,460,o),
(301,460,cs),
(359,460,o),
(415,431,o),
(418,335,c),
(172,335,l)
);
}
);
width = 600;
},
{
anchors = (
{
name = "ogonek-hook";
pos = (305,-10);
},
{
name = top;
pos = (305,552);
}
);
layerId = m002;
shapes = (
{
closed = 1;
nodes = (
(396,-10,o),
(500,47,o),
(516,175,c),
(359,175,l),
(352,159,o),
(343,140,o),
(298,140,cs),
(251,140,o),
(232,169,o),
(230,215,c),
(518,215,l),
(518,325,ls),
(518,434,o),
(439,550,o),
(305,550,cs),
(171,550,o),
(70,454,o),
(70,269,cs),
(70,84,o),
(165,-10,o),
(305,-10,cs)
);
},
{
closed = 1;
nodes = (
(236,364,o),
(245,400,o),
(296,400,cs),
(347,400,o),
(355,364,o),
(358,340,c),
(232,340,l)
);
}
);
width = 600;
},
{
anchors = (
{
name = "ogonek-hook";
pos = (305,-10);
},
{
name = top;
pos = (305,552);
}
);
layerId = m004;
shapes = (
{
closed = 1;
nodes = (
(386,-10,o),
(480,47,o),
(496,175,c),
(456,175,l),
(446,105,o),
(403,30,o),
(295,30,cs),
(181,30,o),
(131,143,o),
(130,245,c),
(498,245,l),
(498,285,ls),
(498,454,o),
(421,550,o),
(305,550,cs),
(172,550,o),
(90,454,o),
(90,269,cs),
(90,84,o),
(172,-10,o),
(305,-10,cs)
);
},
{
closed = 1;
nodes = (
(132,418,o),
(181,510,o),
(301,510,cs),
(415,510,o),
(458,418,o),
(458,285,c),
(132,285,l)
);
}
);
width = 600;
}
);
unicode = 101;
},
{
glyphname = f;
lastChange = "2024-11-09 05:01:55 +0000";
layers = (
{
layerId = m003;
shapes = (
{
closed = 1;
nodes = (
(280,530,l),
(280,600,ls),
(280,649,o),
(313,680,o),
(362,680,cs),
(375,680,ls),
(424,680,o),
(460,649,o),
(460,600,cs),
(460,590,l),
(550,590,l),
(550,600,ls),
(550,699,o),
(474,770,o),
(375,770,cs),
(362,770,ls),
(263,770,o),
(190,699,o),
(190,600,cs),
(190,530,l),
(60,530,l),
(60,440,l),
(190,440,l),
(190,0,l),
(280,0,l),
(280,440,l),
(550,440,l),
(550,530,l)
);
}
);
width = 600;
},
{
hints = (
{
place = (528,30);
type = Stem;
}
);
layerId = m002;
shapes = (
{
closed = 1;
nodes = (
(310,530,l),
(310,566,l),
(310,597,o),
(328,620,o),
(358,620,cs),
(365,620,ls),
(391,620,o),
(410,598,o),
(410,577,cs),
(410,576,l),
(560,576,l),
(560,590,ls),
(560,689,o),
(484,770,o),
(375,770,cs),
(353,770,ls),
(244,770,o),
(160,689,o),
(160,590,cs),
(160,530,l),
(50,530,l),
(50,380,l),
(160,380,l),
(160,0,l),
(310,0,l),
(310,380,l),
(560,380,l),
(560,530,l)
);
}
);
width = 600;
},
{
hints = (
{
place = (528,30);
type = Stem;
}
);
layerId = m004;
shapes = (
{
closed = 1;
nodes = (
(240,530,l),
(240,600,ls),
(240,679,o),
(283,730,o),
(362,730,cs),
(375,730,ls),
(454,730,o),
(500,679,o),
(500,600,cs),
(500,590,l),
(540,590,l),
(540,600,ls),
(540,699,o),
(474,770,o),
(375,770,cs),
(362,770,ls),
(263,770,o),
(200,699,o),
(200,600,cs),
(200,530,l),
(60,530,l),
(60,490,l),
(200,490,l),
(200,0,l),
(240,0,l),
(240,490,l),
(540,490,l),
(540,530,l)
);
}
);
width = 600;
}
);
unicode = 102;
},
{
glyphname = g;
lastChange = "2024-11-12 22:12:44 +0000";
layers = (
{
layerId = m003;
shapes = (
{
closed = 1;
nodes = (
(326,176,o),
(519,189,o),
(519,435,c),
(570,435,l),
(570,530,l),
(559,530,ls),
(494,530,o),
(470,505,o),
(470,440,cs),
(470,422,l),
(430,422,l),
(427,492,o),
(364,551,o),
(254,551,cs),
(137,551,o),
(60,467,o),
(60,364,cs),
(60,260,o),
(137,176,o),
(254,176,cs)
);
},
{
closed = 1;
nodes = (
(211,266,o),
(150,301,o),
(150,364,cs),
(150,426,o),
(209,461,o),
(270,461,cs),
(337,461,o),
(393,426,o),
(393,364,cs),
(393,301,o),
(337,266,o),
(270,266,cs)
);
},
{
closed = 1;
nodes = (
(383,-200,l),
(467,-200,o),
(528,-135,o),
(528,-45,c),
(528,45,o),
(455,110,o),
(373,110,cs),
(254,110,l),
(160,67,l),
(160,107,l),
(305,189,l),
(237,259,l),
(100,131,l),
(100,20,l),
(373,20,l),
(413,20,o),
(438,-11,o),
(438,-45,c),
(438,-79,o),
(413,-110,o),
(373,-110,c),
(215,-110,l),
(171,-110,o),
(150,-79,o),
(150,-45,cs),
(150,-9,o),
(171,20,o),
(215,20,c),
(136,81,l),
(79,55,o),
(60,-4,o),
(60,-45,cs),
(60,-135,o),
(127,-200,o),
(205,-200,c)
);
}
);
width = 600;
},
{
layerId = m002;
shapes = (
{
closed = 1;
nodes = (
(326,166,o),
(489,169,o),
(519,375,c),
(580,375,l),
(580,530,l),
(556,530,ls),
(491,530,o),
(470,497,o),
(470,452,cs),
(470,442,l),
(440,442,l),
(437,492,o),
(394,551,o),
(254,551,cs),
(137,551,o),
(50,477,o),
(50,364,cs),
(50,252,o),
(137,166,o),
(254,166,cs)
);
},
{
closed = 1;
nodes = (
(226,316,o),
(200,331,o),
(200,359,cs),
(200,386,o),
(226,401,o),
(270,401,cs),
(320,401,o),
(343,386,o),
(343,359,cs),
(343,331,o),
(320,316,o),
(270,316,cs)
);
},
{
closed = 1;
nodes = (
(381,-210,l),
(475,-210,o),
(538,-139,o),
(538,-45,c),
(538,46,o),
(472,120,o),
(381,120,cs),
(304,120,l),
(200,67,l),
(200,106,l),
(295,168,l),
(216,276,l),
(90,151,l),
(90,-20,l),
(368,-20,l),
(380,-20,o),
(388,-27,o),
(388,-40,c),
(388,-53,o),
(380,-60,o),
(368,-60,c),
(220,-60,l),
(207,-60,o),
(200,-53,o),
(200,-40,cs),
(200,-29,o),
(204,-20,o),
(222,-20,c),
(123,93,l),
(66,63,o),
(50,-4,o),
(50,-45,cs),
(50,-156,o),
(130,-210,o),
(215,-210,c)
);
}
);
width = 600;
},
{
layerId = m004;
shapes = (
{
closed = 1;
nodes = (
(326,176,o),
(507,189,o),
(507,485,c),
(570,485,l),
(570,530,l),
(559,530,ls),
(494,530,o),
(470,505,o),
(470,440,cs),
(470,422,l),
(440,422,l),
(429,494,o),
(364,551,o),
(254,551,cs),
(137,551,o),
(70,467,o),
(70,364,cs),
(70,260,o),
(137,176,o),
(254,176,cs)
);
},
{
closed = 1;
nodes = (
(160,216,o),
(110,282,o),
(110,364,cs),
(110,447,o),
(158,511,o),
(261,511,cs),
(368,511,o),
(421,447,o),
(421,364,cs),
(421,282,o),
(368,216,o),
(261,216,cs)
);
},
{
closed = 1;
nodes = (
(356,-200,l),
(452,-200,o),
(518,-140,o),
(518,-50,c),
(518,40,o),
(452,100,o),
(356,100,cs),
(254,100,l),
(150,90,l),
(150,120,l),
(244,193,l),
(209,216,l),
(115,143,l),
(115,60,l),
(366,60,ls),
(430,60,o),
(478,18,o),
(478,-50,c),
(478,-118,o),
(430,-160,o),
(366,-160,cs),
(225,-160,ls),
(165,-160,o),
(110,-118,o),
(110,-50,cs),
(110,17,o),
(155,60,o),
(207,60,c),
(146,80,l),
(86,53,o),
(70,-5,o),
(70,-50,cs),
(70,-152,o),
(150,-200,o),
(235,-200,c)
);
}
);
width = 600;
}
);
unicode = 103;
},
{
glyphname = h;
lastChange = "2024-10-27 22:10:02 +0000";
layers = (
{
layerId = m003;
shapes = (
{
closed = 1;
nodes = (
(105,0,l),
(195,0,l),
(195,332,ls),
(195,408,o),
(230,461,o),
(304,461,cs),
(378,461,o),
(412,427,o),
(412,352,cs),
(412,0,l),
(502,0,l),
(502,352,ls),
(502,477,o),
(448,551,o),
(324,551,cs),
(263,551,o),
(209,511,o),
(187,454,c),
(147,454,l),
(195,610,l),
(195,770,l),
(105,770,l)
);
}
);
width = 600;
},
{
layerId = m002;
shapes = (
{
closed = 1;
nodes = (
(95,0,l),
(245,0,l),
(245,312,ls),
(245,359,o),
(263,401,o),
(312,401,cs),
(354,401,o),
(362,369,o),
(362,322,cs),
(362,0,l),
(512,0,l),
(512,342,ls),
(512,467,o),
(448,551,o),
(324,551,cs),
(262,551,o),
(225,509,o),
(209,469,c),
(169,469,l),
(245,610,l),
(245,770,l),
(95,770,l)
);
}
);
width = 600;
},
{
layerId = m004;
shapes = (
{
closed = 1;
nodes = (
(115,0,l),
(155,0,l),
(155,282,ls),
(155,437,o),
(230,511,o),
(324,511,cs),
(423,511,o),
(452,449,o),
(452,342,cs),
(452,0,l),
(492,0,l),
(492,342,ls),
(492,477,o),
(436,551,o),
(332,551,cs),
(261,551,o),
(207,521,o),
(171,454,c),
(141,454,l),
(155,610,l),
(155,770,l),
(115,770,l)
);
}
);
width = 600;
}
);
unicode = 104;
},
{
glyphname = hbar;
lastChange = "2024-11-04 00:30:15 +0000";
layers = (
{
layerId = m003;
shapes = (
{
ref = h;
},
{
closed = 1;
nodes = (
(440,593,l),
(440,663,l),
(50,663,l),
(50,593,l)
);
}
);
width = 600;
},
{
layerId = m002;
shapes = (
{
ref = h;
},
{
closed = 1;
nodes = (
(450,593,l),
(450,713,l),
(40,713,l),
(40,593,l)
);
}
);
width = 600;
},
{
layerId = m004;
shapes = (
{
ref = h;
},
{
closed = 1;
nodes = (
(440,608,l),
(440,648,l),
(50,648,l),
(50,608,l)
);
}
);
width = 600;
}
);
unicode = 295;
},
{
glyphname = idotless;
lastChange = "2024-11-11 09:07:29 +0000";
layers = (
{
anchors = (
{
name = "ogonek-hook";
pos = (540,0);
},
{
name = top;
pos = (311,530);
}
);
layerId = m003;
shapes = (
{
closed = 1;
nodes = (
(100,0,l),
(540,0,l),
(540,90,l),
(365,90,l),
(365,530,l),
(100,530,l),
(100,440,l),
(275,440,l),
(275,90,l),
(100,90,l)
);
}
);
width = 600;
},
{
anchors = (
{
name = "ogonek-hook";
pos = (550,0);
},
{
name = top;
pos = (319,530);
}
);
layerId = m002;
shapes = (
{
closed = 1;
nodes = (
(90,0,l),
(550,0,l),
(550,150,l),
(397,150,l),
(397,530,l),
(90,530,l),
(90,380,l),
(247,380,l),
(247,150,l),
(90,150,l)
);
}
);
width = 600;
},
{
anchors = (
{
name = "ogonek-hook";
pos = (540,0);
},
{
name = top;
pos = (311,530);
}
);
layerId = m004;
shapes = (
{
closed = 1;
nodes = (
(100,0,l),
(540,0,l),
(540,40,l),
(340,40,l),
(340,530,l),
(100,530,l),
(100,490,l),
(300,490,l),
(300,40,l),
(100,40,l)
);
}
);
width = 600;
}
);
unicode = 305;
},
{
glyphname = ij;
lastChange = "2024-10-12 23:57:21 +0000";
layers = (
{
layerId = m003;
shapes = (
{
closed = 1;
nodes = (
(60,0,l),
(459,0,l),
(479,46,l),
(459,90,l),
(295,90,l),
(295,552,l),
(60,552,l),
(60,462,l),
(205,462,l),
(205,90,l),
(60,90,l)
);
},
{
closed = 1;
nodes = (
(217,-153,o),
(281,-198,o),
(375,-198,cs),
(484,-198,o),
(549,-125,o),
(549,-9,cs),
(549,552,l),
(351,552,l),
(351,462,l),
(459,462,l),
(459,-9,l),
(459,-79,o),
(432,-108,o),
(375,-108,cs),
(335,-108,o),
(308,-97,o),
(292,-75,c),
(195,-75,l)
);
},
{
pos = (197,0);
ref = dotaccentcomb;
},
{
pos = (-66,0);
ref = dotaccentcomb;
}
);
width = 600;
},
{
layerId = m002;
shapes = (
{
closed = 1;
nodes = (
(50,0,l),
(459,0,l),
(479,71,l),
(459,150,l),
(295,150,l),
(295,552,l),
(50,552,l),
(50,402,l),
(145,402,l),
(145,150,l),
(50,150,l)
);
},
{
closed = 1;
nodes = (
(197,-153,o),
(281,-208,o),
(375,-208,cs),
(492,-208,o),
(559,-126,o),
(559,-9,cs),
(559,552,l),
(331,552,l),
(331,402,l),
(409,402,l),
(409,-9,ls),
(409,-40,o),
(410,-65,o),
(375,-68,cs),
(347,-70,o),
(338,-61,o),
(334,-55,c),
(175,-55,l)
);
},
{
pos = (197,0);
ref = dotaccentcomb;
},
{
pos = (-66,0);
ref = dotaccentcomb;
}
);
width = 600;
},
{
layerId = m004;
shapes = (
{
closed = 1;
nodes = (
(60,0,l),
(499,0,l),
(517,21,l),
(499,40,l),
(270,40,l),
(270,552,l),
(60,552,l),
(60,512,l),
(230,512,l),
(230,40,l),
(60,40,l)
);
},
{
closed = 1;
nodes = (
(217,-153,o),
(281,-198,o),
(375,-198,cs),
(484,-198,o),
(539,-125,o),
(539,-9,cs),
(539,552,l),
(351,552,l),
(351,512,l),
(499,512,l),
(499,-19,l),
(499,-112,o),
(452,-158,o),
(375,-158,cs),
(310,-158,o),
(259,-133,o),
(242,-75,c),
(195,-75,l)
);
},
{
pos = (197,0);
ref = dotaccentcomb;
},
{
pos = (-66,0);
ref = dotaccentcomb;
}
);
width = 600;
}
);
unicode = 307;
},
{
glyphname = jdotless;
lastChange = "2024-11-09 23:38:12 +0000";
layers = (
{
anchors = (
{
name = top;
pos = (392,530);
}
);
layerId = m003;
shapes = (
{
closed = 1;
nodes = (
(79,-9,l),
(79,-127,o),
(158,-198,o),
(276,-198,c),
(385,-198,o),
(473,-125,o),
(473,-9,c),
(473,530,l),
(130,530,l),
(130,440,l),
(383,440,l),
(383,-9,l),
(383,-79,o),
(333,-108,o),
(276,-108,c),
(208,-108,o),
(169,-77,o),
(169,-9,c),
(169,57,l),
(79,57,l)
);
}
);
width = 600;
},
{
anchors = (
{
name = top;
pos = (392,530);
}
);
layerId = m002;
shapes = (
{
closed = 1;
nodes = (
(69,-9,l),
(69,-127,o),
(158,-198,o),
(276,-198,c),
(385,-198,o),
(483,-125,o),
(483,-9,c),
(483,530,l),
(120,530,l),
(120,380,l),
(333,380,l),
(333,11,l),
(333,-19,o),
(323,-48,o),
(276,-48,c),
(228,-48,o),
(219,-17,o),
(219,11,c),
(219,67,l),
(69,67,l)
);
}
);
width = 600;
},
{
anchors = (
{
name = top;
pos = (392,530);
}
);
layerId = m004;
shapes = (
{
closed = 1;
nodes = (
(89,-9,l),
(89,-127,o),
(158,-198,o),
(276,-198,c),
(385,-198,o),
(463,-125,o),
(463,-9,c),
(463,530,l),
(130,530,l),
(130,490,l),
(423,490,l),
(423,-9,l),
(423,-99,o),
(363,-158,o),
(276,-158,c),
(178,-158,o),
(129,-97,o),
(129,-9,c),
(129,57,l),
(89,57,l)
);
}
);
width = 600;
}
);
unicode = 567;
},
{
glyphname = k;
lastChange = "2024-11-09 23:40:11 +0000";
layers = (
{
anchors = (
{
name = bottom;
pos = (316,0);
}
);
layerId = m003;
shapes = (
{
closed = 1;
nodes = (
(110,0,l),
(200,0,l),
(200,154,l),
(302,285,l),
(346,154,l),
(440,0,l),
(547,0,l),
(341,333,l),
(505,530,l),
(391,530,l),
(298,421,l),
(200,269,l),
(160,269,l),
(200,449,l),
(200,770,l),
(110,770,l)
);
}
);
width = 600;
},
{
anchors = (
{
name = bottom;
pos = (316,0);
}
);
layerId = m002;
shapes = (
{
closed = 1;
nodes = (
(100,0,l),
(250,0,l),
(250,154,l),
(282,198,l),
(318,108,l),
(383,0,l),
(557,0,l),
(360,319,l),
(539,530,l),
(348,530,l),
(296,474,l),
(223,319,l),
(183,319,l),
(250,461,l),
(250,770,l),
(100,770,l)
);
}
);
width = 600;
},
{
anchors = (
{
name = bottom;
pos = (316,0);
}
);
layerId = m004;
shapes = (
{
closed = 1;
nodes = (
(135,0,l),
(175,0,l),
(175,154,l),
(296,319,l),
(362,186,l),
(478,0,l),
(527,0,l),
(314,338,l),
(473,530,l),
(423,530,l),
(261,338,l),
(189,217,l),
(159,217,l),
(175,359,l),
(175,770,l),
(135,770,l)
);
}
);
width = 600;
}
);
unicode = 107;
},
{
glyphname = kgreenlandic;
lastChange = "2024-11-09 23:51:46 +0000";
layers = (
{
anchors = (
{
name = bottom;
pos = (316,0);
}
);
layerId = m003;
shapes = (
{
closed = 1;
nodes = (
(110,0,l),
(200,0,l),
(200,154,l),
(302,285,l),
(341,180,l),
(435,0,l),
(547,0,l),
(341,333,l),
(505,530,l),
(395,530,l),
(298,411,l),
(200,269,l),
(160,269,l),
(200,449,l),
(200,530,l),
(110,530,l)
);
}
);
width = 600;
},
{
anchors = (
{
name = bottom;
pos = (316,0);
}
);
layerId = m002;
shapes = (
{
closed = 1;
nodes = (
(100,0,l),
(250,0,l),
(250,154,l),
(282,198,l),
(318,108,l),
(383,0,l),
(557,0,l),
(360,319,l),
(559,552,l),
(368,552,l),
(290,464,l),
(223,319,l),
(183,319,l),
(250,471,l),
(250,552,l),
(100,552,l)
);
}
);
width = 600;
},
{
anchors = (
{
name = bottom;
pos = (316,0);
}
);
layerId = m004;
shapes = (
{
closed = 1;
nodes = (
(135,0,l),
(175,0,l),
(175,154,l),
(296,319,l),
(362,186,l),
(478,0,l),
(527,0,l),
(314,338,l),
(483,530,l),
(433,530,l),
(267,338,l),
(189,217,l),
(159,217,l),
(175,359,l),
(175,530,l),
(135,530,l)
);
}
);
width = 600;
}
);
unicode = 312;
},
{
glyphname = l;
lastChange = "2024-10-27 22:59:13 +0000";
layers = (
{
anchors = (
{
name = bottom;
pos = (283,0);
},
{
name = top;
pos = (283,770);
}
);
layerId = m003;
shapes = (
{
closed = 1;
nodes = (
(235,90,l),
(100,90,l),
(100,0,l),
(500,0,l),
(500,90,l),
(325,90,l),
(325,770,l),
(100,770,l),
(100,680,l),
(235,680,l)
);
}
);
width = 600;
},
{
anchors = (
{
name = bottom;
pos = (283,0);
},
{
name = top;
pos = (283,770);
}
);
layerId = m002;
shapes = (
{
closed = 1;
nodes = (
(215,150,l),
(90,150,l),
(90,0,l),
(510,0,l),
(510,150,l),
(365,150,l),
(365,770,l),
(90,770,l),
(90,620,l),
(215,620,l)
);
}
);
width = 600;
},
{
anchors = (
{
name = bottom;
pos = (283,0);
},
{
name = top;
pos = (283,770);
}
);
layerId = m004;
shapes = (
{
closed = 1;
nodes = (
(260,40,l),
(100,40,l),
(100,0,l),
(500,0,l),
(500,40,l),
(300,40,l),
(300,770,l),
(100,770,l),
(100,730,l),
(260,730,l)
);
}
);
width = 600;
}
);
unicode = 108;
},
{
glyphname = lslash;
lastChange = "2024-11-04 00:29:05 +0000";
layers = (
{
hints = (
{
origin = (1,0);
target = (1,3);
type = Stem;
},
{
origin = (1,1);
target = (1,2);
type = Stem;
},
{
origin = (1,0);
target = (1,1);
type = Stem;
}
);
layerId = m003;
shapes = (
{
ref = l;
},
{
closed = 1;
nodes = (
(120,225,l),
(460,375,l),
(460,465,l),
(120,315,l)
);
}
);
width = 600;
},
{
hints = (
{
origin = (1,0);
target = (1,3);
type = Stem;
},
{
origin = (1,1);
target = (1,2);
type = Stem;
},
{
origin = (1,0);
target = (1,1);
type = Stem;
}
);
layerId = m002;
shapes = (
{
ref = l;
},
{
closed = 1;
nodes = (
(110,215,l),
(470,375,l),
(470,535,l),
(110,375,l)
);
}
);
width = 600;
},
{
hints = (
{
origin = (1,0);
target = (1,3);
type = Stem;
},
{
origin = (1,1);
target = (1,2);
type = Stem;
},
{
origin = (1,0);
target = (1,1);
type = Stem;
}
);
layerId = m004;
shapes = (
{
ref = l;
},
{
closed = 1;
nodes = (
(120,237,l),
(460,387,l),
(460,431,l),
(120,281,l)
);
}
);
width = 600;
}
);
unicode = 322;
},
{
glyphname = m;
lastChange = "2024-11-10 23:06:06 +0000";
layers = (
{
layerId = m003;
shapes = (
{
closed = 1;
nodes = (
(56,390,l),
(56,0,l),
(146,0,l),
(146,293,ls),
(146,410,o),
(173,462,o),
(213,462,cs),
(244,462,o),
(252,420,o),
(252,363,cs),
(252,0,l),
(342,0,l),
(342,293,ls),
(342,410,o),
(368,462,o),
(408,462,cs),
(440,462,o),
(448,421,o),
(448,363,cs),
(448,0,l),
(538,0,l),
(538,393,ls),
(538,506,o),
(491,552,o),
(436,552,cs),
(405,552,o),
(348,533,o),
(324,420,c),
(284,420,l),
(306,494,o),
(296,552,o),
(236,552,cs),
(200,552,o),
(154,533,o),
(128,420,c),
(88,420,l),
(132,530,l),
(36,530,l)
);
}
);
width = 600;
},
{
layerId = m002;
shapes = (
{
closed = 1;
nodes = (
(46,380,l),
(46,0,l),
(183,0,l),
(183,316,ls),
(183,373,o),
(191,402,o),
(211,402,cs),
(224,402,o),
(223,377,o),
(223,340,cs),
(223,0,l),
(371,0,l),
(371,316,ls),
(371,373,o),
(376,402,o),
(396,402,cs),
(410,402,o),
(411,378,o),
(411,340,cs),
(411,0,l),
(548,0,l),
(548,393,ls),
(548,506,o),
(512,552,o),
(451,552,cs),
(419,552,o),
(363,532,o),
(348,450,c),
(308,450,l),
(322,527,o),
(286,552,o),
(246,552,cs),
(210,552,o),
(163,533,o),
(147,450,c),
(106,450,l),
(142,530,l),
(26,530,l)
);
}
);
width = 600;
},
{
layerId = m004;
shapes = (
{
closed = 1;
nodes = (
(65,390,l),
(65,0,l),
(105,0,l),
(105,263,ls),
(105,380,o),
(153,512,o),
(223,512,cs),
(282,512,o),
(275,401,o),
(275,343,cs),
(275,0,l),
(315,0,l),
(315,263,ls),
(315,380,o),
(358,512,o),
(428,512,cs),
(491,512,o),
(485,401,o),
(485,343,cs),
(485,0,l),
(525,0,l),
(525,383,ls),
(525,496,o),
(500,552,o),
(436,552,cs),
(405,552,o),
(343,533,o),
(319,420,c),
(289,420,l),
(311,494,o),
(296,552,o),
(236,552,cs),
(200,552,o),
(139,533,o),
(113,420,c),
(83,420,l),
(105,530,l),
(55,530,l)
);
}
);
width = 600;
}
);
unicode = 109;
},
{
glyphname = n;
lastChange = "2024-11-10 23:05:13 +0000";
layers = (
{
anchors = (
{
name = hookleft;
pos = (105,0);
},
{
name = hookright;
pos = (502,0);
},
{
name = top;
pos = (315,552);
}
);
layerId = m003;
shapes = (
{
closed = 1;
nodes = (
(105,390,l),
(105,0,l),
(195,0,l),
(195,273,ls),
(195,420,o),
(255,462,o),
(313,462,cs),
(384,462,o),
(412,416,o),
(412,348,cs),
(412,0,l),
(502,0,l),
(502,366,ls),
(502,478,o),
(430,552,o),
(336,552,cs),
(275,552,o),
(224,533,o),
(180,420,c),
(140,420,l),
(186,530,l),
(85,530,l)
);
}
);
width = 600;
},
{
anchors = (
{
name = hookleft;
pos = (105,0);
},
{
name = hookright;
pos = (502,0);
},
{
name = top;
pos = (315,552);
}
);
layerId = m002;
shapes = (
{
closed = 1;
nodes = (
(95,370,l),
(95,0,l),
(245,0,l),
(245,247,ls),
(245,374,o),
(270,402,o),
(316,402,cs),
(357,402,o),
(362,360,o),
(362,312,cs),
(362,0,l),
(512,0,l),
(512,356,ls),
(512,498,o),
(430,552,o),
(336,552,cs),
(272,552,o),
(220,505,o),
(201,450,c),
(161,450,l),
(196,530,l),
(75,530,l)
);
}
);
width = 600;
},
{
anchors = (
{
name = hookleft;
pos = (115,0);
},
{
name = hookright;
pos = (502,0);
},
{
name = top;
pos = (315,552);
}
);
layerId = m004;
shapes = (
{
closed = 1;
nodes = (
(115,390,l),
(115,0,l),
(155,0,l),
(155,273,ls),
(155,420,o),
(235,512,o),
(323,512,cs),
(412,512,o),
(452,446,o),
(452,338,cs),
(452,0,l),
(492,0,l),
(492,356,ls),
(492,468,o),
(430,552,o),
(336,552,cs),
(275,552,o),
(203,519,o),
(163,420,c),
(133,420,l),
(155,530,l),
(105,530,l)
);
}
);
width = 600;
}
);
unicode = 110;
},
{
glyphname = o;
lastChange = "2024-10-13 23:27:40 +0000";
layers = (
{
anchors = (
{
name = bottom;
pos = (300,-12);
},
{
name = top;
pos = (300,552);
}
);
layerId = m003;
shapes = (
{
closed = 1;
nodes = (
(435,133,o),
(380,78,o),
(300,78,cs),
(220,78,o),
(165,133,o),
(165,269,cs),
(165,405,o),
(220,462,o),
(300,462,cs),
(380,462,o),
(435,405,o),
(435,269,cs)
);
},
{
closed = 1;
nodes = (
(75,79,o),
(177,-12,o),
(300,-12,cs),
(423,-12,o),
(525,79,o),
(525,269,cs),
(525,455,o),
(423,552,o),
(300,552,cs),
(177,552,o),
(75,455,o),
(75,269,cs)
);
}
);
width = 600;
},
{
anchors = (
{
name = bottom;
pos = (300,-12);
},
{
name = top;
pos = (300,552);
}
);
layerId = m002;
shapes = (
{
closed = 1;
nodes = (
(385,181,o),
(360,138,o),
(300,138,cs),
(240,138,o),
(215,181,o),
(215,269,cs),
(215,357,o),
(240,402,o),
(300,402,cs),
(360,402,o),
(385,357,o),
(385,269,cs)
);
},
{
closed = 1;
nodes = (
(65,79,o),
(177,-12,o),
(300,-12,cs),
(423,-12,o),
(535,79,o),
(535,269,cs),
(535,455,o),
(423,552,o),
(300,552,cs),
(177,552,o),
(65,455,o),
(65,269,cs)
);
}
);
width = 600;
},
{
anchors = (
{
name = bottom;
pos = (300,-12);
},
{
name = top;
pos = (300,552);
}
);
layerId = m004;
shapes = (
{
closed = 1;
nodes = (
(475,113,o),
(405,28,o),
(300,28,cs),
(195,28,o),
(125,113,o),
(125,269,cs),
(125,425,o),
(195,512,o),
(300,512,cs),
(405,512,o),
(475,425,o),
(475,269,cs)
);
},
{
closed = 1;
nodes = (
(85,79,o),
(177,-12,o),
(300,-12,cs),
(423,-12,o),
(515,79,o),
(515,269,cs),
(515,455,o),
(423,552,o),
(300,552,cs),
(177,552,o),
(85,455,o),
(85,269,cs)
);
}
);
width = 600;
}
);
unicode = 111;
},
{
glyphname = oslash;
lastChange = "2024-10-27 12:42:26 +0000";
layers = (
{
layerId = m003;
shapes = (
{
ref = o;
},
{
closed = 1;
nodes = (
(40,0,l),
(148,0,l),
(560,540,l),
(452,540,l)
);
}
);
width = 600;
},
{
layerId = m002;
shapes = (
{
ref = o;
},
{
closed = 1;
nodes = (
(25,0,l),
(163,0,l),
(575,540,l),
(437,540,l)
);
}
);
width = 600;
},
{
layerId = m004;
shapes = (
{
ref = o;
},
{
closed = 1;
nodes = (
(69,0,l),
(119,0,l),
(531,540,l),
(481,540,l)
);
}
);
width = 600;
}
);
unicode = 248;
},
{
glyphname = oe;
lastChange = "2024-10-25 18:25:20 +0000";
layers = (
{
anchors = (
{
name = bottom;
pos = (175,-12);
},
{
name = top;
pos = (175,552);
}
);
layerId = m003;
shapes = (
{
closed = 1;
nodes = (
(359,425,o),
(380,462,o),
(423,462,cs),
(464,462,o),
(485,421,o),
(486,335,c),
(354,335,l)
);
},
{
closed = 1;
nodes = (
(231,135,o),
(211,78,o),
(170,78,cs),
(126,78,o),
(104,135,o),
(104,269,cs),
(104,398,o),
(126,462,o),
(170,462,cs),
(211,462,o),
(231,398,o),
(231,269,cs)
);
},
{
closed = 1;
nodes = (
(15,79,o),
(80,-12,o),
(169,-12,cs),
(232,-12,o),
(264,52,o),
(272,120,c),
(310,120,l),
(319,53,o),
(356,-12,o),
(429,-12,cs),
(498,-12,o),
(562,47,o),
(573,175,c),
(485,175,l),
(479,123,o),
(469,78,o),
(421,78,cs),
(368,78,o),
(353,143,o),
(354,245,c),
(575,245,l),
(575,315,ls),
(575,444,o),
(529,552,o),
(435,552,cs),
(388,552,o),
(330,519,o),
(309,438,c),
(274,438,l),
(258,509,o),
(231,552,o),
(169,552,cs),
(80,552,o),
(15,455,o),
(15,269,cs)
);
}
);
width = 600;
},
{
anchors = (
{
name = bottom;
pos = (175,-12);
},
{
name = top;
pos = (175,552);
}
);
layerId = m002;
shapes = (
{
closed = 1;
nodes = (
(388,383,o),
(398,402,o),
(413,402,cs),
(434,402,o),
(440,383,o),
(440,355,c),
(388,355,l)
);
},
{
closed = 1;
nodes = (
(221,175,o),
(215,138,o),
(187,138,cs),
(159,138,o),
(150,175,o),
(150,269,cs),
(150,368,o),
(159,402,o),
(187,402,cs),
(215,402,o),
(221,368,o),
(221,269,cs)
);
},
{
closed = 1;
nodes = (
(10,79,o),
(70,-12,o),
(159,-12,cs),
(222,-12,o),
(255,25,o),
(272,70,c),
(312,70,l),
(324,23,o),
(360,-12,o),
(433,-12,cs),
(512,-12,o),
(577,36,o),
(588,175,c),
(438,175,l),
(436,153,o),
(436,138,o),
(415,138,cs),
(398,138,o),
(387,149,o),
(388,215,c),
(590,215,l),
(590,305,ls),
(590,434,o),
(542,552,o),
(435,552,cs),
(381,552,o),
(333,527,o),
(309,478,c),
(274,478,l),
(256,524,o),
(221,552,o),
(159,552,cs),
(70,552,o),
(10,455,o),
(10,269,cs)
);
}
);
width = 600;
},
{
anchors = (
{
name = bottom;
pos = (175,-12);
},
{
name = top;
pos = (175,552);
}
);
layerId = m004;
shapes = (
{
closed = 1;
nodes = (
(322,403,o),
(349,512,o),
(430,512,cs),
(514,512,o),
(525,399,o),
(525,285,c),
(320,285,l)
);
},
{
closed = 1;
nodes = (
(265,115,o),
(231,28,o),
(168,28,cs),
(98,28,o),
(55,115,o),
(55,269,cs),
(55,418,o),
(98,512,o),
(168,512,cs),
(231,512,o),
(265,416,o),
(265,269,cs)
);
},
{
closed = 1;
nodes = (
(15,79,o),
(80,-12,o),
(169,-12,cs),
(232,-12,o),
(264,52,o),
(272,120,c),
(310,120,l),
(319,53,o),
(356,-12,o),
(429,-12,cs),
(498,-12,o),
(552,47,o),
(563,175,c),
(518,175,l),
(512,93,o),
(489,28,o),
(421,28,cs),
(348,28,o),
(319,133,o),
(320,245,c),
(565,245,l),
(565,315,ls),
(565,444,o),
(529,552,o),
(435,552,cs),
(388,552,o),
(330,519,o),
(309,438,c),
(274,438,l),
(258,499,o),
(231,552,o),
(169,552,cs),
(80,552,o),
(15,455,o),
(15,269,cs)
);
}
);
width = 600;
}
);
unicode = 339;
},
{
glyphname = p;
lastChange = "2024-11-10 23:05:04 +0000";
layers = (
{
hints = (
{
horizontal = 1;
origin = (0,18);
target = (0,16);
type = Stem;
}
);
layerId = m003;
shapes = (
{
closed = 1;
nodes = (
(184,-200,l),
(184,30,l),
(141,165,l),
(181,165,l),
(205,52,o),
(270,-12,o),
(360,-12,cs),
(475,-12,o),
(551,93,o),
(551,272,cs),
(551,452,o),
(475,552,o),
(360,552,cs),
(274,552,o),
(211,496,o),
(184,394,c),
(144,394,l),
(184,505,l),
(184,530,l),
(74,530,l),
(94,390,l),
(94,-200,l)
);
},
{
closed = 1;
nodes = (
(414,462,o),
(461,394,o),
(461,272,cs),
(461,151,o),
(414,78,o),
(344,78,cs),
(274,78,o),
(230,151,o),
(230,272,cs),
(230,394,o),
(274,462,o),
(344,462,cs)
);
}
);
width = 600;
},
{
hints = (
{
horizontal = 1;
place = (530,136);
type = Stem;
}
);
layerId = m002;
shapes = (
{
closed = 1;
nodes = (
(234,-200,l),
(234,-30,l),
(165,125,l),
(205,125,l),
(232,42,o),
(270,-12,o),
(360,-12,cs),
(475,-12,o),
(561,91,o),
(561,272,cs),
(561,454,o),
(475,552,o),
(360,552,cs),
(298,552,o),
(236,517,o),
(208,434,c),
(168,434,l),
(214,526,l),
(214,530,l),
(64,530,l),
(84,380,l),
(84,-200,l)
);
},
{
closed = 1;
nodes = (
(386,402,o),
(411,370,o),
(411,272,cs),
(411,174,o),
(386,138,o),
(346,138,cs),
(306,138,o),
(280,174,o),
(280,272,cs),
(280,370,o),
(306,402,o),
(346,402,cs)
);
}
);
width = 600;
},
{
hints = (
{
horizontal = 1;
place = (530,136);
type = Stem;
}
);
layerId = m004;
shapes = (
{
closed = 1;
nodes = (
(144,-200,l),
(144,30,l),
(134,165,l),
(164,165,l),
(188,52,o),
(270,-12,o),
(360,-12,cs),
(465,-12,o),
(541,93,o),
(541,272,cs),
(541,452,o),
(465,552,o),
(360,552,cs),
(274,552,o),
(203,516,o),
(164,394,c),
(134,394,l),
(144,505,l),
(144,530,l),
(94,530,l),
(104,390,l),
(104,-200,l)
);
},
{
closed = 1;
nodes = (
(444,512,o),
(501,424,o),
(501,272,cs),
(501,121,o),
(444,28,o),
(344,28,cs),
(244,28,o),
(179,131,o),
(179,272,cs),
(179,424,o),
(244,512,o),
(344,512,cs)
);
}
);
width = 600;
}
);
unicode = 112;
},
{
glyphname = thorn;
lastChange = "2024-11-10 23:07:38 +0000";
layers = (
{
hints = (
{
horizontal = 1;
origin = (0,18);
target = (0,16);
type = Stem;
}
);
layerId = m003;
shapes = (
{
closed = 1;
nodes = (
(184,-200,l),
(184,30,l),
(141,165,l),
(181,165,l),
(205,52,o),
(270,-12,o),
(360,-12,cs),
(475,-12,o),
(551,93,o),
(551,272,cs),
(551,452,o),
(475,552,o),
(360,552,cs),
(274,552,o),
(211,496,o),
(184,394,c),
(144,394,l),
(184,505,l),
(184,530,l),
(94,530,l),
(94,390,l),
(94,-200,l)
);
},
{
closed = 1;
nodes = (
(414,462,o),
(461,394,o),
(461,272,cs),
(461,151,o),
(414,78,o),
(344,78,cs),
(274,78,o),
(230,151,o),
(230,272,cs),
(230,394,o),
(274,462,o),
(344,462,cs)
);
},
{
closed = 1;
nodes = (
(94,530,l),
(139,510,l),
(184,530,l),
(184,700,l),
(94,700,l)
);
}
);
width = 600;
},
{
hints = (
{
horizontal = 1;
place = (530,136);
type = Stem;
}
);
layerId = m002;
shapes = (
{
closed = 1;
nodes = (
(234,-200,l),
(234,-30,l),
(165,125,l),
(205,125,l),
(232,42,o),
(270,-12,o),
(360,-12,cs),
(475,-12,o),
(561,91,o),
(561,272,cs),
(561,454,o),
(475,552,o),
(360,552,cs),
(298,552,o),
(236,517,o),
(208,434,c),
(168,434,l),
(214,526,l),
(214,530,l),
(84,530,l),
(84,380,l),
(84,-200,l)
);
},
{
closed = 1;
nodes = (
(386,402,o),
(411,370,o),
(411,272,cs),
(411,174,o),
(386,138,o),
(346,138,cs),
(306,138,o),
(280,174,o),
(280,272,cs),
(280,370,o),
(306,402,o),
(346,402,cs)
);
},
{
closed = 1;
nodes = (
(84,530,l),
(139,510,l),
(214,530,l),
(214,700,l),
(84,700,l)
);
}
);
width = 600;
},
{
hints = (
{
horizontal = 1;
place = (530,136);
type = Stem;
}
);
layerId = m004;
shapes = (
{
closed = 1;
nodes = (
(144,-200,l),
(144,30,l),
(134,165,l),
(164,165,l),
(188,52,o),
(270,-12,o),
(360,-12,cs),
(465,-12,o),
(541,93,o),
(541,272,cs),
(541,452,o),
(465,552,o),
(360,552,cs),
(274,552,o),
(203,516,o),
(164,394,c),
(134,394,l),
(144,505,l),
(144,530,l),
(104,530,l),
(104,390,l),
(104,-200,l)
);
},
{
closed = 1;
nodes = (
(444,512,o),
(501,424,o),
(501,272,cs),
(501,121,o),
(444,28,o),
(344,28,cs),
(244,28,o),
(179,131,o),
(179,272,cs),
(179,424,o),
(244,512,o),
(344,512,cs)
);
},
{
closed = 1;
nodes = (
(104,530,l),
(129,510,l),
(144,530,l),
(144,700,l),
(104,700,l)
);
}
);
width = 600;
}
);
unicode = 254;
},
{
glyphname = r;
lastChange = "2024-11-10 23:06:51 +0000";
layers = (
{
anchors = (
{
name = hookleft;
pos = (115,0);
},
{
name = hookright;
pos = (512,0);
},
{
name = top;
pos = (308,552);
}
);
layerId = m003;
shapes = (
{
closed = 1;
nodes = (
(205,0,l),
(205,273,l),
(205,420,o),
(265,462,o),
(323,462,cs),
(394,462,o),
(422,416,o),
(422,348,cs),
(422,281,l),
(512,281,l),
(512,366,ls),
(512,478,o),
(440,552,o),
(346,552,cs),
(285,552,o),
(219,531,o),
(193,420,c),
(153,420,l),
(196,530,l),
(95,530,l),
(115,390,l),
(115,0,l)
);
}
);
width = 600;
},
{
anchors = (
{
name = hookleft;
pos = (115,0);
},
{
name = hookright;
pos = (512,0);
},
{
name = top;
pos = (308,552);
}
);
layerId = m002;
shapes = (
{
closed = 1;
nodes = (
(255,0,l),
(255,263,l),
(255,370,o),
(282,402,o),
(323,402,cs),
(354,402,o),
(372,386,o),
(372,318,cs),
(372,281,l),
(522,281,l),
(522,366,ls),
(522,478,o),
(456,552,o),
(346,552,cs),
(305,552,o),
(239,524,o),
(210,450,c),
(170,450,l),
(206,530,l),
(85,530,l),
(105,380,l),
(105,0,l)
);
}
);
width = 600;
},
{
anchors = (
{
name = hookleft;
pos = (115,0);
},
{
name = hookright;
pos = (512,0);
},
{
name = top;
pos = (308,552);
}
);
layerId = m004;
shapes = (
{
closed = 1;
nodes = (
(165,0,l),
(165,273,l),
(165,434,o),
(255,512,o),
(333,512,cs),
(427,512,o),
(462,436,o),
(462,348,cs),
(462,281,l),
(502,281,l),
(502,356,ls),
(502,458,o),
(447,552,o),
(346,552,cs),
(296,552,o),
(221,531,o),
(175,420,c),
(145,420,l),
(165,530,l),
(115,530,l),
(125,390,l),
(125,0,l)
);
}
);
width = 600;
}
);
unicode = 114;
},
{
glyphname = s;
lastChange = "2024-10-14 11:04:42 +0000";
layers = (
{
anchors = (
{
name = bottom;
pos = (298,-12);
},
{
name = top;
pos = (302,552);
}
);
layerId = m003;
shapes = (
{
closed = 1;
nodes = (
(87,53,o),
(187,-12,o),
(298,-12,c),
(392,-12,o),
(509,26,o),
(510,149,c),
(512,361,o),
(189,279,o),
(189,389,c),
(189,429,o),
(222,462,o),
(302,462,c),
(388,462,o),
(419,406,o),
(419,358,c),
(509,358,l),
(509,448,o),
(446,552,o),
(302,552,c),
(172,552,o),
(99,480,o),
(99,389,c),
(99,179,o),
(421,271,o),
(420,151,c),
(419,98,o),
(368,78,o),
(298,78,c),
(232,78,o),
(179,108,o),
(180,180,c),
(90,182,l)
);
}
);
width = 600;
},
{
anchors = (
{
name = bottom;
pos = (298,-12);
},
{
name = top;
pos = (302,552);
}
);
layerId = m002;
shapes = (
{
closed = 1;
nodes = (
(77,48,o),
(187,-12,o),
(298,-12,c),
(392,-12,o),
(519,26,o),
(520,149,c),
(522,361,o),
(247,321,o),
(239,365,cs),
(236,384,o),
(247,402,o),
(300,402,c),
(354,402,o),
(359,378,o),
(359,358,c),
(509,358,l),
(509,453,o),
(446,552,o),
(302,552,c),
(172,552,o),
(89,480,o),
(89,389,c),
(89,179,o),
(359,228,o),
(370,171,cs),
(373,153,o),
(356,138,o),
(298,138,c),
(241,138,o),
(229,158,o),
(230,180,c),
(80,182,l)
);
}
);
width = 600;
},
{
anchors = (
{
name = bottom;
pos = (298,-12);
},
{
name = top;
pos = (302,552);
}
);
layerId = m004;
shapes = (
{
closed = 1;
nodes = (
(97,53,o),
(187,-12,o),
(298,-12,c),
(392,-12,o),
(505,26,o),
(500,149,cs),
(492,341,o),
(157,249,o),
(149,389,cs),
(144,479,o),
(212,512,o),
(302,512,c),
(388,512,o),
(459,463,o),
(459,358,c),
(499,358,l),
(499,448,o),
(446,552,o),
(302,552,c),
(172,552,o),
(104,480,o),
(109,389,cs),
(119,209,o),
(451,301,o),
(460,151,cs),
(466,50,o),
(371,28,o),
(298,28,c),
(228,28,o),
(139,60,o),
(140,180,c),
(100,182,l)
);
}
);
width = 600;
}
);
unicode = 115;
},
{
glyphname = germandbls;
lastChange = "2024-10-20 03:23:34 +0000";
layers = (
{
backgroundImage = {
imagePath = "/Users/pavellaptev/Library/CloudStorage/GoogleDrive-pawellaptew@gmail.com/My Drive/GitButler/Images/germandbls-Regular.tif";
};
layerId = m003;
shapes = (
{
closed = 1;
nodes = (
(409,-11,o),
(545,39,o),
(545,197,cs),
(545,344,o),
(441,389,o),
(319,383,c),
(319,423,l),
(407,429,o),
(479,456,o),
(495,560,cs),
(509,654,o),
(445,770,o),
(302,770,c),
(151,770,o),
(89,648,o),
(89,534,cs),
(89,0,l),
(179,0,l),
(179,534,ls),
(179,605,o),
(208,680,o),
(302,680,cs),
(385,680,o),
(412,618,o),
(405,572,cs),
(396,506,o),
(355,488,o),
(259,478,c),
(259,318,l),
(352,325,o),
(455,314,o),
(455,207,cs),
(455,119,o),
(385,81,o),
(259,90,c),
(259,0,l)
);
}
);
width = 600;
},
{
backgroundImage = {
imagePath = "/Users/pavellaptev/Library/CloudStorage/GoogleDrive-pawellaptew@gmail.com/My Drive/GitButler/Images/germandbls-Regular.tif";
};
layerId = m002;
shapes = (
{
closed = 1;
nodes = (
(419,-9,o),
(555,38,o),
(555,197,cs),
(555,341,o),
(447,384,o),
(379,386,c),
(379,426,l),
(429,436,o),
(493,466,o),
(505,560,cs),
(518,663,o),
(445,770,o),
(302,770,c),
(151,770,o),
(79,667,o),
(79,534,cs),
(79,0,l),
(229,0,l),
(229,534,ls),
(229,597,o),
(261,620,o),
(302,620,cs),
(325,620,o),
(360,608,o),
(356,572,cs),
(352,533,o),
(319,530,o),
(269,528,c),
(269,268,l),
(354,274,o),
(405,262,o),
(405,209,cs),
(405,163,o),
(365,146,o),
(269,150,c),
(269,0,l)
);
}
);
width = 600;
},
{
backgroundImage = {
imagePath = "/Users/pavellaptev/Library/CloudStorage/GoogleDrive-pawellaptew@gmail.com/My Drive/GitButler/Images/germandbls-Regular.tif";
};
layerId = m004;
shapes = (
{
closed = 1;
nodes = (
(399,-11,o),
(535,39,o),
(535,197,cs),
(535,344,o),
(411,391,o),
(289,385,c),
(289,415,l),
(357,421,o),
(469,456,o),
(485,560,cs),
(499,654,o),
(445,770,o),
(302,770,c),
(151,770,o),
(99,648,o),
(99,534,cs),
(99,0,l),
(139,0,l),
(139,534,ls),
(139,635,o),
(178,730,o),
(302,730,cs),
(415,730,o),
(457,648,o),
(446,572,cs),
(435,496,o),
(365,449,o),
(259,449,c),
(259,349,l),
(382,356,o),
(495,331,o),
(495,204,cs),
(495,66,o),
(375,31,o),
(259,40,c),
(259,0,l)
);
}
);
width = 600;
}
);
unicode = 223;
},
{
glyphname = t;
lastChange = "2024-10-19 15:46:27 +0000";
layers = (
{
anchors = (
{
name = bottom;
pos = (335,-12);
},
{
name = top;
pos = (376,530);
}
);
layerId = m003;
shapes = (
{
closed = 1;
nodes = (
(410,154,ls),
(410,101,o),
(387,78,o),
(335,78,cs),
(282,78,o),
(259,101,o),
(259,154,cs),
(259,440,l),
(500,440,l),
(500,530,l),
(259,530,l),
(259,700,l),
(169,700,l),
(169,530,l),
(60,530,l),
(60,440,l),
(169,440,l),
(169,154,ls),
(169,51,o),
(232,-12,o),
(335,-12,cs),
(437,-12,o),
(500,51,o),
(500,154,cs),
(500,214,l),
(410,214,l)
);
}
);
width = 600;
},
{
anchors = (
{
name = bottom;
pos = (335,-12);
},
{
name = top;
pos = (406,530);
}
);
layerId = m002;
shapes = (
{
closed = 1;
nodes = (
(360,176,ls),
(360,153,o),
(359,139,o),
(335,139,cs),
(313,139,o),
(309,151,o),
(309,176,cs),
(309,380,l),
(510,380,l),
(510,530,l),
(309,530,l),
(309,700,l),
(159,700,l),
(159,530,l),
(50,530,l),
(50,380,l),
(159,380,l),
(159,154,ls),
(159,49,o),
(232,-12,o),
(335,-12,cs),
(437,-12,o),
(510,49,o),
(510,154,cs),
(510,214,l),
(360,214,l)
);
}
);
width = 600;
},
{
anchors = (
{
name = bottom;
pos = (335,-12);
},
{
name = top;
pos = (376,530);
}
);
layerId = m004;
shapes = (
{
closed = 1;
nodes = (
(450,154,ls),
(450,50,o),
(402,28,o),
(347,28,cs),
(292,28,o),
(239,53,o),
(239,154,cs),
(239,490,l),
(490,490,l),
(490,530,l),
(239,530,l),
(239,700,l),
(199,700,l),
(199,530,l),
(60,530,l),
(60,490,l),
(199,490,l),
(199,154,ls),
(199,53,o),
(244,-12,o),
(347,-12,cs),
(449,-12,o),
(490,53,o),
(490,154,cs),
(490,214,l),
(450,214,l)
);
}
);
width = 600;
}
);
unicode = 116;
},
{
glyphname = tbar;
lastChange = "2024-11-04 00:31:19 +0000";
layers = (
{
layerId = m003;
shapes = (
{
closed = 1;
nodes = (
(89,295,l),
(480,295,l),
(480,375,l),
(89,375,l)
);
},
{
ref = t;
}
);
width = 600;
},
{
layerId = m002;
shapes = (
{
closed = 1;
nodes = (
(79,245,l),
(490,245,l),
(490,345,l),
(79,345,l)
);
},
{
ref = t;
}
);
width = 600;
},
{
layerId = m004;
shapes = (
{
closed = 1;
nodes = (
(89,315,l),
(480,315,l),
(480,355,l),
(89,355,l)
);
},
{
ref = t;
}
);
width = 600;
}
);
unicode = 359;
},
{
glyphname = u;
lastChange = "2024-11-09 23:41:27 +0000";
layers = (
{
anchors = (
{
name = bottom;
pos = (282,0);
},
{
name = hookleft;
pos = (95,530);
},
{
name = hookright;
pos = (492,530);
},
{
name = "ogonek-hook";
pos = (553,0);
},
{
name = top;
pos = (293,530);
}
);
layerId = m003;
shapes = (
{
closed = 1;
nodes = (
(322,-12,o),
(382,17,o),
(406,140,c),
(446,140,l),
(445,120,ls),
(442,55,o),
(454,0,o),
(529,0,cs),
(553,0,l),
(553,90,l),
(492,90,l),
(492,530,l),
(402,530,l),
(402,277,ls),
(402,132,o),
(342,78,o),
(284,78,cs),
(213,78,o),
(185,124,o),
(185,192,cs),
(185,530,l),
(95,530,l),
(95,174,ls),
(95,62,o),
(167,-12,o),
(261,-12,cs)
);
}
);
width = 600;
},
{
anchors = (
{
name = bottom;
pos = (282,0);
},
{
name = hookleft;
pos = (85,530);
},
{
name = hookright;
pos = (502,530);
},
{
name = "ogonek-hook";
pos = (553,0);
},
{
name = top;
pos = (293,530);
}
);
layerId = m002;
shapes = (
{
closed = 1;
nodes = (
(322,-12,o),
(390,18,o),
(402,125,c),
(442,125,l),
(441,100,ls),
(439,55,o),
(454,0,o),
(529,0,cs),
(553,0,l),
(553,150,l),
(502,150,l),
(502,530,l),
(352,530,l),
(352,250,ls),
(352,164,o),
(335,138,o),
(288,138,cs),
(247,138,o),
(235,169,o),
(235,204,cs),
(235,530,l),
(85,530,l),
(85,174,ls),
(85,38,o),
(167,-12,o),
(261,-12,cs)
);
}
);
width = 600;
},
{
anchors = (
{
name = bottom;
pos = (282,0);
},
{
name = hookleft;
pos = (95,530);
},
{
name = hookright;
pos = (492,530);
},
{
name = "ogonek-hook";
pos = (553,0);
},
{
name = top;
pos = (293,530);
}
);
layerId = m004;
shapes = (
{
closed = 1;
nodes = (
(332,-12,o),
(392,27,o),
(416,100,c),
(446,100,l),
(445,80,ls),
(442,26,o),
(470,0,o),
(517,0,cs),
(553,0,l),
(553,40,l),
(482,40,l),
(482,530,l),
(442,530,l),
(442,307,ls),
(442,132,o),
(372,28,o),
(284,28,cs),
(213,28,o),
(145,57,o),
(145,182,cs),
(145,530,l),
(105,530,l),
(105,174,ls),
(105,62,o),
(167,-12,o),
(261,-12,cs)
);
}
);
width = 600;
}
);
unicode = 117;
},
{
glyphname = v;
lastChange = "2024-11-09 23:41:38 +0000";
layers = (
{
background = {
shapes = (
{
ref = h;
}
);
};
layerId = m003;
shapes = (
{
closed = 1;
nodes = (
(366,0,l),
(530,530,l),
(435,530,l),
(320,176,l),
(320,70,l),
(280,70,l),
(280,176,l),
(165,530,l),
(70,530,l),
(234,0,l)
);
}
);
width = 600;
},
{
layerId = m002;
shapes = (
{
closed = 1;
nodes = (
(376,0,l),
(540,530,l),
(385,530,l),
(320,331,l),
(320,120,l),
(280,120,l),
(280,331,l),
(215,530,l),
(60,530,l),
(224,0,l)
);
}
);
width = 600;
},
{
layerId = m004;
shapes = (
{
closed = 1;
nodes = (
(336,0,l),
(510,530,l),
(465,530,l),
(338,136,l),
(315,30,l),
(285,30,l),
(262,136,l),
(135,530,l),
(90,530,l),
(264,0,l)
);
}
);
width = 600;
}
);
unicode = 118;
},
{
glyphname = w;
lastChange = "2024-11-10 23:02:57 +0000";
layers = (
{
anchors = (
{
name = top;
pos = (300,530);
}
);
layerId = m003;
shapes = (
{
closed = 1;
nodes = (
(222,384,l),
(213,317,l),
(213,70,l),
(173,70,l),
(173,319,l),
(134,530,l),
(42,530,l),
(136,0,l),
(249,0,l),
(280,204,l),
(280,314,l),
(320,314,l),
(320,204,l),
(351,0,l),
(464,0,l),
(558,530,l),
(466,530,l),
(427,319,l),
(427,70,l),
(387,70,l),
(387,317,l),
(378,384,l)
);
}
);
width = 600;
},
{
anchors = (
{
name = top;
pos = (300,530);
}
);
layerId = m002;
shapes = (
{
closed = 1;
nodes = (
(227,384,l),
(223,347,l),
(210,120,l),
(170,120,l),
(194,478,l),
(182,530,l),
(30,530,l),
(126,0,l),
(279,0,l),
(280,113,l),
(281,264,l),
(319,264,l),
(320,113,l),
(321,0,l),
(474,0,l),
(570,530,l),
(418,530,l),
(406,478,l),
(430,120,l),
(390,120,l),
(377,347,l),
(373,384,l)
);
}
);
width = 600;
},
{
anchors = (
{
name = top;
pos = (300,530);
}
);
layerId = m004;
shapes = (
{
closed = 1;
nodes = (
(257,374,l),
(224,178,l),
(214,30,l),
(184,30,l),
(157,218,l),
(104,530,l),
(62,530,l),
(156,0,l),
(244,0,l),
(270,213,l),
(285,344,l),
(315,344,l),
(330,213,l),
(356,0,l),
(444,0,l),
(538,530,l),
(496,530,l),
(443,218,l),
(416,30,l),
(386,30,l),
(376,178,l),
(342,374,l)
);
}
);
width = 600;
}
);
unicode = 119;
},
{
glyphname = x;
lastChange = "2024-11-09 23:43:22 +0000";
layers = (
{
hints = (
{
origin = (0,6);
target = (0,5);
type = Stem;
}
);
layerId = m003;
shapes = (
{
closed = 1;
nodes = (
(359,264,l),
(538,530,l),
(430,530,l),
(325,373,l),
(325,308,l),
(285,308,l),
(285,373,l),
(180,530,l),
(72,530,l),
(251,264,l),
(72,0,l),
(181,-1,l),
(285,145,l),
(285,210,l),
(325,210,l),
(325,145,l),
(429,-1,l),
(538,0,l)
);
}
);
width = 600;
},
{
layerId = m002;
shapes = (
{
closed = 1;
nodes = (
(369,264,l),
(548,530,l),
(375,530,l),
(325,461,l),
(325,349,l),
(285,349,l),
(285,461,l),
(235,530,l),
(62,530,l),
(241,264,l),
(62,0,l),
(236,-1,l),
(285,71,l),
(285,179,l),
(325,179,l),
(325,71,l),
(374,-1,l),
(548,0,l)
);
}
);
width = 600;
},
{
hints = (
{
origin = (0,6);
target = (0,5);
type = Stem;
}
);
layerId = m004;
shapes = (
{
closed = 1;
nodes = (
(336,264,l),
(533,530,l),
(485,530,l),
(358,361,l),
(320,287,l),
(290,287,l),
(252,361,l),
(125,530,l),
(77,530,l),
(274,264,l),
(77,0,l),
(126,0,l),
(252,168,l),
(290,241,l),
(320,241,l),
(358,168,l),
(484,0,l),
(533,0,l)
);
}
);
width = 600;
}
);
unicode = 120;
},
{
glyphname = y;
lastChange = "2024-11-09 23:44:32 +0000";
layers = (
{
anchors = (
{
name = top;
pos = (303,530);
}
);
layerId = m003;
shapes = (
{
closed = 1;
nodes = (
(73,-151,o),
(145,-200,o),
(217,-200,cs),
(280,-200,o),
(342,-175,o),
(363,-98,cs),
(538,530,l),
(446,530,l),
(316,70,l),
(276,70,l),
(290,133,l),
(157,530,l),
(62,530,l),
(238,0,l),
(297,0,l),
(277,-74,ls),
(268,-107,o),
(243,-120,o),
(218,-120,cs),
(188,-120,o),
(158,-98,o),
(154,-46,c),
(64,-46,l)
);
}
);
width = 600;
},
{
anchors = (
{
name = top;
pos = (303,530);
}
);
layerId = m002;
shapes = (
{
closed = 1;
nodes = (
(60,-161,o),
(135,-200,o),
(217,-200,cs),
(292,-200,o),
(360,-179,o),
(387,-82,cs),
(558,530,l),
(406,530,l),
(293,130,l),
(253,130,l),
(279,275,l),
(189,530,l),
(32,530,l),
(208,0,l),
(259,0,l),
(251,-30,ls),
(248,-43,o),
(241,-50,o),
(228,-50,cs),
(213,-50,o),
(206,-43,o),
(204,-36,c),
(54,-36,l)
);
}
);
width = 600;
},
{
anchors = (
{
name = top;
pos = (303,530);
}
);
layerId = m004;
shapes = (
{
closed = 1;
nodes = (
(73,-151,o),
(135,-200,o),
(207,-200,cs),
(270,-200,o),
(321,-165,o),
(343,-88,cs),
(518,530,l),
(476,530,l),
(335,30,l),
(305,30,l),
(277,151,l),
(147,530,l),
(102,530,l),
(290,0,l),
(328,0,l),
(309,-64,ls),
(289,-132,o),
(263,-160,o),
(208,-160,cs),
(148,-160,o),
(109,-117,o),
(104,-46,c),
(64,-46,l)
);
}
);
width = 600;
}
);
unicode = 121;
},
{
glyphname = z;
lastChange = "2024-11-09 23:45:57 +0000";
layers = (
{
anchors = (
{
name = bottom;
pos = (305,0);
},
{
name = top;
pos = (295,530);
}
);
layerId = m003;
shapes = (
{
closed = 1;
nodes = (
(250,90,l),
(169,55,l),
(169,95,l),
(280,172,l),
(503,418,l),
(503,530,l),
(95,530,l),
(95,440,l),
(352,440,l),
(433,475,l),
(433,435,l),
(322,358,l),
(99,111.797,l),
(99,0,l),
(506,0,l),
(506,90,l)
);
}
);
width = 600;
},
{
anchors = (
{
name = bottom;
pos = (305,0);
},
{
name = top;
pos = (295,530);
}
);
layerId = m002;
shapes = (
{
closed = 1;
nodes = (
(320,150,l),
(209,80,l),
(209,120,l),
(354,212,l),
(513,387,l),
(513,530,l),
(85,530,l),
(85,380,l),
(282,380,l),
(393,450,l),
(393,410,l),
(248,307,l),
(89,143,l),
(89,0,l),
(516,0,l),
(516,150,l)
);
}
);
width = 600;
},
{
anchors = (
{
name = bottom;
pos = (305,0);
},
{
name = top;
pos = (295,530);
}
);
layerId = m004;
shapes = (
{
closed = 1;
nodes = (
(289,40,l),
(129,29,l),
(129,59,l),
(260,192,l),
(503,462,l),
(503,530,l),
(95,530,l),
(95,490,l),
(311,490,l),
(473,501,l),
(473,471,l),
(339,337,l),
(99,69,l),
(99,0,l),
(506,0,l),
(506,40,l)
);
}
);
width = 600;
}
);
unicode = 122;
},
{
glyphname = saltillo;
lastChange = "2024-11-01 22:44:41 +0000";
layers = (
{
layerId = m003;
shapes = (
{
closed = 1;
nodes = (
(265,440,l),
(310,440,l),
(365,680,l),
(365,770,l),
(265,770,l)
);
}
);
width = 600;
},
{
layerId = m002;
shapes = (
{
closed = 1;
nodes = (
(244,440,l),
(331,440,l),
(394,680,l),
(394,770,l),
(244,770,l)
);
}
);
width = 600;
},
{
layerId = m004;
shapes = (
{
closed = 1;
nodes = (
(275,440,l),
(293,440,l),
(325,650,l),
(325,770,l),
(275,770,l)
);
}
);
width = 600;
}
);
unicode = 42892;
},
{
glyphname = ordfeminine;
lastChange = "2024-10-25 19:03:08 +0000";
layers = (
{
layerId = m003;
shapes = (
{
closed = 1;
nodes = (
(408,513,l),
(408,650,ls),
(408,730,o),
(368,770,o),
(300,770,cs),
(230,770,o),
(180,730,o),
(180,650,c),
(260,650,l),
(260,677,o),
(268,695,o),
(297,695,cs),
(318,695,o),
(328,684,o),
(328,651,c),
(328,618,l),
(270,618,ls),
(193,618,o),
(154,576,o),
(154,524,cs),
(154,466,o),
(187,425,o),
(261,425,cs),
(313,425,o),
(338,460,o),
(339,518,c),
(369,518,l),
(369,491,ls),
(369,458,o),
(378,433,o),
(423,433,cs),
(451,433,l),
(451,513,l)
);
},
{
closed = 1;
nodes = (
(243,499,o),
(234,515,o),
(234,529,cs),
(234,543,o),
(241,562,o),
(262,567,cs),
(328,582,l),
(328,552,l),
(307,548,l),
(303,529,o),
(296,502,o),
(263,500,cs)
);
}
);
width = 600;
},
{
layerId = m002;
shapes = (
{
closed = 1;
nodes = (
(418,543,l),
(418,650,ls),
(418,730,o),
(368,770,o),
(300,770,cs),
(230,770,o),
(170,730,o),
(170,650,c),
(270,650,l),
(270,671,o),
(277,685,o),
(294,685,cs),
(310,685,o),
(318,674,o),
(318,651,c),
(318,633,l),
(260,633,ls),
(183,633,o),
(144,586,o),
(144,534,cs),
(144,465,o),
(187,425,o),
(261,425,cs),
(313,425,o),
(338,460,o),
(339,518,c),
(369,518,l),
(369,491,ls),
(369,458,o),
(378,433,o),
(423,433,cs),
(461,433,l),
(461,543,l)
);
},
{
closed = 1;
nodes = (
(256,517,o),
(244,528,o),
(244,541,cs),
(244,555,o),
(249,566,o),
(271,571,cs),
(318,582,l),
(318,553,l),
(297,549,l),
(297,533,o),
(288,523,o),
(273,520,cs)
);
}
);
width = 600;
},
{
layerId = m004;
shapes = (
{
closed = 1;
nodes = (
(408,473,l),
(408,650,ls),
(408,730,o),
(368,770,o),
(300,770,cs),
(230,770,o),
(180,730,o),
(180,650,c),
(220,650,l),
(220,697,o),
(238,730,o),
(297,730,cs),
(351,730,o),
(368,705,o),
(368,652,c),
(368,618,l),
(270,618,ls),
(193,618,o),
(154,576,o),
(154,524,cs),
(154,466,o),
(187,425,o),
(261,425,cs),
(313,425,o),
(338,460,o),
(339,518,c),
(369,518,l),
(369,491,ls),
(369,458,o),
(378,433,o),
(423,433,cs),
(451,433,l),
(451,473,l)
);
},
{
closed = 1;
nodes = (
(227,464,o),
(194,477,o),
(194,521,cs),
(194,555,o),
(216,581,o),
(266,585,cs),
(368,593,l),
(368,552,l),
(307,548,l),
(306,497,o),
(300,466,o),
(257,465,cs)
);
}
);
width = 600;
}
);
unicode = 170;
},
{
glyphname = ordmasculine;
lastChange = "2024-10-25 19:03:47 +0000";
layers = (
{
layerId = m003;
shapes = (
{
closed = 1;
nodes = (
(369,553,o),
(355,505,o),
(301,505,cs),
(247,505,o),
(233,553,o),
(233,596,cs),
(233,639,o),
(247,690,o),
(301,690,cs),
(355,690,o),
(369,639,o),
(369,596,cs)
);
},
{
closed = 1;
nodes = (
(153,477,o),
(223,425,o),
(301,425,cs),
(379,425,o),
(449,477,o),
(449,596,cs),
(449,716,o),
(379,770,o),
(301,770,cs),
(223,770,o),
(153,716,o),
(153,596,cs)
);
}
);
width = 600;
},
{
layerId = m002;
shapes = (
{
closed = 1;
nodes = (
(359,553,o),
(339,525,o),
(301,525,cs),
(263,525,o),
(243,553,o),
(243,596,cs),
(243,639,o),
(263,670,o),
(301,670,cs),
(339,670,o),
(359,639,o),
(359,596,cs)
);
},
{
closed = 1;
nodes = (
(143,477,o),
(223,425,o),
(301,425,cs),
(379,425,o),
(459,477,o),
(459,596,cs),
(459,716,o),
(379,770,o),
(301,770,cs),
(223,770,o),
(143,716,o),
(143,596,cs)
);
}
);
width = 600;
},
{
layerId = m004;
shapes = (
{
closed = 1;
nodes = (
(409,533,o),
(385,465,o),
(301,465,cs),
(217,465,o),
(193,533,o),
(193,596,cs),
(193,659,o),
(217,730,o),
(301,730,cs),
(385,730,o),
(409,659,o),
(409,596,cs)
);
},
{
closed = 1;
nodes = (
(153,477,o),
(223,425,o),
(301,425,cs),
(379,425,o),
(449,477,o),
(449,596,cs),
(449,716,o),
(379,770,o),
(301,770,cs),
(223,770,o),
(153,716,o),
(153,596,cs)
);
}
);
width = 600;
}
);
unicode = 186;
},
{
glyphname = "Be-cy";
lastChange = "2024-10-19 16:07:53 +0000";
layers = (
{
layerId = m003;
shapes = (
{
closed = 1;
nodes = (
(180,337,l),
(297,337,ls),
(388,337,o),
(443,296,o),
(443,213,cs),
(443,129,o),
(389,90,o),
(297,90,cs),
(180,90,l)
);
},
{
closed = 1;
nodes = (
(533,308,o),
(481,427,o),
(293,427,cs),
(180,427,l),
(180,610,l),
(513,610,l),
(513,700,l),
(90,700,l),
(90,0,l),
(300,0,ls),
(440,0,o),
(533,68,o),
(533,213,cs)
);
}
);
width = 600;
},
{
associatedMasterId = m003;
background = {
shapes = (
{
pos = (30,0);
ref = H;
}
);
};
layerId = "36C62525-1285-4BAE-944A-6C8C9F253F97";
name = "SemiExpanded ExtraBold";
shapes = (
{
closed = 1;
nodes = (
(416,0,ls),
(588,0,o),
(700,99,o),
(700,251,cs),
(700,407,o),
(588,502,o),
(416,502,cs),
(278,502,l),
(278,620,l),
(670,620,l),
(670,800,l),
(90,800,l),
(90,0,l)
);
},
{
closed = 1;
nodes = (
(278,332,l),
(416,332,ls),
(477,332,o),
(512,305,o),
(512,256,cs),
(512,207,o),
(477,180,o),
(416,180,cs),
(278,180,l)
);
}
);
width = 750;
},
{
associatedMasterId = m003;
background = {
shapes = (
{
ref = H;
}
);
};
layerId = "6B9847D1-CB13-4008-B594-E989375AECA0";
name = "Condensed Regular";
shapes = (
{
closed = 1;
nodes = (
(306,0,ls),
(454,0,o),
(548,92,o),
(548,234,cs),
(548,380,o),
(454,468,o),
(306,468,cs),
(222,468,l),
(222,694,l),
(518,694,l),
(518,800,l),
(108,800,l),
(108,0,l)
);
},
{
closed = 1;
nodes = (
(222,368,l),
(310,368,ls),
(387,368,o),
(434,318,o),
(434,237,cs),
(434,156,o),
(387,106,o),
(310,106,cs),
(222,106,l)
);
}
);
width = 600;
},
{
associatedMasterId = m003;
background = {
shapes = (
{
ref = H;
}
);
};
layerId = "11641553-3AE9-48FC-90ED-ADDA6A8BE537";
name = "Condensed ExtraBold";
shapes = (
{
closed = 1;
nodes = (
(302,0,ls),
(470,0,o),
(578,98,o),
(578,254,cs),
(578,404,o),
(470,502,o),
(302,502,cs),
(246,502,l),
(246,624,l),
(548,624,l),
(548,800,l),
(58,800,l),
(58,0,l)
);
},
{
closed = 1;
nodes = (
(246,336,l),
(302,336,ls),
(357,336,o),
(390,306,o),
(390,254,cs),
(390,202,o),
(357,172,o),
(302,172,cs),
(246,172,l)
);
}
);
width = 600;
},
{
associatedMasterId = m003;
background = {
shapes = (
{
pos = (30,0);
ref = H;
}
);
};
layerId = "26C88C8F-C08B-440C-A65C-8DAE72918356";
name = "SemiExpanded Thin";
shapes = (
{
closed = 1;
nodes = (
(418,0,ls),
(573,0,o),
(660,80,o),
(660,221,cs),
(660,362,o),
(573,442,o),
(418,442,cs),
(212,442,l),
(212,762,l),
(630,762,l),
(630,800,l),
(170,800,l),
(170,0,l)
);
},
{
closed = 1;
nodes = (
(212,406,l),
(422,406,ls),
(547,406,o),
(618,340,o),
(618,222,cs),
(618,104,o),
(547,38,o),
(422,38,cs),
(212,38,l)
);
}
);
width = 750;
},
{
layerId = m002;
shapes = (
{
closed = 1;
nodes = (
(230,287,l),
(297,287,ls),
(348,287,o),
(393,278,o),
(393,221,cs),
(393,166,o),
(348,150,o),
(297,150,cs),
(230,150,l)
);
},
{
closed = 1;
nodes = (
(543,316,o),
(499,437,o),
(303,437,cs),
(230,437,l),
(230,550,l),
(523,550,l),
(523,700,l),
(80,700,l),
(80,0,l),
(310,0,ls),
(458,0,o),
(543,76,o),
(543,217,cs)
);
}
);
width = 600;
},
{
associatedMasterId = m002;
background = {
shapes = (
{
pos = (30,0);
ref = H;
}
);
};
layerId = "F4D47A21-2DB6-434A-AD13-444A870E5CC6";
name = "SemiExpanded ExtraBold";
shapes = (
{
closed = 1;
nodes = (
(416,0,ls),
(588,0,o),
(700,99,o),
(700,251,cs),
(700,407,o),
(588,502,o),
(416,502,cs),
(278,502,l),
(278,620,l),
(670,620,l),
(670,800,l),
(90,800,l),
(90,0,l)
);
},
{
closed = 1;
nodes = (
(278,332,l),
(416,332,ls),
(477,332,o),
(512,305,o),
(512,256,cs),
(512,207,o),
(477,180,o),
(416,180,cs),
(278,180,l)
);
}
);
width = 750;
},
{
associatedMasterId = m002;
background = {
shapes = (
{
ref = H;
}
);
};
layerId = "CEFDBBAB-6F82-466A-AD82-9BDBD222F2D9";
name = "Condensed Regular";
shapes = (
{
closed = 1;
nodes = (
(306,0,ls),
(454,0,o),
(548,92,o),
(548,234,cs),
(548,380,o),
(454,468,o),
(306,468,cs),
(222,468,l),
(222,694,l),
(518,694,l),
(518,800,l),
(108,800,l),
(108,0,l)
);
},
{
closed = 1;
nodes = (
(222,368,l),
(310,368,ls),
(387,368,o),
(434,318,o),
(434,237,cs),
(434,156,o),
(387,106,o),
(310,106,cs),
(222,106,l)
);
}
);
width = 600;
},
{
associatedMasterId = m002;
background = {
shapes = (
{
ref = H;
}
);
};
layerId = "FBBC3C90-5E5B-4772-A062-8B219898EC00";
name = "Condensed ExtraBold";
shapes = (
{
closed = 1;
nodes = (
(302,0,ls),
(470,0,o),
(578,98,o),
(578,254,cs),
(578,404,o),
(470,502,o),
(302,502,cs),
(246,502,l),
(246,624,l),
(548,624,l),
(548,800,l),
(58,800,l),
(58,0,l)
);
},
{
closed = 1;
nodes = (
(246,336,l),
(302,336,ls),
(357,336,o),
(390,306,o),
(390,254,cs),
(390,202,o),
(357,172,o),
(302,172,cs),
(246,172,l)
);
}
);
width = 600;
},
{
associatedMasterId = m002;
background = {
shapes = (
{
pos = (30,0);
ref = H;
}
);
};
layerId = "1AD40D74-59D6-412E-B4FE-7720A247EFC2";
name = "SemiExpanded Thin";
shapes = (
{
closed = 1;
nodes = (
(418,0,ls),
(573,0,o),
(660,80,o),
(660,221,cs),
(660,362,o),
(573,442,o),
(418,442,cs),
(212,442,l),
(212,762,l),
(630,762,l),
(630,800,l),
(170,800,l),
(170,0,l)
);
},
{
closed = 1;
nodes = (
(212,406,l),
(422,406,ls),
(547,406,o),
(618,340,o),
(618,222,cs),
(618,104,o),
(547,38,o),
(422,38,cs),
(212,38,l)
);
}
);
width = 750;
},
{
background = {
shapes = (
{
ref = H;
}
);
};
layerId = m004;
shapes = (
{
closed = 1;
nodes = (
(140,387,l),
(297,387,ls),
(418,387,o),
(483,326,o),
(483,213,cs),
(483,99,o),
(419,40,o),
(297,40,cs),
(140,40,l)
);
},
{
closed = 1;
nodes = (
(523,308,o),
(481,427,o),
(293,427,cs),
(140,427,l),
(140,660,l),
(503,660,l),
(503,700,l),
(100,700,l),
(100,0,l),
(300,0,ls),
(440,0,o),
(523,68,o),
(523,213,cs)
);
}
);
width = 600;
},
{
associatedMasterId = m004;
background = {
shapes = (
{
pos = (30,0);
ref = H;
}
);
};
layerId = "8E7BB89C-744A-4F78-B146-71FF8C028025";
name = "SemiExpanded ExtraBold";
shapes = (
{
closed = 1;
nodes = (
(416,0,ls),
(588,0,o),
(700,99,o),
(700,251,cs),
(700,407,o),
(588,502,o),
(416,502,cs),
(278,502,l),
(278,620,l),
(670,620,l),
(670,800,l),
(90,800,l),
(90,0,l)
);
},
{
closed = 1;
nodes = (
(278,332,l),
(416,332,ls),
(477,332,o),
(512,305,o),
(512,256,cs),
(512,207,o),
(477,180,o),
(416,180,cs),
(278,180,l)
);
}
);
width = 750;
},
{
associatedMasterId = m004;
background = {
shapes = (
{
ref = H;
}
);
};
layerId = "C63041A9-6EFB-4C65-BE4E-91B874FC9776";
name = "Condensed Regular";
shapes = (
{
closed = 1;
nodes = (
(306,0,ls),
(454,0,o),
(548,92,o),
(548,234,cs),
(548,380,o),
(454,468,o),
(306,468,cs),
(222,468,l),
(222,694,l),
(518,694,l),
(518,800,l),
(108,800,l),
(108,0,l)
);
},
{
closed = 1;
nodes = (
(222,368,l),
(310,368,ls),
(387,368,o),
(434,318,o),
(434,237,cs),
(434,156,o),
(387,106,o),
(310,106,cs),
(222,106,l)
);
}
);
width = 600;
},
{
associatedMasterId = m004;
background = {
shapes = (
{
ref = H;
}
);
};
layerId = "981F0C5E-5BF4-4768-A287-BE12BE27EB98";
name = "Condensed ExtraBold";
shapes = (
{
closed = 1;
nodes = (
(302,0,ls),
(470,0,o),
(578,98,o),
(578,254,cs),
(578,404,o),
(470,502,o),
(302,502,cs),
(246,502,l),
(246,624,l),
(548,624,l),
(548,800,l),
(58,800,l),
(58,0,l)
);
},
{
closed = 1;
nodes = (
(246,336,l),
(302,336,ls),
(357,336,o),
(390,306,o),
(390,254,cs),
(390,202,o),
(357,172,o),
(302,172,cs),
(246,172,l)
);
}
);
width = 600;
},
{
associatedMasterId = m004;
background = {
shapes = (
{
pos = (30,0);
ref = H;
}
);
};
layerId = "9377021C-F378-4252-9BAA-575D9E95E407";
name = "SemiExpanded Thin";
shapes = (
{
closed = 1;
nodes = (
(418,0,ls),
(573,0,o),
(660,80,o),
(660,221,cs),
(660,362,o),
(573,442,o),
(418,442,cs),
(212,442,l),
(212,762,l),
(630,762,l),
(630,800,l),
(170,800,l),
(170,0,l)
);
},
{
closed = 1;
nodes = (
(212,406,l),
(422,406,ls),
(547,406,o),
(618,340,o),
(618,222,cs),
(618,104,o),
(547,38,o),
(422,38,cs),
(212,38,l)
);
}
);
width = 750;
}
);
unicode = 1041;
},
{
glyphname = "Ge-cy";
lastChange = "2024-10-19 15:55:13 +0000";
layers = (
{
layerId = m003;
shapes = (
{
closed = 1;
nodes = (
(90,0,l),
(180,0,l),
(180,610,l),
(515,610,l),
(515,700,l),
(90,700,l)
);
}
);
width = 600;
},
{
layerId = m002;
shapes = (
{
closed = 1;
nodes = (
(80,0,l),
(230,0,l),
(230,550,l),
(525,550,l),
(525,700,l),
(80,700,l)
);
}
);
width = 600;
},
{
layerId = m004;
shapes = (
{
closed = 1;
nodes = (
(100,0,l),
(140,0,l),
(140,660,l),
(515,660,l),
(515,700,l),
(100,700,l)
);
}
);
width = 600;
}
);
unicode = 1043;
},
{
glyphname = "Geupturn-cy";
lastChange = "2024-10-19 16:09:20 +0000";
layers = (
{
layerId = m003;
shapes = (
{
closed = 1;
nodes = (
(90,0,l),
(180,0,l),
(180,610,l),
(515,610,l),
(515,800,l),
(425,800,l),
(445,700,l),
(90,700,l)
);
}
);
width = 600;
},
{
background = {
shapes = (
{
ref = "Ge-cy";
}
);
};
layerId = m002;
shapes = (
{
closed = 1;
nodes = (
(80,0,l),
(230,0,l),
(230,550,l),
(525,550,l),
(525,800,l),
(365,800,l),
(405,700,l),
(80,700,l)
);
}
);
width = 600;
},
{
layerId = m004;
shapes = (
{
closed = 1;
nodes = (
(100,0,l),
(140,0,l),
(140,660,l),
(515,660,l),
(515,800,l),
(465,800,l),
(485,700,l),
(100,700,l)
);
}
);
width = 600;
}
);
unicode = 1168;
},
{
glyphname = "De-cy";
lastChange = "2024-10-25 18:27:36 +0000";
layers = (
{
layerId = m003;
shapes = (
{
closed = 1;
nodes = (
(115,0,l),
(485,0,l),
(485,-143,l),
(575,-143,l),
(575,90,l),
(500,90,l),
(500,700,l),
(179,700,l),
(135,173,ls),
(130,116,o),
(109,90,o),
(52,90,cs),
(25,90,l),
(25,-143,l),
(115,-143,l)
);
},
{
closed = 1;
nodes = (
(172,130,l),
(222,144,l),
(256,610,l),
(410,610,l),
(410,90,l),
(172,90,l)
);
}
);
width = 600;
},
{
layerId = m002;
shapes = (
{
closed = 1;
nodes = (
(165,0,l),
(435,0,l),
(435,-143,l),
(585,-143,l),
(585,150,l),
(510,150,l),
(510,700,l),
(163,700,l),
(125,233,ls),
(120,176,o),
(109,150,o),
(52,150,cs),
(15,150,l),
(15,-143,l),
(165,-143,l)
);
},
{
closed = 1;
nodes = (
(212,190,l),
(282,224,l),
(300,580,l),
(360,580,l),
(360,150,l),
(212,150,l)
);
}
);
width = 600;
},
{
layerId = m004;
shapes = (
{
closed = 1;
nodes = (
(65,0,l),
(535,0,l),
(535,-143,l),
(575,-143,l),
(575,40,l),
(490,40,l),
(490,700,l),
(199,700,l),
(157,156,ls),
(153,99,o),
(129,40,o),
(62,40,cs),
(25,40,l),
(25,-143,l),
(65,-143,l)
);
},
{
closed = 1;
nodes = (
(162,70,l),
(192,94,l),
(236,660,l),
(450,660,l),
(450,40,l),
(162,40,l)
);
}
);
width = 600;
}
);
unicode = 1044;
},
{
glyphname = "Zhe-cy";
lastChange = "2024-11-10 02:06:10 +0000";
layers = (
{
layerId = m003;
shapes = (
{
closed = 1;
nodes = (
(255,552,l),
(270,378,l),
(230,378,l),
(220,472,l),
(133,700,l),
(35,700,l),
(179,350,l),
(35,0,l),
(133,0,l),
(220,228,l),
(230,322,l),
(270,322,l),
(255,148,l),
(255,0,l),
(345,0,l),
(345,148,l),
(330,322,l),
(370,322,l),
(380,228,l),
(467,0,l),
(565,0,l),
(421,350,l),
(565,700,l),
(467,700,l),
(380,472,l),
(370,378,l),
(330,378,l),
(345,552,l),
(345,700,l),
(255,700,l)
);
}
);
width = 600;
},
{
layerId = m002;
shapes = (
{
closed = 1;
nodes = (
(225,652,l),
(260,423,l),
(220,423,l),
(202,573,l),
(183,700,l),
(25,700,l),
(159,350,l),
(25,0,l),
(183,0,l),
(202,128,l),
(220,277,l),
(260,277,l),
(225,48,l),
(225,0,l),
(375,0,l),
(375,48,l),
(340,277,l),
(380,277,l),
(400,128,l),
(417,0,l),
(575,0,l),
(441,350,l),
(575,700,l),
(417,700,l),
(400,573,l),
(380,423,l),
(340,423,l),
(375,652,l),
(375,700,l),
(225,700,l)
);
}
);
width = 600;
},
{
layerId = m004;
shapes = (
{
closed = 1;
nodes = (
(280,502,l),
(285,368,l),
(255,368,l),
(205,472,l),
(83,700,l),
(35,700,l),
(234,350,l),
(35,0,l),
(83,0,l),
(205,228,l),
(255,332,l),
(285,332,l),
(280,198,l),
(280,0,l),
(320,0,l),
(320,198,l),
(315,332,l),
(345,332,l),
(395,228,l),
(517,0,l),
(565,0,l),
(366,350,l),
(565,700,l),
(517,700,l),
(395,472,l),
(345,368,l),
(315,368,l),
(320,502,l),
(320,700,l),
(280,700,l)
);
}
);
width = 600;
}
);
unicode = 1046;
},
{
glyphname = "Ze-cy";
lastChange = "2024-11-10 02:05:20 +0000";
layers = (
{
layerId = m003;
shapes = (
{
closed = 1;
nodes = (
(415,-10,o),
(515,57,o),
(515,192,cs),
(515,317,o),
(426,353,o),
(378,353,c),
(378,393,l),
(440,397,o),
(500,449,o),
(500,529,cs),
(500,647,o),
(402,715,o),
(305,716,cs),
(174,717,o),
(93,628,o),
(93,505,c),
(183,505,l),
(183,580,o),
(226,627,o),
(303,626,cs),
(358,625,o),
(410,591,o),
(410,529,cs),
(410,453,o),
(366,418,o),
(285,418,cs),
(249,418,l),
(249,328,l),
(285,328,ls),
(394,328,o),
(425,256,o),
(425,192,cs),
(425,113,o),
(371,80,o),
(306,78,cs),
(238,77,o),
(170,113,o),
(170,208,c),
(80,208,l),
(80,58,o),
(194,-14,o),
(308,-12,cs)
);
}
);
width = 600;
},
{
layerId = m002;
shapes = (
{
closed = 1;
nodes = (
(415,-10,o),
(525,57,o),
(525,192,cs),
(525,315,o),
(436,347,o),
(398,353,c),
(398,393,l),
(436,403,o),
(510,439,o),
(510,529,cs),
(510,647,o),
(402,715,o),
(305,716,cs),
(174,717,o),
(83,632,o),
(83,495,c),
(233,495,l),
(233,536,o),
(255,568,o),
(303,566,cs),
(337,565,o),
(360,544,o),
(360,512,cs),
(360,462,o),
(327,448,o),
(285,448,cs),
(249,448,l),
(249,298,l),
(285,298,ls),
(342,298,o),
(375,272,o),
(375,212,cs),
(375,163,o),
(344,140,o),
(306,138,cs),
(273,136,o),
(220,153,o),
(220,218,c),
(70,218,l),
(70,55,o),
(194,-14,o),
(308,-12,cs)
);
}
);
width = 600;
},
{
layerId = m004;
shapes = (
{
closed = 1;
nodes = (
(415,-10,o),
(505,57,o),
(505,192,cs),
(505,317,o),
(426,358,o),
(378,358,c),
(378,388,l),
(440,392,o),
(490,449,o),
(490,529,cs),
(490,647,o),
(402,715,o),
(305,716,cs),
(174,717,o),
(103,628,o),
(103,505,c),
(143,505,l),
(143,610,o),
(196,677,o),
(303,676,cs),
(388,675,o),
(450,621,o),
(450,529,cs),
(450,453,o),
(406,393,o),
(285,393,cs),
(249,393,l),
(249,353,l),
(285,353,ls),
(434,353,o),
(465,256,o),
(465,192,cs),
(465,93,o),
(401,29,o),
(306,28,cs),
(218,27,o),
(130,83,o),
(130,208,c),
(90,208,l),
(90,58,o),
(194,-14,o),
(308,-12,cs)
);
}
);
width = 600;
}
);
unicode = 1047;
},
{
glyphname = "El-cy";
lastChange = "2024-10-19 16:25:00 +0000";
layers = (
{
background = {
shapes = (
{
ref = "De-cy";
}
);
};
layerId = m003;
shapes = (
{
closed = 1;
nodes = (
(225.683,0,o),
(261,115,o),
(271.709,209.89,cs),
(317.176,610,l),
(450,610,l),
(450,0,l),
(540,0,l),
(540,700,l),
(236.824,700,l),
(182.291,220.11,ls),
(173,141,o),
(153.917,90,o),
(35,90,c),
(35,0,l)
);
}
);
width = 600;
},
{
layerId = m002;
shapes = (
{
closed = 1;
nodes = (
(213,0,o),
(279,87,o),
(292,210,cs),
(329,550,l),
(400,550,l),
(400,0,l),
(550,0,l),
(550,700,l),
(197,700,l),
(145,242,ls),
(140,199,o),
(132,150,o),
(25,150,c),
(25,0,l)
);
}
);
width = 600;
},
{
layerId = m004;
shapes = (
{
closed = 1;
nodes = (
(225.683,0,o),
(221,115,o),
(232,210,cs),
(282,660,l),
(490,660,l),
(490,0,l),
(530,0,l),
(530,700,l),
(247,700,l),
(192,220,ls),
(178,101,o),
(174,40,o),
(35,40,c),
(35,0,l)
);
}
);
width = 600;
}
);
unicode = 1051;
},
{
glyphname = "Pe-cy";
lastChange = "2024-10-19 16:26:30 +0000";
layers = (
{
background = {
shapes = (
{
ref = "En-cy";
}
);
};
layerId = m003;
shapes = (
{
closed = 1;
nodes = (
(170,0,l),
(170,610,l),
(430,610,l),
(430,0,l),
(520,0,l),
(520,700,l),
(80,700,l),
(80,0,l)
);
}
);
width = 600;
},
{
background = {
shapes = (
{
ref = "En-cy";
}
);
};
layerId = m002;
shapes = (
{
closed = 1;
nodes = (
(220,0,l),
(220,550,l),
(380,550,l),
(380,0,l),
(530,0,l),
(530,700,l),
(70,700,l),
(70,0,l)
);
}
);
width = 600;
},
{
background = {
shapes = (
{
ref = "En-cy";
}
);
};
layerId = m004;
shapes = (
{
closed = 1;
nodes = (
(130,0,l),
(130,660,l),
(470,660,l),
(470,0,l),
(510,0,l),
(510,700,l),
(90,700,l),
(90,0,l)
);
}
);
width = 600;
}
);
unicode = 1055;
},
{
glyphname = "U-cy";
lastChange = "2024-10-25 18:28:26 +0000";
layers = (
{
anchors = (
{
name = top;
pos = (305,700);
}
);
layerId = m003;
shapes = (
{
closed = 1;
nodes = (
(81,37,o),
(153,-12,o),
(225,-12,cs),
(288,-12,o),
(349,12,o),
(371,90,cs),
(545,700,l),
(453,700,l),
(332,282,l),
(292,282,l),
(307,343,l),
(165,700,l),
(70,700,l),
(254,212,l),
(313,212,l),
(287,119,ls),
(279,92,o),
(257,78,o),
(228,78,cs),
(198,78,o),
(167,94,o),
(162,142,c),
(72,142,l)
);
}
);
width = 600;
},
{
anchors = (
{
name = top;
pos = (305,700);
}
);
layerId = m002;
shapes = (
{
closed = 1;
nodes = (
(68,34,o),
(153,-12,o),
(225,-12,cs),
(288,-12,o),
(356,3,o),
(381,90,cs),
(555,700,l),
(399,700,l),
(289,332,l),
(249,332,l),
(286,450,l),
(184,700,l),
(29,700,l),
(184,212,l),
(260,212,l),
(244,155,ls),
(242,148,o),
(238,138,o),
(226,138,cs),
(214,138,o),
(212,145,o),
(212,152,c),
(62,152,l)
);
}
);
width = 600;
},
{
anchors = (
{
name = top;
pos = (305,700);
}
);
layerId = m004;
shapes = (
{
closed = 1;
nodes = (
(101,37,o),
(153,-12,o),
(225,-12,cs),
(288,-12,o),
(339,12,o),
(361,90,cs),
(535,700,l),
(493,700,l),
(363,242,l),
(331,242,l),
(298,365,l),
(166,700,l),
(121,700,l),
(315,212,l),
(353,212,l),
(327,119,ls),
(309,56,o),
(287,28,o),
(228,28,cs),
(178,28,o),
(137,64,o),
(132,142,c),
(92,142,l)
);
}
);
width = 600;
}
);
unicode = 1059;
},
{
glyphname = "Ef-cy";
lastChange = "2024-11-10 12:23:24 +0000";
layers = (
{
layerId = m003;
shapes = (
{
closed = 1;
nodes = (
(136,161,o),
(110,251,o),
(110,379,cs),
(110,506,o),
(135,596,o),
(179,596,cs),
(221,596,o),
(239,506,o),
(239,379,cs),
(239,251,o),
(220,161,o),
(179,161,cs)
);
},
{
closed = 1;
nodes = (
(206,72,o),
(225,107,o),
(243,158,c),
(283,158,l),
(255,70,l),
(255,0,l),
(345,0,l),
(345,70,l),
(317,158,l),
(357,158,l),
(375,107,o),
(394,72,o),
(441,71,cs),
(545,71,o),
(580,205,o),
(580,379,cs),
(580,553,o),
(545,686,o),
(441,686,cs),
(394,685,o),
(363,643,o),
(357,589,c),
(317,589,l),
(345,674,l),
(345,716,l),
(255,716,l),
(255,674,l),
(283,589,l),
(243,589,l),
(237,643,o),
(206,685,o),
(159,686,cs),
(55,686,o),
(20,553,o),
(20,379,cs),
(20,205,o),
(55,71,o),
(159,71,cs)
);
},
{
closed = 1;
nodes = (
(380,161,o),
(361,251,o),
(361,379,cs),
(361,506,o),
(379,596,o),
(421,596,cs),
(465,596,o),
(490,506,o),
(490,379,cs),
(490,251,o),
(464,161,o),
(421,161,cs)
);
}
);
width = 600;
},
{
layerId = m002;
shapes = (
{
closed = 1;
nodes = (
(163,211,o),
(160,271,o),
(160,379,cs),
(160,486,o),
(162,536,o),
(189,536,cs),
(217,536,o),
(219,486,o),
(219,379,cs),
(219,271,o),
(216,211,o),
(189,211,cs)
);
},
{
closed = 1;
nodes = (
(196,62,o),
(230,112,o),
(228,123,c),
(268,123,l),
(225,40,l),
(225,0,l),
(375,0,l),
(375,40,l),
(332,123,l),
(372,123,l),
(370,112,o),
(404,62,o),
(451,61,cs),
(555,61,o),
(590,195,o),
(590,379,cs),
(590,563,o),
(555,688,o),
(451,686,cs),
(404,685,o),
(378,648,o),
(372,624,c),
(332,624,l),
(375,704,l),
(375,716,l),
(225,716,l),
(225,704,l),
(268,624,l),
(228,624,l),
(222,648,o),
(196,685,o),
(149,686,cs),
(45,686,o),
(10,563,o),
(10,379,cs),
(10,195,o),
(45,61,o),
(149,61,cs)
);
},
{
closed = 1;
nodes = (
(384,211,o),
(381,271,o),
(381,379,cs),
(381,486,o),
(383,536,o),
(411,536,cs),
(439,536,o),
(440,486,o),
(440,379,cs),
(440,271,o),
(438,211,o),
(411,211,cs)
);
}
);
width = 600;
},
{
layerId = m004;
shapes = (
{
closed = 1;
nodes = (
(102,111,o),
(70,221,o),
(70,379,cs),
(70,536,o),
(102,646,o),
(179,646,cs),
(251,646,o),
(279,496,o),
(279,379,cs),
(279,261,o),
(250,111,o),
(179,111,cs)
);
},
{
closed = 1;
nodes = (
(216,72,o),
(255,117,o),
(263,158,c),
(293,158,l),
(280,70,l),
(280,0,l),
(320,0,l),
(320,70,l),
(307,158,l),
(337,158,l),
(345,117,o),
(384,72,o),
(431,71,cs),
(535,71,o),
(570,205,o),
(570,379,cs),
(570,553,o),
(535,686,o),
(431,686,cs),
(384,685,o),
(343,643,o),
(337,589,c),
(307,589,l),
(320,674,l),
(320,716,l),
(280,716,l),
(280,674,l),
(293,589,l),
(263,589,l),
(257,643,o),
(216,685,o),
(169,686,cs),
(65,686,o),
(30,553,o),
(30,379,cs),
(30,205,o),
(65,71,o),
(169,71,cs)
);
},
{
closed = 1;
nodes = (
(350,111,o),
(321,261,o),
(321,379,cs),
(321,496,o),
(349,646,o),
(421,646,cs),
(504,646,o),
(530,536,o),
(530,379,cs),
(530,221,o),
(504,111,o),
(421,111,cs)
);
}
);
width = 600;
}
);
unicode = 1060;
},
{
glyphname = "Che-cy";
lastChange = "2024-10-25 18:28:53 +0000";
layers = (
{
layerId = m003;
shapes = (
{
closed = 1;
nodes = (
(507,700,l),
(417,700,l),
(417,448,ls),
(417,362,o),
(372,309,o),
(298,309,cs),
(224,309,o),
(187,343,o),
(187,418,cs),
(187,700,l),
(97,700,l),
(97,418,ls),
(97,293,o),
(154,219,o),
(278,219,cs),
(358,219,o),
(402,269,o),
(425,325,c),
(465,325,l),
(417,139,l),
(417,0,l),
(507,0,l)
);
}
);
width = 600;
},
{
layerId = m002;
shapes = (
{
closed = 1;
nodes = (
(517,700,l),
(367,700,l),
(367,457,ls),
(367,401,o),
(356,359,o),
(302,359,cs),
(258,359,o),
(237,381,o),
(237,437,cs),
(237,700,l),
(87,700,l),
(87,418,ls),
(87,293,o),
(154,209,o),
(278,209,cs),
(348,209,o),
(389,254,o),
(403,305,c),
(443,305,l),
(367,129,l),
(367,0,l),
(517,0,l)
);
}
);
width = 600;
},
{
layerId = m004;
shapes = (
{
closed = 1;
nodes = (
(497,700,l),
(457,700,l),
(457,448,ls),
(457,342,o),
(382,259,o),
(298,259,cs),
(214,259,o),
(147,283,o),
(147,418,cs),
(147,700,l),
(107,700,l),
(107,418,ls),
(107,293,o),
(154,219,o),
(278,219,cs),
(358,219,o),
(419,269,o),
(442,325,c),
(472,325,l),
(457,169,l),
(457,0,l),
(497,0,l)
);
}
);
width = 600;
}
);
unicode = 1063;
},
{
glyphname = "Tse-cy";
lastChange = "2024-10-20 13:50:08 +0000";
layers = (
{
layerId = m003;
shapes = (
{
closed = 1;
nodes = (
(390,700,l),
(390,90,l),
(130,90,l),
(130,700,l),
(40,700,l),
(40,0,l),
(502,0,l),
(440,-127,l),
(550,-127,l),
(580,90,l),
(480,90,l),
(480,700,l)
);
}
);
width = 600;
},
{
layerId = m002;
shapes = (
{
closed = 1;
nodes = (
(340,700,l),
(340,150,l),
(180,150,l),
(180,700,l),
(30,700,l),
(30,0,l),
(478,0,l),
(400,-127,l),
(550,-127,l),
(580,150,l),
(490,150,l),
(490,700,l)
);
}
);
width = 600;
},
{
layerId = m004;
shapes = (
{
closed = 1;
nodes = (
(430,700,l),
(430,40,l),
(90,40,l),
(90,700,l),
(50,700,l),
(50,0,l),
(532,0,l),
(500,-127,l),
(540,-127,l),
(565,40,l),
(470,40,l),
(470,700,l)
);
}
);
width = 600;
}
);
unicode = 1062;
},
{
glyphname = "Sha-cy";
lastChange = "2024-10-20 03:37:31 +0000";
layers = (
{
background = {
shapes = (
{
ref = "sha-cy";
}
);
};
layerId = m003;
shapes = (
{
closed = 1;
nodes = (
(255,700,l),
(255,90,l),
(135,90,l),
(135,700,l),
(45,700,l),
(45,0,l),
(555,0,l),
(555,700,l),
(465,700,l),
(465,90,l),
(345,90,l),
(345,700,l)
);
}
);
width = 600;
},
{
layerId = m002;
shapes = (
{
closed = 1;
nodes = (
(226,700,l),
(226,150,l),
(176,150,l),
(176,700,l),
(35,700,l),
(35,0,l),
(565,0,l),
(565,700,l),
(424,700,l),
(424,150,l),
(374,150,l),
(374,700,l)
);
}
);
width = 600;
},
{
background = {
shapes = (
{
ref = "sha-cy";
}
);
};
layerId = m004;
shapes = (
{
closed = 1;
nodes = (
(280,700,l),
(280,40,l),
(95,40,l),
(95,700,l),
(55,700,l),
(55,0,l),
(545,0,l),
(545,700,l),
(505,700,l),
(505,40,l),
(320,40,l),
(320,700,l)
);
}
);
width = 600;
}
);
unicode = 1064;
},
{
glyphname = "Shcha-cy";
lastChange = "2024-10-20 03:37:47 +0000";
layers = (
{
layerId = m003;
shapes = (
{
closed = 1;
nodes = (
(512,0,l),
(450,-127,l),
(560,-127,l),
(590,90,l),
(490,90,l),
(490,700,l),
(400,700,l),
(400,90,l),
(305,90,l),
(305,700,l),
(215,700,l),
(215,90,l),
(120,90,l),
(120,700,l),
(30,700,l),
(30,0,l)
);
}
);
width = 600;
},
{
layerId = m002;
shapes = (
{
closed = 1;
nodes = (
(452,0,l),
(380,-127,l),
(560,-127,l),
(590,150,l),
(546,150,l),
(546,700,l),
(404,700,l),
(404,150,l),
(354,150,l),
(354,700,l),
(212,700,l),
(212,150,l),
(162,150,l),
(162,700,l),
(20,700,l),
(20,0,l)
);
}
);
width = 600;
},
{
layerId = m004;
shapes = (
{
closed = 1;
nodes = (
(547,0,l),
(510,-127,l),
(550,-127,l),
(580,40,l),
(480,40,l),
(480,700,l),
(440,700,l),
(440,40,l),
(280,40,l),
(280,700,l),
(240,700,l),
(240,40,l),
(80,40,l),
(80,700,l),
(40,700,l),
(40,0,l)
);
}
);
width = 600;
}
);
unicode = 1065;
},
{
glyphname = "Softsign-cy";
lastChange = "2024-10-20 02:59:49 +0000";
layers = (
{
layerId = m003;
shapes = (
{
closed = 1;
nodes = (
(180,337,l),
(297,337,ls),
(388,337,o),
(443,296,o),
(443,216,cs),
(443,129,o),
(389,90,o),
(297,90,cs),
(180,90,l)
);
},
{
closed = 1;
nodes = (
(533,308,o),
(481,427,o),
(293,427,cs),
(180,427,l),
(180,700,l),
(90,700,l),
(90,0,l),
(300,0,ls),
(440,0,o),
(533,68,o),
(533,209,cs)
);
}
);
width = 600;
},
{
layerId = m002;
shapes = (
{
closed = 1;
nodes = (
(230,287,l),
(305,287,ls),
(367,287,o),
(393,265,o),
(393,221,cs),
(393,174,o),
(368,150,o),
(305,150,cs),
(230,150,l)
);
},
{
closed = 1;
nodes = (
(543,318,o),
(485,437,o),
(293,437,cs),
(230,437,l),
(230,700,l),
(80,700,l),
(80,0,l),
(300,0,ls),
(440,0,o),
(543,68,o),
(543,219,cs)
);
}
);
width = 600;
},
{
layerId = m004;
shapes = (
{
closed = 1;
nodes = (
(140,387,l),
(297,387,ls),
(418,387,o),
(483,326,o),
(483,216,cs),
(483,99,o),
(419,40,o),
(297,40,cs),
(140,40,l)
);
},
{
closed = 1;
nodes = (
(523,308,o),
(481,427,o),
(293,427,cs),
(140,427,l),
(140,700,l),
(100,700,l),
(100,0,l),
(300,0,ls),
(440,0,o),
(523,68,o),
(523,209,cs)
);
}
);
width = 600;
}
);
unicode = 1068;
},
{
glyphname = "Yeru-cy";
lastChange = "2024-10-25 18:29:23 +0000";
layers = (
{
layerId = m003;
shapes = (
{
closed = 1;
nodes = (
(485,0,l),
(575,0,l),
(575,700,l),
(485,700,l)
);
},
{
closed = 1;
nodes = (
(115,337,l),
(184,337,ls),
(275,337,o),
(320,296,o),
(320,216,cs),
(320,129,o),
(276,90,o),
(184,90,cs),
(115,90,l)
);
},
{
closed = 1;
nodes = (
(410,308,o),
(368,427,o),
(180,427,cs),
(115,427,l),
(115,700,l),
(25,700,l),
(25,0,l),
(187,0,ls),
(327,0,o),
(410,68,o),
(410,209,cs)
);
}
);
width = 600;
},
{
layerId = m002;
shapes = (
{
closed = 1;
nodes = (
(435,0,l),
(585,0,l),
(585,700,l),
(435,700,l)
);
},
{
closed = 1;
nodes = (
(165,287,l),
(196,287,ls),
(237,287,o),
(245,259,o),
(245,219,cs),
(245,173,o),
(238,150,o),
(196,150,cs),
(165,150,l)
);
},
{
closed = 1;
nodes = (
(395,318,o),
(376,437,o),
(188,437,cs),
(165,437,l),
(165,700,l),
(15,700,l),
(15,0,l),
(195,0,ls),
(335,0,o),
(395,68,o),
(395,219,cs)
);
}
);
width = 600;
},
{
layerId = m004;
shapes = (
{
closed = 1;
nodes = (
(515,0,l),
(555,0,l),
(555,700,l),
(515,700,l)
);
},
{
closed = 1;
nodes = (
(85,387,l),
(194,387,ls),
(315,387,o),
(370,326,o),
(370,216,cs),
(370,99,o),
(316,40,o),
(194,40,cs),
(85,40,l)
);
},
{
closed = 1;
nodes = (
(410,308,o),
(378,427,o),
(190,427,cs),
(85,427,l),
(85,700,l),
(45,700,l),
(45,0,l),
(197,0,ls),
(337,0,o),
(410,68,o),
(410,209,cs)
);
}
);
width = 600;
}
);
unicode = 1067;
},
{
glyphname = "Hardsign-cy";
lastChange = "2024-10-20 03:38:10 +0000";
layers = (
{
anchors = (
{
name = "new anchor";
pos = (110,700);
}
);
layerId = m003;
shapes = (
{
alignment = -1;
pos = (20,0);
ref = "Softsign-cy";
},
{
closed = 1;
nodes = (
(110,630,l),
(120,663,l),
(110,700,l),
(10,700,l),
(10,610,l)
);
}
);
width = 600;
},
{
anchors = (
{
name = "new anchor";
pos = (110,700);
}
);
layerId = m002;
shapes = (
{
alignment = -1;
pos = (20,0);
ref = "Softsign-cy";
},
{
closed = 1;
nodes = (
(110,583,l),
(120,638,l),
(110,700,l),
(10,700,l),
(10,550,l)
);
}
);
width = 600;
},
{
anchors = (
{
name = "new anchor";
pos = (110,700);
}
);
layerId = m004;
shapes = (
{
alignment = -1;
pos = (20,0);
ref = "Softsign-cy";
},
{
closed = 1;
nodes = (
(120,669,l),
(130,684,l),
(120,700,l),
(10,700,l),
(10,660,l)
);
}
);
width = 600;
}
);
unicode = 1066;
},
{
glyphname = "E-cy";
lastChange = "2024-10-20 11:30:49 +0000";
layers = (
{
anchors = (
{
name = bottom;
pos = (300,0);
},
{
name = top;
pos = (300,710);
}
);
background = {
shapes = (
{
ref = "Es-cy";
}
);
};
layerId = m003;
shapes = (
{
ref = C;
},
{
closed = 1;
nodes = (
(134,358,l),
(153,313,l),
(344,313,l),
(344,403,l),
(154,403,l)
);
}
);
width = 600;
},
{
anchors = (
{
name = bottom;
pos = (300,0);
},
{
name = top;
pos = (300,710);
}
);
background = {
shapes = (
{
ref = "Es-cy";
}
);
};
layerId = m002;
shapes = (
{
ref = C;
},
{
closed = 1;
nodes = (
(144,358,l),
(163,283,l),
(344,283,l),
(344,433,l),
(164,433,l)
);
}
);
width = 600;
},
{
anchors = (
{
name = bottom;
pos = (300,0);
},
{
name = top;
pos = (300,710);
}
);
layerId = m004;
shapes = (
{
ref = C;
},
{
closed = 1;
nodes = (
(109,358,l),
(122,338,l),
(364,338,l),
(364,378,l),
(123,378,l)
);
}
);
width = 600;
}
);
unicode = 1028;
},
{
glyphname = "Yu-cy";
lastChange = "2024-10-20 03:36:57 +0000";
layers = (
{
layerId = m003;
shapes = (
{
closed = 1;
nodes = (
(467,626,o),
(500,548,o),
(500,350,cs),
(500,162,o),
(467,78,o),
(394,78,cs),
(321,78,o),
(288,162,o),
(288,350,cs),
(288,548,o),
(321,626,o),
(394,626,cs)
);
},
{
closed = 1;
nodes = (
(238,716,o),
(198,578,o),
(198,350,cs),
(198,122,o),
(238,-12,o),
(394,-12,cs),
(540,-12,o),
(590,122,o),
(590,350,cs),
(590,578,o),
(540,716,o),
(394,716,cs)
);
},
{
closed = 1;
nodes = (
(25,0,l),
(115,0,l),
(115,711,l),
(25,711,l)
);
},
{
closed = 1;
nodes = (
(75,307,l),
(250,307,l),
(250,397,l),
(75,397,l)
);
}
);
width = 600;
},
{
layerId = m002;
shapes = (
{
closed = 1;
nodes = (
(437,566,o),
(440,508,o),
(440,350,cs),
(440,202,o),
(437,138,o),
(404,138,cs),
(371,138,o),
(368,202,o),
(368,350,cs),
(368,508,o),
(371,566,o),
(404,566,cs)
);
},
{
closed = 1;
nodes = (
(248,716,o),
(218,578,o),
(218,350,cs),
(218,122,o),
(248,-12,o),
(404,-12,cs),
(550,-12,o),
(590,122,o),
(590,350,cs),
(590,578,o),
(550,716,o),
(404,716,cs)
);
},
{
closed = 1;
nodes = (
(15,0,l),
(165,0,l),
(165,711,l),
(15,711,l)
);
},
{
closed = 1;
nodes = (
(75,277,l),
(250,277,l),
(250,427,l),
(75,427,l)
);
}
);
width = 600;
},
{
layerId = m004;
shapes = (
{
closed = 1;
nodes = (
(497,676,o),
(540,548,o),
(540,350,cs),
(540,162,o),
(497,28,o),
(394,28,cs),
(286,28,o),
(248,162,o),
(248,350,cs),
(248,548,o),
(286,676,o),
(394,676,cs)
);
},
{
closed = 1;
nodes = (
(258,716,o),
(208,578,o),
(208,350,cs),
(208,122,o),
(258,-12,o),
(394,-12,cs),
(520,-12,o),
(580,122,o),
(580,350,cs),
(580,578,o),
(520,716,o),
(394,716,cs)
);
},
{
closed = 1;
nodes = (
(35,0,l),
(75,0,l),
(75,711,l),
(35,711,l)
);
},
{
closed = 1;
nodes = (
(65,332,l),
(230,332,l),
(230,372,l),
(65,372,l)
);
}
);
width = 600;
}
);
unicode = 1070;
},
{
glyphname = "be-cy";
lastChange = "2024-10-25 18:58:09 +0000";
layers = (
{
background = {
shapes = (
{
ref = "en-cy";
}
);
};
layerId = m003;
shapes = (
{
closed = 1;
nodes = (
(228,82,o),
(167,153,o),
(167,246,cs),
(167,341,o),
(228,412,o),
(300,412,cs),
(371,412,o),
(430,341,o),
(430,246,cs),
(430,153,o),
(371,82,o),
(300,82,cs)
);
},
{
closed = 1;
nodes = (
(425,-8,o),
(520,97,o),
(520,246,cs),
(520,387,o),
(435,502,o),
(310,502,cs),
(256,502,o),
(205,466,o),
(186,421,c),
(143,421,l),
(170,507,o),
(239,534,o),
(305,562,cs),
(385,596,o),
(476,634,o),
(476,770,c),
(386,770,l),
(386,696,o),
(348,686,o),
(267,644,cs),
(95,555,o),
(75,393,o),
(75,276,cs),
(75,107,o),
(174,-8,o),
(300,-8,cs)
);
}
);
width = 600;
},
{
background = {
shapes = (
{
ref = "en-cy";
}
);
};
layerId = m002;
shapes = (
{
closed = 1;
nodes = (
(256,142,o),
(217,163,o),
(217,254,cs),
(217,343,o),
(256,362,o),
(298,362,cs),
(339,362,o),
(380,343,o),
(380,254,cs),
(380,163,o),
(339,142,o),
(298,142,cs)
);
},
{
closed = 1;
nodes = (
(425,-8,o),
(530,78,o),
(530,246,cs),
(530,410,o),
(445,512,o),
(320,512,cs),
(272,512,o),
(219,488,o),
(201,451,c),
(161,451,l),
(188,517,o),
(242,538,o),
(309,558,cs),
(393,583,o),
(506,634,o),
(506,770,c),
(356,770,l),
(356,718,o),
(332,705,o),
(245,658,cs),
(98,579,o),
(65,444,o),
(65,296,cs),
(65,88,o),
(174,-8,o),
(300,-8,cs)
);
}
);
width = 600;
},
{
background = {
shapes = (
{
ref = "en-cy";
}
);
};
layerId = m004;
shapes = (
{
closed = 1;
nodes = (
(208,32,o),
(127,113,o),
(127,246,cs),
(127,381,o),
(208,462,o),
(300,462,cs),
(401,462,o),
(470,381,o),
(470,246,cs),
(470,113,o),
(401,32,o),
(300,32,cs)
);
},
{
closed = 1;
nodes = (
(425,-8,o),
(510,97,o),
(510,246,cs),
(510,387,o),
(435,502,o),
(310,502,cs),
(236,502,o),
(192,466,o),
(163,421,c),
(123,421,l),
(154,531,o),
(218,564,o),
(275,592,cs),
(353,630,o),
(436,664,o),
(436,770,c),
(396,770,l),
(396,696,o),
(348,676,o),
(267,634,cs),
(95,545,o),
(85,393,o),
(85,276,cs),
(85,107,o),
(174,-8,o),
(300,-8,cs)
);
}
);
width = 600;
}
);
unicode = 1073;
},
{
glyphname = "ve-cy";
lastChange = "2024-11-09 23:47:47 +0000";
layers = (
{
layerId = m003;
shapes = (
{
closed = 1;
nodes = (
(321,0,ls),
(440,0,o),
(518,45,o),
(518,159,cs),
(518,251,o),
(434,269,o),
(382,269,c),
(382,309,l),
(445,310,o),
(486,345,o),
(486,403,cs),
(486,496,o),
(415,530,o),
(309,530,cs),
(82,530,l),
(82,0,l)
);
},
{
closed = 1;
nodes = (
(172,238,l),
(319,238,ls),
(391,238,o),
(428,218,o),
(428,165,cs),
(428,111,o),
(390,90,o),
(319,90,cs),
(172,90,l)
);
},
{
closed = 1;
nodes = (
(172,440,l),
(307,440,ls),
(370,440,o),
(396,425,o),
(396,385,cs),
(396,345,o),
(370,328,o),
(307,328,cs),
(172,328,l)
);
}
);
width = 600;
},
{
layerId = m002;
shapes = (
{
closed = 1;
nodes = (
(321,0,ls),
(440,0,o),
(528,38,o),
(528,156,cs),
(528,256,o),
(441,267,o),
(402,267,c),
(402,307,l),
(431,308,o),
(496,323,o),
(496,403,cs),
(496,496,o),
(415,530,o),
(309,530,cs),
(72,530,l),
(72,0,l)
);
},
{
closed = 1;
nodes = (
(222,235,l),
(299,235,ls),
(346,235,o),
(378,222,o),
(378,178,cs),
(378,131,o),
(345,120,o),
(299,120,cs),
(222,120,l)
);
},
{
closed = 1;
nodes = (
(222,410,l),
(287,410,ls),
(324,410,o),
(346,402,o),
(346,372,cs),
(346,342,o),
(324,333,o),
(287,333,cs),
(222,333,l)
);
}
);
width = 600;
},
{
layerId = m004;
shapes = (
{
closed = 1;
nodes = (
(321,0,ls),
(440,0,o),
(508,53,o),
(508,157,cs),
(508,237,o),
(461,276,o),
(392,276,c),
(392,306,l),
(442,307,o),
(476,355,o),
(476,405,cs),
(476,498,o),
(415,530,o),
(309,530,cs),
(92,530,l),
(92,0,l)
);
},
{
closed = 1;
nodes = (
(132,265,l),
(319,265,ls),
(421,265,o),
(468,239,o),
(468,158,cs),
(468,84,o),
(420,40,o),
(319,40,cs),
(132,40,l)
);
},
{
closed = 1;
nodes = (
(132,490,l),
(307,490,ls),
(400,490,o),
(436,472,o),
(436,402,cs),
(436,332,o),
(370,305,o),
(307,305,cs),
(132,305,l)
);
}
);
width = 600;
}
);
unicode = 1074;
},
{
glyphname = "ge-cy";
lastChange = "2024-11-09 23:49:40 +0000";
layers = (
{
anchors = (
{
name = "cir-streak-top";
pos = (520,552);
}
);
background = {
shapes = (
{
ref = "en-cy";
}
);
};
layerId = m003;
shapes = (
{
closed = 1;
nodes = (
(220,0,l),
(220,440,l),
(520,440,l),
(520,530,l),
(130,530,l),
(130,0,l)
);
}
);
width = 600;
},
{
anchors = (
{
name = "cir-streak-top";
pos = (530,552);
}
);
background = {
shapes = (
{
ref = "en-cy";
}
);
};
layerId = m002;
shapes = (
{
closed = 1;
nodes = (
(270,0,l),
(270,380,l),
(530,380,l),
(530,530,l),
(120,530,l),
(120,0,l)
);
}
);
width = 600;
},
{
anchors = (
{
name = "cir-streak-top";
pos = (520,552);
}
);
background = {
shapes = (
{
ref = "en-cy";
}
);
};
layerId = m004;
shapes = (
{
closed = 1;
nodes = (
(180,0,l),
(180,490,l),
(520,490,l),
(520,530,l),
(140,530,l),
(140,0,l)
);
}
);
width = 600;
}
);
unicode = 1075;
},
{
glyphname = "geupturn-cy";
lastChange = "2024-11-09 23:49:54 +0000";
layers = (
{
layerId = m003;
shapes = (
{
closed = 1;
nodes = (
(220,0,l),
(220,440,l),
(520,440,l),
(520,620,l),
(430,620,l),
(450,530,l),
(130,530,l),
(130,0,l)
);
}
);
width = 600;
},
{
layerId = m002;
shapes = (
{
closed = 1;
nodes = (
(280,0,l),
(280,380,l),
(520,380,l),
(520,620,l),
(370,620,l),
(414,530,l),
(130,530,l),
(130,0,l)
);
}
);
width = 600;
},
{
layerId = m004;
shapes = (
{
closed = 1;
nodes = (
(180,0,l),
(180,490,l),
(510,490,l),
(510,620,l),
(470,620,l),
(480,530,l),
(140,530,l),
(140,0,l)
);
}
);
width = 600;
}
);
unicode = 1169;
},
{
glyphname = "de-cy";
lastChange = "2024-11-09 23:50:03 +0000";
layers = (
{
background = {
shapes = (
{
ref = "en-cy";
}
);
};
layerId = m003;
shapes = (
{
closed = 1;
nodes = (
(115,0,l),
(485,0,l),
(485,-143,l),
(575,-143,l),
(575,90,l),
(500,90,l),
(500,530,l),
(192,530,l),
(135,173,ls),
(126,117,o),
(109,90,o),
(52,90,cs),
(25,90,l),
(25,-143,l),
(115,-143,l)
);
},
{
closed = 1;
nodes = (
(172,130,l),
(222,144,l),
(269,440,l),
(410,440,l),
(410,90,l),
(172,90,l)
);
}
);
width = 600;
},
{
background = {
shapes = (
{
ref = "en-cy";
}
);
};
layerId = m002;
shapes = (
{
closed = 1;
nodes = (
(165,0,l),
(435,0,l),
(435,-143,l),
(585,-143,l),
(585,150,l),
(520,150,l),
(520,530,l),
(182,530,l),
(129,227,ls),
(119,171,o),
(109,150,o),
(52,150,cs),
(15,150,l),
(15,-143,l),
(165,-143,l)
);
},
{
closed = 1;
nodes = (
(227,190,l),
(282,204,l),
(306,380,l),
(370,380,l),
(370,150,l),
(227,150,l)
);
}
);
width = 600;
},
{
layerId = m004;
shapes = (
{
closed = 1;
nodes = (
(75,0,l),
(525,0,l),
(525,-143,l),
(565,-143,l),
(565,40,l),
(490,40,l),
(490,530,l),
(202,530,l),
(144,113,ls),
(136,57,o),
(131,40,o),
(74,40,cs),
(35,40,l),
(35,-143,l),
(75,-143,l)
);
},
{
closed = 1;
nodes = (
(157,70,l),
(182,94,l),
(239,490,l),
(450,490,l),
(450,40,l),
(157,40,l)
);
}
);
width = 600;
}
);
unicode = 1076;
},
{
glyphname = "zhe-cy";
lastChange = "2024-11-09 23:50:29 +0000";
layers = (
{
layerId = m003;
shapes = (
{
closed = 1;
nodes = (
(255,422,l),
(270,290,l),
(230,290,l),
(220,357,l),
(133,530,l),
(35,530,l),
(179,265,l),
(35,0,l),
(133,0,l),
(220,173,l),
(230,240,l),
(270,240,l),
(255,108,l),
(255,0,l),
(345,0,l),
(345,108,l),
(330,240,l),
(370,240,l),
(380,173,l),
(467,0,l),
(565,0,l),
(421,265,l),
(565,530,l),
(467,530,l),
(380,357,l),
(370,290,l),
(330,290,l),
(345,422,l),
(345,530,l),
(255,530,l)
);
}
);
width = 600;
},
{
layerId = m002;
shapes = (
{
closed = 1;
nodes = (
(236,442,l),
(258,318,l),
(208,318,l),
(196,434,l),
(183,530,l),
(25,530,l),
(149,265,l),
(25,0,l),
(183,0,l),
(197,96,l),
(208,212,l),
(258,212,l),
(236,88,l),
(225,0,l),
(375,0,l),
(364,88,l),
(342,212,l),
(392,212,l),
(404,96,l),
(417,0,l),
(575,0,l),
(451,265,l),
(575,530,l),
(417,530,l),
(403,434,l),
(392,318,l),
(342,318,l),
(364,442,l),
(375,530,l),
(225,530,l)
);
}
);
width = 600;
},
{
layerId = m004;
shapes = (
{
closed = 1;
nodes = (
(280,422,l),
(287,281,l),
(260,281,l),
(220,357,l),
(103,530,l),
(55,530,l),
(241,265,l),
(55,0,l),
(103,0,l),
(220,173,l),
(260,249,l),
(287,249,l),
(280,108,l),
(280,0,l),
(320,0,l),
(320,108,l),
(313,249,l),
(340,249,l),
(380,173,l),
(497,0,l),
(545,0,l),
(359,265,l),
(545,530,l),
(497,530,l),
(380,357,l),
(340,281,l),
(313,281,l),
(320,422,l),
(320,530,l),
(280,530,l)
);
}
);
width = 600;
}
);
unicode = 1078;
},
{
glyphname = "ze-cy";
lastChange = "2024-10-25 22:39:57 +0000";
layers = (
{
background = {
shapes = (
{
ref = "en-cy";
}
);
};
layerId = m003;
shapes = (
{
closed = 1;
nodes = (
(419,-18,o),
(517,45,o),
(517,159,cs),
(517,230,o),
(465,267,o),
(403,273,c),
(403,313,l),
(444,318,o),
(502,343,o),
(502,411,cs),
(502,528,o),
(385,557,o),
(299,557,cs),
(191,557,o),
(91,506,o),
(91,385,c),
(181,385,l),
(181,443,o),
(228,467,o),
(299,467,cs),
(362,467,o),
(412,449,o),
(412,405,cs),
(412,361,o),
(372,333,o),
(294,333,cs),
(264,333,l),
(264,242,l),
(311,242,ls),
(382,242,o),
(427,221,o),
(427,159,cs),
(427,104,o),
(378,72,o),
(301,72,cs),
(221,72,o),
(172,97,o),
(172,158,c),
(82,158,l),
(82,33,o),
(187,-18,o),
(301,-18,cs)
);
}
);
width = 600;
},
{
background = {
shapes = (
{
ref = "en-cy";
}
);
};
layerId = m002;
shapes = (
{
closed = 1;
nodes = (
(422,-18,o),
(527,41,o),
(527,158,cs),
(527,239,o),
(465,267,o),
(403,273,c),
(403,313,l),
(444,318,o),
(512,333,o),
(512,411,cs),
(512,528,o),
(395,557,o),
(299,557,cs),
(191,557,o),
(81,506,o),
(81,375,c),
(231,375,l),
(231,401,o),
(259,407,o),
(299,407,cs),
(332,407,o),
(362,403,o),
(362,382,cs),
(362,361,o),
(346,353,o),
(294,353,cs),
(254,353,l),
(254,222,l),
(311,222,ls),
(359,222,o),
(377,206,o),
(377,176,cs),
(377,141,o),
(348,132,o),
(301,132,cs),
(261,132,o),
(222,131,o),
(222,168,c),
(72,168,l),
(72,33,o),
(187,-18,o),
(301,-18,cs)
);
}
);
width = 600;
},
{
background = {
shapes = (
{
ref = "en-cy";
}
);
};
layerId = m004;
shapes = (
{
closed = 1;
nodes = (
(419,-18,o),
(507,45,o),
(507,159,cs),
(507,230,o),
(465,272,o),
(403,278,c),
(403,308,l),
(435,315,o),
(492,345,o),
(492,413,cs),
(492,521,o),
(385,557,o),
(299,557,cs),
(191,557,o),
(101,506,o),
(101,385,c),
(141,385,l),
(141,483,o),
(208,517,o),
(299,517,cs),
(392,517,o),
(452,482,o),
(452,407,cs),
(452,363,o),
(402,308,o),
(294,308,cs),
(264,308,l),
(264,268,l),
(311,268,ls),
(412,268,o),
(467,221,o),
(467,159,cs),
(467,64,o),
(408,22,o),
(301,22,cs),
(201,22,o),
(132,57,o),
(132,158,c),
(92,158,l),
(92,33,o),
(187,-18,o),
(301,-18,cs)
);
}
);
width = 600;
}
);
unicode = 1079;
},
{
glyphname = "ii-cy";
lastChange = "2024-11-09 23:51:18 +0000";
layers = (
{
anchors = (
{
name = top;
pos = (299,552);
}
);
background = {
shapes = (
{
ref = "en-cy";
}
);
};
layerId = m003;
shapes = (
{
closed = 1;
nodes = (
(355,530,l),
(249,235,l),
(193,66,l),
(153,66,l),
(180,329,l),
(180,530,l),
(90,530,l),
(90,0,l),
(245,0,l),
(347,283,l),
(407,464,l),
(447,464,l),
(420,201,l),
(420,0,l),
(510,0,l),
(510,530,l)
);
}
);
width = 600;
},
{
anchors = (
{
name = top;
pos = (299,530);
}
);
layerId = m002;
shapes = (
{
closed = 1;
nodes = (
(329,530,l),
(260,356,l),
(206,86,l),
(166,86,l),
(230,422,l),
(230,530,l),
(80,530,l),
(80,0,l),
(272,0,l),
(340,171,l),
(394,444,l),
(434,444,l),
(370,97,l),
(370,0,l),
(520,0,l),
(520,530,l)
);
}
);
width = 600;
},
{
anchors = (
{
name = top;
pos = (299,552);
}
);
background = {
shapes = (
{
ref = "en-cy";
}
);
};
layerId = m004;
shapes = (
{
closed = 1;
nodes = (
(417,530,l),
(191,97,l),
(163,30,l),
(133,30,l),
(140,140,l),
(140,530,l),
(100,530,l),
(100,0,l),
(183,0,l),
(409,433,l),
(437,500,l),
(467,500,l),
(460,390,l),
(460,0,l),
(500,0,l),
(500,530,l)
);
}
);
width = 600;
}
);
unicode = 1080;
},
{
glyphname = "el-cy";
lastChange = "2024-11-09 23:52:02 +0000";
layers = (
{
background = {
shapes = (
{
ref = "de-cy";
}
);
};
layerId = m003;
shapes = (
{
closed = 1;
nodes = (
(144,-1,o),
(209,34,o),
(229.138,180.237,cs),
(265,440,l),
(411,440,l),
(411,0,l),
(501,0,l),
(501,530,l),
(191,530,l),
(140.862,197.763,ls),
(126,99,o),
(104,89,o),
(25,90,c),
(25,0,l)
);
}
);
width = 600;
},
{
layerId = m002;
shapes = (
{
closed = 1;
nodes = (
(144,-1,o),
(257,14,o),
(279,180,cs),
(305,380,l),
(361,380,l),
(361,0,l),
(511,0,l),
(511,530,l),
(181,530,l),
(133,225,ls),
(123,159,o),
(89,149,o),
(15,150,c),
(15,0,l)
);
}
);
width = 600;
},
{
layerId = m004;
shapes = (
{
closed = 1;
nodes = (
(134,-1,o),
(169,60,o),
(183,150,cs),
(235,490,l),
(451,490,l),
(451,0,l),
(491,0,l),
(491,530,l),
(201,530,l),
(145,168,ls),
(130,71,o),
(103,39,o),
(25,40,c),
(25,0,l)
);
}
);
width = 600;
}
);
unicode = 1083;
},
{
glyphname = "em-cy";
lastChange = "2024-11-09 23:52:18 +0000";
layers = (
{
layerId = m003;
shapes = (
{
closed = 1;
nodes = (
(165,0,l),
(165,191,l),
(140,450,l),
(180,450,l),
(200,311,l),
(242,140,l),
(358,140,l),
(400,312,l),
(420,450,l),
(460,450,l),
(435,191,l),
(435,0,l),
(525,0,l),
(525,530,l),
(378,530,l),
(320,286,l),
(320,210,l),
(280,210,l),
(280,286,l),
(222,530,l),
(75,530,l),
(75,0,l)
);
}
);
width = 600;
},
{
layerId = m002;
shapes = (
{
closed = 1;
nodes = (
(215,0,l),
(215,28,l),
(147,410,l),
(187,410,l),
(210,261,l),
(232,130,l),
(368,130,l),
(390,262,l),
(413,410,l),
(453,410,l),
(385,28,l),
(385,0,l),
(535,0,l),
(535,530,l),
(354,530,l),
(320,354,l),
(320,250,l),
(280,250,l),
(280,354,l),
(246,530,l),
(65,530,l),
(65,0,l)
);
}
);
width = 600;
},
{
layerId = m004;
shapes = (
{
closed = 1;
nodes = (
(125,0,l),
(125,311,l),
(113,500,l),
(143,500,l),
(204,311,l),
(266,140,l),
(334,140,l),
(396,311,l),
(457,500,l),
(487,500,l),
(475,311,l),
(475,0,l),
(515,0,l),
(515,530,l),
(438,530,l),
(345,286,l),
(315,170,l),
(285,170,l),
(256,286,l),
(162,530,l),
(85,530,l),
(85,0,l)
);
}
);
width = 600;
}
);
unicode = 1084;
},
{
glyphname = "en-cy";
lastChange = "2024-11-09 23:52:34 +0000";
layers = (
{
layerId = m003;
shapes = (
{
closed = 1;
nodes = (
(420,0,l),
(510,0,l),
(510,530,l),
(420,530,l),
(420,324,l),
(180,324,l),
(180,530,l),
(90,530,l),
(90,0,l),
(180,0,l),
(180,234,l),
(420,234,l)
);
}
);
width = 600;
},
{
layerId = m002;
shapes = (
{
closed = 1;
nodes = (
(370,0,l),
(520,0,l),
(520,530,l),
(370,530,l),
(370,353,l),
(230,353,l),
(230,530,l),
(80,530,l),
(80,0,l),
(230,0,l),
(230,203,l),
(370,203,l)
);
}
);
width = 600;
},
{
layerId = m004;
shapes = (
{
closed = 1;
nodes = (
(460,0,l),
(500,0,l),
(500,530,l),
(460,530,l),
(460,300,l),
(140,300,l),
(140,530,l),
(100,530,l),
(100,0,l),
(140,0,l),
(140,260,l),
(460,260,l)
);
}
);
width = 600;
}
);
unicode = 1085;
},
{
glyphname = "pe-cy";
lastChange = "2024-11-09 23:52:49 +0000";
layers = (
{
layerId = m003;
shapes = (
{
closed = 1;
nodes = (
(180,0,l),
(180,440,l),
(420,440,l),
(420,0,l),
(510,0,l),
(510,530,l),
(90,530,l),
(90,0,l)
);
}
);
width = 600;
},
{
layerId = m002;
shapes = (
{
closed = 1;
nodes = (
(230,0,l),
(230,380,l),
(370,380,l),
(370,0,l),
(520,0,l),
(520,530,l),
(80,530,l),
(80,0,l)
);
}
);
width = 600;
},
{
layerId = m004;
shapes = (
{
closed = 1;
nodes = (
(140,0,l),
(140,490,l),
(460,490,l),
(460,0,l),
(500,0,l),
(500,530,l),
(100,530,l),
(100,0,l)
);
}
);
width = 600;
}
);
unicode = 1087;
},
{
glyphname = "te-cy";
lastChange = "2024-11-09 23:53:05 +0000";
layers = (
{
layerId = m003;
shapes = (
{
closed = 1;
nodes = (
(340,0,l),
(340,440,l),
(520,440,l),
(520,530,l),
(80,530,l),
(80,440,l),
(250,440,l),
(250,0,l)
);
}
);
width = 600;
},
{
layerId = m002;
shapes = (
{
closed = 1;
nodes = (
(370,0,l),
(370,380,l),
(530,380,l),
(530,530,l),
(70,530,l),
(70,380,l),
(220,380,l),
(220,0,l)
);
}
);
width = 600;
},
{
layerId = m004;
shapes = (
{
closed = 1;
nodes = (
(315,0,l),
(315,490,l),
(520,490,l),
(520,530,l),
(80,530,l),
(80,490,l),
(275,490,l),
(275,0,l)
);
}
);
width = 600;
}
);
unicode = 1090;
},
{
glyphname = "ef-cy";
lastChange = "2024-11-10 02:08:06 +0000";
layers = (
{
layerId = m003;
shapes = (
{
closed = 1;
nodes = (
(136,78,o),
(110,148,o),
(110,276,cs),
(110,403,o),
(135,463,o),
(179,463,cs),
(221,463,o),
(239,403,o),
(239,276,cs),
(239,148,o),
(220,78,o),
(179,78,cs)
);
},
{
closed = 1;
nodes = (
(206,-11,o),
(229,28,o),
(241,75,c),
(281,75,l),
(255,-93,l),
(255,-200,l),
(345,-200,l),
(345,-93,l),
(320,75,l),
(360,75,l),
(372,28,o),
(394,-11,o),
(441,-12,cs),
(545,-12,o),
(580,102,o),
(580,276,cs),
(580,450,o),
(545,553,o),
(441,553,cs),
(394,552,o),
(368,507,o),
(360,466,c),
(320,466,l),
(378,700,l),
(282,700,l),
(281,466,l),
(241,466,l),
(233,507,o),
(206,552,o),
(159,553,cs),
(55,553,o),
(20,450,o),
(20,276,cs),
(20,102,o),
(55,-12,o),
(159,-12,cs)
);
},
{
closed = 1;
nodes = (
(380,78,o),
(361,148,o),
(361,276,cs),
(361,403,o),
(379,463,o),
(421,463,cs),
(465,463,o),
(490,403,o),
(490,276,cs),
(490,148,o),
(464,78,o),
(421,78,cs)
);
}
);
width = 600;
},
{
layerId = m002;
shapes = (
{
closed = 1;
nodes = (
(172,108,o),
(160,148,o),
(160,276,cs),
(160,403,o),
(171,433,o),
(189,433,cs),
(206,433,o),
(219,403,o),
(219,276,cs),
(219,148,o),
(205,108,o),
(189,108,cs)
);
},
{
closed = 1;
nodes = (
(186,-11,o),
(219,3,o),
(231,50,c),
(271,50,l),
(225,-93,l),
(225,-200,l),
(375,-200,l),
(375,-93,l),
(330,50,l),
(370,50,l),
(382,3,o),
(414,-11,o),
(441,-12,cs),
(545,-16,o),
(590,100,o),
(590,276,cs),
(590,454,o),
(545,557,o),
(441,553,cs),
(414,552,o),
(378,532,o),
(370,481,c),
(330,481,l),
(418,700,l),
(271,700,l),
(271,481,l),
(231,481,l),
(223,532,o),
(186,552,o),
(159,553,cs),
(55,557,o),
(10,454,o),
(10,276,cs),
(10,100,o),
(55,-16,o),
(159,-12,cs)
);
},
{
closed = 1;
nodes = (
(392,108,o),
(381,148,o),
(381,276,cs),
(381,403,o),
(391,433,o),
(411,433,cs),
(430,433,o),
(440,403,o),
(440,276,cs),
(440,148,o),
(429,108,o),
(411,108,cs)
);
}
);
width = 600;
},
{
layerId = m004;
shapes = (
{
closed = 1;
nodes = (
(111,28,o),
(70,98,o),
(70,276,cs),
(70,453,o),
(110,513,o),
(174,513,cs),
(233,513,o),
(276,443,o),
(276,276,cs),
(276,108,o),
(235,28,o),
(174,28,cs)
);
},
{
closed = 1;
nodes = (
(206,-12,o),
(246,28,o),
(258,75,c),
(288,75,l),
(280,-93,l),
(280,-200,l),
(320,-200,l),
(320,-93,l),
(313,75,l),
(343,75,l),
(355,28,o),
(394,-12,o),
(441,-12,cs),
(525,-12,o),
(570,102,o),
(570,276,cs),
(570,440,o),
(525,553,o),
(441,553,cs),
(394,553,o),
(351,511,o),
(343,466,c),
(313,466,l),
(333,700,l),
(289,700,l),
(288,466,l),
(258,466,l),
(250,511,o),
(206,553,o),
(159,553,cs),
(75,553,o),
(30,440,o),
(30,276,cs),
(30,102,o),
(75,-12,o),
(159,-12,cs)
);
},
{
closed = 1;
nodes = (
(375,28,o),
(324,108,o),
(324,276,cs),
(324,443,o),
(374,513,o),
(426,513,cs),
(490,513,o),
(530,453,o),
(530,276,cs),
(530,98,o),
(489,28,o),
(426,28,cs)
);
}
);
width = 600;
}
);
unicode = 1092;
},
{
glyphname = "che-cy";
lastChange = "2024-11-10 02:08:24 +0000";
layers = (
{
layerId = m003;
shapes = (
{
closed = 1;
nodes = (
(507,530,l),
(417,530,l),
(417,390,ls),
(417,294,o),
(372,251,o),
(298,251,cs),
(224,251,o),
(187,285,o),
(187,360,cs),
(187,530,l),
(97,530,l),
(97,360,ls),
(97,235,o),
(154,161,o),
(278,161,cs),
(359,161,o),
(405,209,o),
(427,267,c),
(467,267,l),
(417,81,l),
(417,0,l),
(507,0,l)
);
}
);
width = 600;
},
{
layerId = m002;
shapes = (
{
closed = 1;
nodes = (
(517,530,l),
(367,530,l),
(367,400,ls),
(367,336,o),
(351,301,o),
(302,301,cs),
(254,301,o),
(237,325,o),
(237,370,cs),
(237,530,l),
(87,530,l),
(87,360,ls),
(87,235,o),
(154,151,o),
(278,151,cs),
(329,151,o),
(372,183,o),
(391,231,c),
(431,231,l),
(367,71,l),
(367,0,l),
(517,0,l)
);
}
);
width = 600;
},
{
layerId = m004;
shapes = (
{
closed = 1;
nodes = (
(497,530,l),
(457,530,l),
(457,390,ls),
(457,284,o),
(392,201,o),
(298,201,cs),
(194,201,o),
(147,235,o),
(147,360,cs),
(147,530,l),
(107,530,l),
(107,360,ls),
(107,235,o),
(154,161,o),
(278,161,cs),
(359,161,o),
(420,209,o),
(442,267,c),
(472,267,l),
(457,81,l),
(457,0,l),
(497,0,l)
);
}
);
width = 600;
}
);
unicode = 1095;
},
{
glyphname = "tse-cy";
lastChange = "2024-11-10 02:08:39 +0000";
layers = (
{
anchors = (
{
name = hookleft;
pos = (80,530);
},
{
name = hookright;
pos = (476,530);
}
);
layerId = m003;
shapes = (
{
closed = 1;
nodes = (
(329,-12,o),
(375,35,o),
(401,125,c),
(441,125,l),
(405,0,l),
(486,0,l),
(430,-127,l),
(540,-127,l),
(570,90,l),
(476,90,l),
(476,530,l),
(386,530,l),
(386,268,ls),
(386,132,o),
(334,78,o),
(262,78,cs),
(204,78,o),
(170,101,o),
(170,175,cs),
(170,530,l),
(80,530,l),
(80,175,ls),
(80,59,o),
(144,-12,o),
(245,-12,cs)
);
}
);
width = 600;
},
{
anchors = (
{
name = hookleft;
pos = (80,530);
},
{
name = hookright;
pos = (476,530);
}
);
layerId = m002;
shapes = (
{
closed = 1;
nodes = (
(329,-12,o),
(366,29,o),
(386,85,c),
(426,85,l),
(405,0,l),
(446,0,l),
(390,-127,l),
(550,-127,l),
(580,130,l),
(486,130,l),
(486,530,l),
(336,530,l),
(336,258,ls),
(336,152,o),
(312,138,o),
(272,138,cs),
(242,138,o),
(220,147,o),
(220,205,cs),
(220,530,l),
(70,530,l),
(70,175,ls),
(70,59,o),
(144,-12,o),
(245,-12,cs)
);
}
);
width = 600;
},
{
anchors = (
{
name = hookleft;
pos = (90,530);
},
{
name = hookright;
pos = (466,530);
}
);
layerId = m004;
shapes = (
{
closed = 1;
nodes = (
(329,-12,o),
(389,35,o),
(415,125,c),
(445,125,l),
(426,0,l),
(516,0,l),
(480,-127,l),
(520,-127,l),
(550,40,l),
(466,40,l),
(466,530,l),
(426,530,l),
(426,268,ls),
(426,112,o),
(354,28,o),
(262,28,cs),
(184,28,o),
(130,61,o),
(130,175,cs),
(130,530,l),
(90,530,l),
(90,175,ls),
(90,59,o),
(144,-12,o),
(245,-12,cs)
);
}
);
width = 600;
}
);
unicode = 1094;
},
{
glyphname = "sha-cy";
lastChange = "2024-11-10 02:07:06 +0000";
layers = (
{
layerId = m003;
shapes = (
{
closed = 1;
nodes = (
(515,530,l),
(425,530,l),
(425,267,ls),
(425,150,o),
(388,78,o),
(358,78,cs),
(327,78,o),
(319,120,o),
(319,177,cs),
(319,530,l),
(229,530,l),
(229,267,ls),
(229,150,o),
(193,78,o),
(163,78,cs),
(131,78,o),
(123,119,o),
(123,177,cs),
(123,530,l),
(33,530,l),
(33,147,ls),
(33,34,o),
(80,-12,o),
(135,-12,cs),
(166,-12,o),
(225,-3,o),
(249,140,c),
(289,140,l),
(267,66,o),
(265,-12,o),
(335,-12,cs),
(381,-12,o),
(414,4,o),
(440,140,c),
(480,140,l),
(480,14,o),
(494,0,o),
(580,0,c),
(580,78,l),
(529,78,o),
(515,86,o),
(515,140,cs)
);
}
);
width = 600;
},
{
layerId = m002;
shapes = (
{
closed = 1;
nodes = (
(535,530,l),
(398,530,l),
(398,297,ls),
(398,180,o),
(395,138,o),
(373,138,cs),
(354,138,o),
(348,150,o),
(348,207,cs),
(348,530,l),
(208,530,l),
(208,297,ls),
(208,180,o),
(204,138,o),
(183,138,cs),
(161,138,o),
(158,149,o),
(158,207,cs),
(158,530,l),
(23,530,l),
(23,147,ls),
(23,34,o),
(80,-12,o),
(135,-12,cs),
(166,-12,o),
(216,5,o),
(237,90,c),
(277,90,l),
(267,57,o),
(258,-12,o),
(335,-12,cs),
(381,-12,o),
(409,11,o),
(430,90,c),
(470,90,l),
(470,4,o),
(504,0,o),
(590,0,c),
(590,110,l),
(539,110,o),
(535,106,o),
(535,160,cs)
);
}
);
width = 600;
},
{
layerId = m004;
shapes = (
{
closed = 1;
nodes = (
(505,530,l),
(465,530,l),
(465,257,ls),
(465,120,o),
(413,28,o),
(358,28,cs),
(287,28,o),
(294,82,o),
(294,177,cs),
(294,530,l),
(254,530,l),
(254,257,ls),
(254,100,o),
(198,28,o),
(158,28,cs),
(86,28,o),
(83,81,o),
(83,177,cs),
(83,530,l),
(43,530,l),
(43,147,ls),
(43,34,o),
(80,-12,o),
(135,-12,cs),
(166,-12,o),
(225,-5,o),
(249,120,c),
(279,120,l),
(257,46,o),
(274,-12,o),
(335,-12,cs),
(371,-12,o),
(431,-6,o),
(457,120,c),
(487,120,l),
(487,34,o),
(494,0,o),
(580,0,c),
(580,38,l),
(529,38,o),
(505,56,o),
(505,110,cs)
);
}
);
width = 600;
}
);
unicode = 1096;
},
{
glyphname = "shcha-cy";
lastChange = "2024-11-10 02:06:54 +0000";
layers = (
{
layerId = m003;
shapes = (
{
closed = 1;
nodes = (
(560,-127,l),
(590,90,l),
(506,90,l),
(506,530,l),
(416,530,l),
(416,267,ls),
(416,150,o),
(379,78,o),
(349,78,cs),
(318,78,o),
(310,120,o),
(310,177,cs),
(310,530,l),
(220,530,l),
(220,267,ls),
(220,150,o),
(184,78,o),
(154,78,cs),
(122,78,o),
(114,119,o),
(114,177,cs),
(114,530,l),
(24,530,l),
(24,147,ls),
(24,34,o),
(71,-12,o),
(126,-12,cs),
(157,-12,o),
(214,-3,o),
(238,140,c),
(278,140,l),
(256,66,o),
(256,-12,o),
(326,-12,cs),
(372,-12,o),
(405,4,o),
(431,140,c),
(471,140,l),
(434,0,l),
(512,0,l),
(450,-127,l)
);
}
);
width = 600;
},
{
layerId = m002;
shapes = (
{
closed = 1;
nodes = (
(560,-127,l),
(590,111,l),
(526,111,l),
(529,530,l),
(389,530,l),
(389,287,ls),
(389,170,o),
(384,138,o),
(364,138,cs),
(343,138,o),
(339,160,o),
(339,197,cs),
(339,530,l),
(199,530,l),
(199,287,ls),
(199,170,o),
(193,138,o),
(173,138,cs),
(151,138,o),
(149,159,o),
(149,197,cs),
(149,530,l),
(14,530,l),
(14,147,ls),
(14,25,o),
(71,-12,o),
(126,-12,cs),
(157,-12,o),
(207,6,o),
(228,90,c),
(268,90,l),
(255,56,o),
(256,-12,o),
(326,-12,cs),
(372,-12,o),
(399,10,o),
(422,90,c),
(462,90,l),
(434,0,l),
(492,0,l),
(410,-127,l)
);
}
);
width = 600;
},
{
layerId = m004;
shapes = (
{
closed = 1;
nodes = (
(540,-127,l),
(570,40,l),
(496,40,l),
(496,530,l),
(456,530,l),
(456,267,ls),
(456,150,o),
(409,28,o),
(349,28,cs),
(278,28,o),
(285,70,o),
(285,177,cs),
(285,530,l),
(245,530,l),
(245,267,ls),
(245,150,o),
(204,28,o),
(144,28,cs),
(82,28,o),
(74,69,o),
(74,177,cs),
(74,530,l),
(34,530,l),
(34,147,ls),
(34,34,o),
(71,-12,o),
(126,-12,cs),
(157,-12,o),
(215,-3,o),
(239,120,c),
(269,120,l),
(247,46,o),
(266,-12,o),
(326,-12,cs),
(372,-12,o),
(421,4,o),
(447,120,c),
(477,120,l),
(456,0,l),
(535,0,l),
(500,-127,l)
);
}
);
width = 600;
}
);
unicode = 1097;
},
{
glyphname = "softsign-cy";
lastChange = "2024-11-09 23:54:08 +0000";
layers = (
{
layerId = m003;
shapes = (
{
closed = 1;
nodes = (
(172,250,l),
(319,250,ls),
(391,250,o),
(428,225,o),
(428,172,cs),
(428,118,o),
(390,90,o),
(319,90,cs),
(172,90,l)
);
},
{
closed = 1;
nodes = (
(518,276,o),
(448,340,o),
(321,340,cs),
(172,340,l),
(172,530,l),
(82,530,l),
(82,0,l),
(321,0,ls),
(440,0,o),
(518,47,o),
(518,161,cs)
);
}
);
width = 600;
},
{
layerId = m002;
shapes = (
{
closed = 1;
nodes = (
(222,200,l),
(319,200,ls),
(354,200,o),
(378,200,o),
(378,177,cs),
(378,152,o),
(353,150,o),
(319,150,cs),
(222,150,l)
);
},
{
closed = 1;
nodes = (
(528,286,o),
(448,350,o),
(321,350,cs),
(222,350,l),
(222,530,l),
(72,530,l),
(72,0,l),
(321,0,ls),
(440,0,o),
(528,47,o),
(528,171,cs)
);
}
);
width = 600;
},
{
layerId = m004;
shapes = (
{
closed = 1;
nodes = (
(132,300,l),
(319,300,ls),
(411,300,o),
(468,255,o),
(468,172,cs),
(468,78,o),
(410,40,o),
(319,40,cs),
(132,40,l)
);
},
{
closed = 1;
nodes = (
(508,276,o),
(438,340,o),
(321,340,cs),
(132,340,l),
(132,530,l),
(92,530,l),
(92,0,l),
(321,0,ls),
(430,0,o),
(508,47,o),
(508,161,cs)
);
}
);
width = 600;
}
);
unicode = 1100;
},
{
glyphname = "yeru-cy";
lastChange = "2024-11-09 23:54:16 +0000";
layers = (
{
layerId = m003;
shapes = (
{
closed = 1;
nodes = (
(485,0,l),
(575,0,l),
(575,530,l),
(485,530,l)
);
},
{
closed = 1;
nodes = (
(115,250,l),
(211,250,ls),
(283,250,o),
(320,225,o),
(320,172,cs),
(320,118,o),
(282,90,o),
(211,90,cs),
(115,90,l)
);
},
{
closed = 1;
nodes = (
(410,286,o),
(340,340,o),
(213,340,cs),
(115,340,l),
(115,530,l),
(25,530,l),
(25,0,l),
(213,0,ls),
(332,0,o),
(410,57,o),
(410,171,cs)
);
}
);
width = 600;
},
{
layerId = m002;
shapes = (
{
closed = 1;
nodes = (
(435,0,l),
(585,0,l),
(585,530,l),
(435,530,l)
);
},
{
closed = 1;
nodes = (
(165,200,l),
(210,200,ls),
(246,200,o),
(260,193,o),
(260,177,cs),
(260,159,o),
(245,150,o),
(210,150,cs),
(165,150,l)
);
},
{
closed = 1;
nodes = (
(410,284,o),
(340,350,o),
(213,350,cs),
(165,350,l),
(165,530,l),
(15,530,l),
(15,0,l),
(213,0,ls),
(332,0,o),
(410,55,o),
(410,169,cs)
);
}
);
width = 600;
},
{
layerId = m004;
shapes = (
{
closed = 1;
nodes = (
(505,0,l),
(545,0,l),
(545,530,l),
(505,530,l)
);
},
{
closed = 1;
nodes = (
(85,300,l),
(221,300,ls),
(323,300,o),
(370,245,o),
(370,172,cs),
(370,78,o),
(322,40,o),
(221,40,cs),
(85,40,l)
);
},
{
closed = 1;
nodes = (
(410,276,o),
(350,340,o),
(223,340,cs),
(85,340,l),
(85,530,l),
(45,530,l),
(45,0,l),
(223,0,ls),
(342,0,o),
(410,47,o),
(410,171,cs)
);
}
);
width = 600;
}
);
unicode = 1099;
},
{
glyphname = "e-cy";
lastChange = "2024-10-20 13:01:54 +0000";
layers = (
{
layerId = m003;
shapes = (
{
ref = "es-cy";
},
{
closed = 1;
nodes = (
(162,271,l),
(171,225,l),
(331,225,l),
(331,315,l),
(172,315,l)
);
}
);
width = 600;
},
{
layerId = m002;
shapes = (
{
ref = "es-cy";
},
{
closed = 1;
nodes = (
(162,271,l),
(171,210,l),
(331,210,l),
(331,330,l),
(172,330,l)
);
}
);
width = 600;
},
{
layerId = m004;
shapes = (
{
ref = "es-cy";
},
{
closed = 1;
nodes = (
(122,270,l),
(131,250,l),
(331,250,l),
(331,290,l),
(132,290,l)
);
}
);
width = 600;
}
);
unicode = 1108;
},
{
glyphname = "yu-cy";
lastChange = "2024-11-09 23:54:31 +0000";
layers = (
{
layerId = m003;
shapes = (
{
closed = 1;
nodes = (
(115,0,l),
(115,530,l),
(25,530,l),
(25,0,l)
);
},
{
closed = 1;
nodes = (
(252,221,l),
(252,311,l),
(67,311,l),
(67,221,l)
);
},
{
closed = 1;
nodes = (
(513,-10,o),
(575,75,o),
(575,270,cs),
(575,465,o),
(513,552,o),
(386,552,cs),
(267,552,o),
(195,465,o),
(195,270,cs),
(195,75,o),
(267,-10,o),
(386,-10,cs)
);
},
{
closed = 1;
nodes = (
(323,80,o),
(286,126,o),
(287,270,cs),
(288,412,o),
(323,462,o),
(386,462,cs),
(449,462,o),
(482,412,o),
(483,270,cs),
(484,126,o),
(449,80,o),
(386,80,cs)
);
}
);
width = 600;
},
{
layerId = m002;
shapes = (
{
closed = 1;
nodes = (
(165,0,l),
(165,530,l),
(15,530,l),
(15,0,l)
);
},
{
closed = 1;
nodes = (
(252,191,l),
(252,341,l),
(67,341,l),
(67,191,l)
);
},
{
closed = 1;
nodes = (
(513,-10,o),
(585,75,o),
(585,270,cs),
(585,465,o),
(513,552,o),
(386,552,cs),
(267,552,o),
(205,465,o),
(205,270,cs),
(205,75,o),
(267,-10,o),
(386,-10,cs)
);
},
{
closed = 1;
nodes = (
(366,140,o),
(354,166,o),
(355,270,cs),
(356,372,o),
(366,402,o),
(395,402,cs),
(424,402,o),
(434,372,o),
(435,270,cs),
(436,166,o),
(424,140,o),
(395,140,cs)
);
}
);
width = 600;
},
{
layerId = m004;
shapes = (
{
closed = 1;
nodes = (
(65,0,l),
(65,530,l),
(25,530,l),
(25,0,l)
);
},
{
closed = 1;
nodes = (
(232,246,l),
(232,286,l),
(57,286,l),
(57,246,l)
);
},
{
closed = 1;
nodes = (
(513,-10,o),
(565,85,o),
(565,270,cs),
(565,455,o),
(513,552,o),
(386,552,cs),
(267,552,o),
(205,455,o),
(205,270,cs),
(205,85,o),
(267,-10,o),
(386,-10,cs)
);
},
{
closed = 1;
nodes = (
(293,30,o),
(244,106,o),
(245,270,cs),
(246,442,o),
(293,512,o),
(386,512,cs),
(479,512,o),
(524,442,o),
(525,270,cs),
(526,106,o),
(479,30,o),
(386,30,cs)
);
}
);
width = 600;
}
);
unicode = 1102;
},
{
glyphname = "ya-cy";
lastChange = "2024-11-09 23:56:13 +0000";
layers = (
{
layerId = m003;
shapes = (
{
closed = 1;
nodes = (
(530,530,l),
(283,530,ls),
(178,530,o),
(124,472,o),
(124,389,cs),
(124,316,o),
(184,241,o),
(269,271,c),
(269,231,l),
(242,222,ls),
(216,213,o),
(206,195,o),
(196,174,cs),
(110,1,l),
(213,1,l),
(313,216,l),
(440,216,l),
(440,1,l),
(530,1,l)
);
},
{
closed = 1;
nodes = (
(289,306,ls),
(240,306,o),
(214,343,o),
(214,380,cs),
(214,415,o),
(241,440,o),
(289,440,cs),
(440,440,l),
(440,306,l)
);
}
);
width = 600;
},
{
layerId = m002;
shapes = (
{
closed = 1;
nodes = (
(540,530,l),
(283,530,ls),
(178,530,o),
(114,482,o),
(114,392,cs),
(114,311,o),
(173,253,o),
(238,277,c),
(238,237,l),
(214,230,ls),
(192,224,o),
(179,208,o),
(168,187,cs),
(70,1,l),
(233,1,l),
(313,174,l),
(390,174,l),
(390,1,l),
(540,1,l)
);
},
{
closed = 1;
nodes = (
(300,331,ls),
(271,331,o),
(264,340,o),
(264,356,cs),
(264,371,o),
(272,380,o),
(300,380,cs),
(390,380,l),
(390,331,l)
);
}
);
width = 600;
},
{
layerId = m004;
shapes = (
{
closed = 1;
nodes = (
(520,530,l),
(283,530,ls),
(198,530,o),
(134,475,o),
(134,392,cs),
(134,319,o),
(193,258,o),
(269,271,c),
(269,241,l),
(259,237,ls),
(249,233,o),
(242,229,o),
(234,212,cs),
(130,1,l),
(173,1,l),
(292,247,l),
(480,247,l),
(480,1,l),
(520,1,l)
);
},
{
closed = 1;
nodes = (
(289,287,ls),
(210,287,o),
(174,346,o),
(174,393,cs),
(174,458,o),
(221,490,o),
(289,490,cs),
(480,490,l),
(480,287,l)
);
}
);
width = 600;
}
);
unicode = 1103;
},
{
glyphname = zero;
lastChange = "2024-10-25 17:41:14 +0000";
layers = (
{
background = {
shapes = (
{
ref = O;
}
);
};
layerId = m003;
shapes = (
{
closed = 1;
nodes = (
(507,462,l),
(448,529,l),
(102,234,l),
(161,167,l)
);
},
{
closed = 1;
nodes = (
(202.337,78,o),
(161,171.59,o),
(161,351,c),
(161,531.479,o),
(202.432,626,o),
(300,626,c),
(397.568,626,o),
(439,531.479,o),
(439,351,c),
(439,171.59,o),
(397.663,78,o),
(300,78,c)
);
},
{
closed = 1;
nodes = (
(464.537,-12,o),
(529,136.61,o),
(529,351,c),
(529,566.321,o),
(464.632,716,o),
(300,716,c),
(135.368,716,o),
(71,566.321,o),
(71,351,c),
(71,136.61,o),
(135.463,-12,o),
(300,-12,c)
);
}
);
width = 600;
},
{
layerId = m002;
shapes = (
{
closed = 1;
nodes = (
(507,423,l),
(448,570,l),
(102,275,l),
(161,128,l)
);
},
{
closed = 1;
nodes = (
(247,138,o),
(211,172,o),
(211,351,c),
(211,531,o),
(247,566,o),
(300,566,c),
(353,566,o),
(389,531,o),
(389,351,c),
(389,172,o),
(353,138,o),
(300,138,c)
);
},
{
closed = 1;
nodes = (
(464.537,-12,o),
(539,137,o),
(539,351,c),
(539,566,o),
(464.632,716,o),
(300,716,c),
(135.368,716,o),
(61,566,o),
(61,351,c),
(61,137,o),
(135.463,-12,o),
(300,-12,c)
);
}
);
width = 600;
},
{
layerId = m004;
shapes = (
{
closed = 1;
nodes = (
(484,474,l),
(470,516,l),
(115,213,l),
(121,164,l)
);
},
{
closed = 1;
nodes = (
(172,28,o),
(121,132,o),
(121,351,c),
(121,571,o),
(172,676,o),
(300,676,c),
(428,676,o),
(479,571,o),
(479,351,c),
(479,132,o),
(428,28,o),
(300,28,c)
);
},
{
closed = 1;
nodes = (
(464.537,-12,o),
(519,137,o),
(519,351,c),
(519,566,o),
(464.632,716,o),
(300,716,c),
(135.368,716,o),
(81,566,o),
(81,351,c),
(81,137,o),
(135.463,-12,o),
(300,-12,c)
);
}
);
width = 600;
}
);
unicode = 48;
},
{
glyphname = one;
lastChange = "2024-11-09 23:56:34 +0000";
layers = (
{
layerId = m003;
shapes = (
{
closed = 1;
nodes = (
(70,0,l),
(540,0,l),
(540,90,l),
(70,90,l)
);
},
{
closed = 1;
nodes = (
(355,700,l),
(233,700,l),
(65,423,l),
(143,379,l),
(211,498,l),
(256,620,l),
(296,620,l),
(265,423,l),
(265,29,l),
(355,29,l)
);
}
);
width = 600;
},
{
layerId = m002;
shapes = (
{
closed = 1;
nodes = (
(60,0,l),
(550,0,l),
(550,150,l),
(60,150,l)
);
},
{
closed = 1;
nodes = (
(385,700,l),
(209,700,l),
(35,435,l),
(165,360,l),
(212,435,l),
(243,580,l),
(283,580,l),
(235,347,l),
(235,29,l),
(385,29,l)
);
}
);
width = 600;
},
{
layerId = m004;
shapes = (
{
closed = 1;
nodes = (
(70,0,l),
(540,0,l),
(540,40,l),
(70,40,l)
);
},
{
closed = 1;
nodes = (
(331,700,l),
(253,700,l),
(86,428,l),
(122,408,l),
(200,542,l),
(269,670,l),
(299,670,l),
(291,439,l),
(291,29,l),
(331,29,l)
);
}
);
width = 600;
}
);
unicode = 49;
},
{
glyphname = two;
lastChange = "2024-11-09 04:50:28 +0000";
layers = (
{
layerId = m003;
shapes = (
{
closed = 1;
nodes = (
(165,468,l),
(165,546,o),
(201,609,o),
(298,610,c),
(388,611,o),
(435,555,o),
(434,474,c),
(433,384,o),
(371,365,o),
(277,331,c),
(162,291,o),
(83,241,o),
(81,103,c),
(79,0,l),
(524,0,l),
(524,90,l),
(171,90,l),
(171,101,l),
(173,189,o),
(214,213,o),
(307,247,c),
(410,283,o),
(524,323,o),
(524,474,c),
(525,599,o),
(444,701,o),
(298,700,c),
(139,699,o),
(75,582,o),
(75,468,c),
(75,430,l),
(165,430,l)
);
}
);
width = 600;
},
{
layerId = m002;
shapes = (
{
closed = 1;
nodes = (
(215,474,l),
(215,502,o),
(215,565,o),
(298,566,c),
(372,567,o),
(386,523,o),
(385,490,c),
(384,440,o),
(373,407,o),
(277,375,cs),
(140,329,o),
(73,271,o),
(71,113,c),
(69,0,l),
(534,0,l),
(534,150,l),
(227,150,l),
(227,153,l),
(229,187,o),
(246,205,o),
(329,235,cs),
(455,280,o),
(535,345,o),
(535,486,c),
(536,611,o),
(449,717,o),
(297.634,715.999,c),
(139.007,714.759,o),
(65,609,o),
(65,484,c),
(65,436,l),
(215,436,l)
);
}
);
width = 600;
},
{
layerId = m004;
shapes = (
{
closed = 1;
nodes = (
(125,484,l),
(125,597,o),
(179,675,o),
(298,676,c),
(385,677,o),
(475,624,o),
(474,510,cs),
(473,390,o),
(402,364,o),
(289,318,cs),
(194,279,o),
(93,231,o),
(91,83,c),
(89,0,l),
(514,0,l),
(514,40,l),
(129,40,l),
(129,91,l),
(131,194,o),
(194,238,o),
(295,278,cs),
(388,315,o),
(514,359,o),
(514,510,cs),
(514,608,o),
(443.51,717.235,o),
(297.634,715.999,c),
(139.007,714.759,o),
(85,598,o),
(85,484,c),
(85,446,l),
(125,446,l)
);
}
);
width = 600;
}
);
unicode = 50;
},
{
glyphname = three;
lastChange = "2024-11-10 21:13:39 +0000";
layers = (
{
layerId = m003;
shapes = (
{
closed = 1;
nodes = (
(72,97,o),
(140,-16,o),
(305,-12,cs),
(445,-9,o),
(518,85,o),
(518,194,cs),
(518,314,o),
(442,367,o),
(348,367,c),
(348,407,l),
(442,410,o),
(486,468,o),
(486,543,cs),
(486,633,o),
(419,716,o),
(279,716,cs),
(137,716,o),
(72,627,o),
(72,528,c),
(162,528,l),
(162,596,o),
(214,626,o),
(279,626,cs),
(357,626,o),
(396,585,o),
(396,537,cs),
(396,477,o),
(345,430,o),
(264,430,cs),
(216,430,l),
(216,340,l),
(270,340,ls),
(393,340,o),
(428,268,o),
(428,199,cs),
(428,124,o),
(382,79,o),
(303,78,cs),
(195,77,o),
(162,140,o),
(162,216,c),
(72,216,l)
);
}
);
width = 600;
},
{
layerId = m002;
shapes = (
{
closed = 1;
nodes = (
(62,107,o),
(140,-16,o),
(305,-12,cs),
(445,-9,o),
(528,85,o),
(528,194,cs),
(528,314,o),
(442,367,o),
(378,367,c),
(378,407,l),
(432,410,o),
(496,458,o),
(496,543,cs),
(496,633,o),
(419,716,o),
(279,716,cs),
(137,716,o),
(62,617,o),
(62,518,c),
(212,518,l),
(212,556,o),
(244,576,o),
(279,576,cs),
(327,576,o),
(346,551,o),
(346,523,cs),
(346,473,o),
(315,460,o),
(264,460,cs),
(216,460,l),
(216,310,l),
(270,310,ls),
(353,310,o),
(378,272,o),
(378,213,cs),
(378,168,o),
(362,129,o),
(303,128,cs),
(245,127,o),
(212,160,o),
(212,226,c),
(62,226,l)
);
}
);
width = 600;
},
{
layerId = m004;
shapes = (
{
closed = 1;
nodes = (
(82,97,o),
(140,-16,o),
(305,-12,cs),
(445,-9,o),
(508,85,o),
(508,194,cs),
(508,314,o),
(422,372,o),
(358,372,c),
(358,402,l),
(422,405,o),
(476,468,o),
(476,543,cs),
(476,633,o),
(419,716,o),
(279,716,cs),
(147,716,o),
(82,627,o),
(82,528,c),
(122,528,l),
(122,626,o),
(184,676,o),
(279,676,cs),
(397,676,o),
(436,615,o),
(436,537,cs),
(436,447,o),
(355,405,o),
(284,405,cs),
(226,405,l),
(226,365,l),
(290,365,ls),
(413,365,o),
(468,268,o),
(468,199,cs),
(468,94,o),
(412,29,o),
(303,28,cs),
(175,27,o),
(122,110,o),
(122,216,c),
(82,216,l)
);
}
);
width = 600;
}
);
unicode = 51;
},
{
glyphname = four;
lastChange = "2024-10-26 15:28:16 +0000";
layers = (
{
layerId = m003;
shapes = (
{
closed = 1;
nodes = (
(370,0,l),
(460,0,l),
(460,168,l),
(540,168,l),
(540,258,l),
(460,258,l),
(460,700,l),
(325,700,l),
(70,258,l),
(70,168,l),
(370,168,l)
);
},
{
closed = 1;
nodes = (
(174,258,l),
(298,471,l),
(367,620,l),
(407,620,l),
(370,508,l),
(370,258,l)
);
}
);
width = 600;
},
{
layerId = m002;
shapes = (
{
closed = 1;
nodes = (
(330,0,l),
(480,0,l),
(480,148,l),
(550,148,l),
(550,298,l),
(480,298,l),
(480,700,l),
(305,700,l),
(60,295,l),
(60,148,l),
(330,148,l)
);
},
{
closed = 1;
nodes = (
(234,298,l),
(286,387,l),
(343,580,l),
(383,580,l),
(330,373,l),
(330,298,l)
);
}
);
width = 600;
},
{
layerId = m004;
shapes = (
{
closed = 1;
nodes = (
(400,0,l),
(440,0,l),
(440,195,l),
(540,195,l),
(540,235,l),
(440,235,l),
(440,700,l),
(368,700,l),
(80,235,l),
(80,195,l),
(400,195,l)
);
},
{
closed = 1;
nodes = (
(126,235,l),
(318,551,l),
(381,670,l),
(411,670,l),
(400,508,l),
(400,235,l)
);
}
);
width = 600;
}
);
unicode = 52;
},
{
glyphname = five;
lastChange = "2024-11-09 23:57:50 +0000";
layers = (
{
layerId = m003;
shapes = (
{
closed = 1;
nodes = (
(80,222,ls),
(80,88,o),
(156,-12,o),
(305,-12,cs),
(435,-12,o),
(520,89,o),
(520,245,cs),
(520,379,o),
(438,482,o),
(320,479,cs),
(246,477,o),
(203,431,o),
(190,382,c),
(150,382,l),
(185,523,l),
(185,610,l),
(507,610,l),
(507,700,l),
(95,700,l),
(95,312,l),
(227,312,l),
(239,353,o),
(260,388,o),
(322,389,cs),
(385,390,o),
(430,334,o),
(430,245,cs),
(430,135,o),
(381,78,o),
(305,78,cs),
(210,78,o),
(170,133,o),
(170,222,cs),
(170,232,l),
(80,232,l)
);
}
);
width = 600;
},
{
layerId = m002;
shapes = (
{
closed = 1;
nodes = (
(70,222,ls),
(70,88,o),
(156,-12,o),
(305,-12,cs),
(445,-12,o),
(535,77,o),
(535,248,cs),
(535,392,o),
(458,494,o),
(330,489,cs),
(276,487,o),
(242,466,o),
(215,420,c),
(175,420,l),
(235,513,l),
(235,550,l),
(517,550,l),
(517,700,l),
(85,700,l),
(85,290,l),
(247,290,l),
(251,318,o),
(265,348,o),
(311,349,cs),
(356,350,o),
(385,314,o),
(385,245,cs),
(385,185,o),
(366,138,o),
(305,138,cs),
(240,138,o),
(220,183,o),
(220,222,cs),
(220,232,l),
(70,232,l)
);
}
);
width = 600;
},
{
layerId = m004;
shapes = (
{
closed = 1;
nodes = (
(90,222,ls),
(90,88,o),
(156,-12,o),
(305,-12,cs),
(435,-12,o),
(510,89,o),
(510,245,cs),
(510,379,o),
(428,467,o),
(320,464,cs),
(220,461,o),
(176,391,o),
(163,342,c),
(133,342,l),
(145,523,l),
(145,660,l),
(497,660,l),
(497,700,l),
(105,700,l),
(105,312,l),
(187,312,l),
(194,350,o),
(221,423,o),
(323,424,cs),
(399,425,o),
(470,364,o),
(470,245,cs),
(470,115,o),
(411,28,o),
(305,28,cs),
(190,28,o),
(130,103,o),
(130,222,cs),
(130,232,l),
(90,232,l)
);
}
);
width = 600;
}
);
unicode = 53;
},
{
glyphname = six;
lastChange = "2024-10-25 20:26:41 +0000";
layers = (
{
layerId = m003;
shapes = (
{
closed = 1;
nodes = (
(238,78,o),
(181,130,o),
(181,235,cs),
(181,341,o),
(238,392,o),
(312,392,cs),
(386,392,o),
(443,341,o),
(443,235,cs),
(443,130,o),
(386,78,o),
(312,78,cs)
);
},
{
closed = 1;
nodes = (
(432,-12,o),
(533,78,o),
(533,235,cs),
(533,393,o),
(442,482,o),
(332,482,cs),
(271,482,o),
(216,455,o),
(185,385,c),
(145,385,l),
(185,498,l),
(200,570,o),
(238,626,o),
(316,626,cs),
(381,627,o),
(425,585,o),
(425,530,c),
(515,530,l),
(515,637,o),
(429,717,o),
(316,716,cs),
(83,714,o),
(88,423,o),
(88,286,cs),
(88,65,o),
(194,-12,o),
(312,-12,cs)
);
}
);
width = 600;
},
{
layerId = m002;
shapes = (
{
closed = 1;
nodes = (
(255,138,o),
(231,175,o),
(231,235,cs),
(231,295,o),
(255,332,o),
(313,332,cs),
(371,332,o),
(393,295,o),
(393,235,cs),
(393,175,o),
(371,138,o),
(313,138,cs)
);
},
{
closed = 1;
nodes = (
(442,-12,o),
(543,70,o),
(543,235,cs),
(543,393,o),
(452,482,o),
(332,482,cs),
(280,482,o),
(233,454,o),
(214,417,c),
(174,417,l),
(255,518,l),
(267,543,o),
(284,565,o),
(319,566,cs),
(359,567,o),
(375,548,o),
(375,520,c),
(525,520,l),
(525,644,o),
(429,717,o),
(316,716,cs),
(83,714,o),
(78,433,o),
(78,286,cs),
(78,65,o),
(194,-12,o),
(312,-12,cs)
);
}
);
width = 600;
},
{
layerId = m004;
shapes = (
{
closed = 1;
nodes = (
(218,28,o),
(141,100,o),
(141,235,cs),
(141,361,o),
(218,422,o),
(312,422,cs),
(406,422,o),
(483,361,o),
(483,235,cs),
(483,100,o),
(406,28,o),
(312,28,cs)
);
},
{
closed = 1;
nodes = (
(432,-12,o),
(523,78,o),
(523,235,cs),
(523,383,o),
(432,462,o),
(322,462,cs),
(261,462,o),
(201,445,o),
(160,365,c),
(130,365,l),
(161,498,l),
(176,570,o),
(218,676,o),
(316,676,cs),
(411,676,o),
(465,605,o),
(465,530,c),
(505,530,l),
(505,637,o),
(429,717,o),
(316,716,cs),
(123,714,o),
(98,423,o),
(98,286,cs),
(98,65,o),
(194,-12,o),
(312,-12,cs)
);
}
);
width = 600;
}
);
unicode = 54;
},
{
glyphname = seven;
lastChange = "2024-11-09 23:58:02 +0000";
layers = (
{
layerId = m003;
shapes = (
{
closed = 1;
nodes = (
(440,611,l),
(150,0,l),
(250,0,l),
(529,590,l),
(529,700,l),
(81,700,l),
(81,610,l)
);
}
);
width = 600;
},
{
layerId = m002;
shapes = (
{
closed = 1;
nodes = (
(370,551,l),
(107,0,l),
(272,0,l),
(539,559,l),
(539,700,l),
(71,700,l),
(71,550,l)
);
}
);
width = 600;
},
{
layerId = m004;
shapes = (
{
closed = 1;
nodes = (
(485,661,l),
(178,0,l),
(223,0,l),
(529,660,l),
(529,700,l),
(81,700,l),
(81,660,l)
);
}
);
width = 600;
}
);
unicode = 55;
},
{
glyphname = eight;
lastChange = "2024-10-25 20:37:53 +0000";
layers = (
{
layerId = m003;
shapes = (
{
closed = 1;
nodes = (
(222,437,o),
(179,479,o),
(179,534,cs),
(179,587,o),
(222,629,o),
(300,629,cs),
(378,629,o),
(421,587,o),
(421,534,cs),
(421,479,o),
(378,437,o),
(300,437,cs)
);
},
{
closed = 1;
nodes = (
(398,347,o),
(455,288,o),
(455,214,cs),
(455,139,o),
(398,80,o),
(300,80,cs),
(202,80,o),
(145,139,o),
(145,214,cs),
(145,288,o),
(202,347,o),
(300,347,cs)
);
},
{
closed = 1;
nodes = (
(448,-10,o),
(545,84,o),
(545,209,cs),
(545,297,o),
(487,364,o),
(398,376,c),
(398,416,l),
(439,420,o),
(511,455,o),
(511,542,cs),
(511,647,o),
(426,719,o),
(300,719,cs),
(174,719,o),
(89,647,o),
(89,542,cs),
(89,455,o),
(161,420,o),
(202,416,c),
(202,376,l),
(113,364,o),
(55,297,o),
(55,209,cs),
(55,84,o),
(152,-10,o),
(300,-10,cs)
);
}
);
width = 600;
},
{
layerId = m002;
shapes = (
{
closed = 1;
nodes = (
(259,477,o),
(229,490,o),
(229,523,cs),
(229,554,o),
(259,569,o),
(300,569,cs),
(341,569,o),
(371,554,o),
(371,523,cs),
(371,490,o),
(341,477,o),
(300,477,cs)
);
},
{
closed = 1;
nodes = (
(375,307,o),
(405,266,o),
(405,222,cs),
(405,177,o),
(375,140,o),
(300,140,cs),
(225,140,o),
(195,177,o),
(195,222,cs),
(195,266,o),
(225,307,o),
(300,307,cs)
);
},
{
closed = 1;
nodes = (
(448,-10,o),
(555,76,o),
(555,209,cs),
(555,297,o),
(497,364,o),
(428,376,c),
(428,416,l),
(459,420,o),
(521,455,o),
(521,542,cs),
(521,647,o),
(426,719,o),
(300,719,cs),
(174,719,o),
(79,647,o),
(79,542,cs),
(79,455,o),
(141,420,o),
(172,416,c),
(172,376,l),
(103,364,o),
(45,297,o),
(45,209,cs),
(45,76,o),
(152,-10,o),
(300,-10,cs)
);
}
);
width = 600;
},
{
layerId = m004;
shapes = (
{
closed = 1;
nodes = (
(196,414,o),
(139,463,o),
(139,534,cs),
(139,607,o),
(176,679,o),
(300,679,cs),
(424,679,o),
(461,607,o),
(461,534,cs),
(461,463,o),
(404,414,o),
(300,414,cs)
);
},
{
closed = 1;
nodes = (
(433,374,o),
(495,303,o),
(495,204,cs),
(495,109,o),
(423,30,o),
(300,30,cs),
(177,30,o),
(105,109,o),
(105,204,cs),
(105,303,o),
(167,374,o),
(300,374,cs)
);
},
{
closed = 1;
nodes = (
(448,-10,o),
(535,84,o),
(535,209,cs),
(535,297,o),
(477,369,o),
(398,381,c),
(398,411,l),
(439,418,o),
(501,455,o),
(501,542,cs),
(501,647,o),
(426,719,o),
(300,719,cs),
(174,719,o),
(99,647,o),
(99,542,cs),
(99,455,o),
(161,415,o),
(202,411,c),
(202,381,l),
(123,369,o),
(65,297,o),
(65,209,cs),
(65,84,o),
(152,-10,o),
(300,-10,cs)
);
}
);
width = 600;
}
);
unicode = 56;
},
{
glyphname = three.alt;
lastChange = "2024-11-10 00:18:52 +0000";
layers = (
{
layerId = m003;
shapes = (
{
closed = 1;
nodes = (
(72,97,o),
(140,-14,o),
(305,-12,cs),
(455,-9,o),
(518,110,o),
(518,219,cs),
(518,328,o),
(448,425,o),
(297,413,cs),
(271,411,l),
(271,451,l),
(387,491,l),
(503,568,l),
(503,700,l),
(80,700,l),
(80,610,l),
(334,610,l),
(433,646,l),
(433,606,l),
(330,560,l),
(196,482,l),
(196,347,l),
(280,347,ls),
(383,347,o),
(428,288,o),
(428,219,cs),
(428,144,o),
(392,79,o),
(303,78,cs),
(195,76,o),
(162,140,o),
(162,216,c),
(72,216,l)
);
}
);
width = 600;
},
{
layerId = m002;
shapes = (
{
closed = 1;
nodes = (
(62,87,o),
(140,-15,o),
(305,-12,cs),
(455,-9,o),
(528,92,o),
(528,219,cs),
(528,338,o),
(445,414,o),
(317,409,cs),
(291,408,l),
(291,448,l),
(416,461,l),
(513,523,l),
(513,700,l),
(70,700,l),
(70,550,l),
(175,550,l),
(393,604,l),
(393,564,l),
(250,525,l),
(171,499,l),
(171,300,l),
(272,300,ls),
(342,300,o),
(378,277,o),
(378,223,cs),
(378,172,o),
(355,141,o),
(296,138,cs),
(228,135,o),
(212,182,o),
(212,226,c),
(62,226,l)
);
}
);
width = 600;
},
{
layerId = m004;
shapes = (
{
closed = 1;
nodes = (
(82,97,o),
(140,-14,o),
(305,-12,cs),
(455,-9,o),
(508,110,o),
(508,219,cs),
(508,328,o),
(438,435,o),
(287,429,cs),
(236,427,l),
(236,457,l),
(298,486,l),
(493,626,l),
(493,700,l),
(90,700,l),
(90,660,l),
(411,660,l),
(463,670,l),
(463,640,l),
(413,613,l),
(206,471,l),
(206,383,l),
(290,383,ls),
(413,383,o),
(468,318,o),
(468,219,cs),
(468,114,o),
(412,29,o),
(303,28,cs),
(175,27,o),
(122,110,o),
(122,216,c),
(82,216,l)
);
}
);
width = 600;
}
);
},
{
glyphname = fraction;
lastChange = "2024-10-25 21:45:34 +0000";
layers = (
{
layerId = m003;
shapes = (
{
closed = 1;
nodes = (
(30,0,l),
(130,0,l),
(570,700,l),
(470,700,l)
);
}
);
width = 600;
},
{
layerId = m002;
shapes = (
{
closed = 1;
nodes = (
(10,0,l),
(150,0,l),
(590,700,l),
(450,700,l)
);
}
);
width = 600;
},
{
layerId = m004;
shapes = (
{
closed = 1;
nodes = (
(55,0,l),
(105,0,l),
(545,700,l),
(495,700,l)
);
}
);
width = 600;
}
);
unicode = 8260;
},
{
glyphname = zerosuperior;
lastChange = "2024-10-25 20:44:16 +0000";
layers = (
{
layerId = m003;
shapes = (
{
closed = 1;
nodes = (
(242,416,o),
(230,478,o),
(230,568,c),
(230,659,o),
(242,722,o),
(300,722,c),
(358,722,o),
(370,659,o),
(370,568,c),
(370,478,o),
(358,416,o),
(300,416,c)
);
},
{
closed = 1;
nodes = (
(401,346,o),
(440,437,o),
(440,568,c),
(440,700,o),
(401,792,o),
(300,792,c),
(199,792,o),
(160,700,o),
(160,568,c),
(160,437,o),
(199,346,o),
(300,346,c)
);
},
{
closed = 1;
nodes = (
(421,624,l),
(375,678,l),
(184,515,l),
(230,461,l)
);
}
);
width = 600;
},
{
layerId = m002;
shapes = (
{
closed = 1;
nodes = (
(257,446,o),
(250,488,o),
(250,568,c),
(250,649,o),
(257,692,o),
(300,692,c),
(343,692,o),
(350,649,o),
(350,568,c),
(350,488,o),
(343,446,o),
(300,446,c)
);
},
{
closed = 1;
nodes = (
(401,346,o),
(450,437,o),
(450,568,c),
(450,700,o),
(401,792,o),
(300,792,c),
(199,792,o),
(150,700,o),
(150,568,c),
(150,437,o),
(199,346,o),
(300,346,c)
);
},
{
closed = 1;
nodes = (
(421,609,l),
(375,693,l),
(184,530,l),
(230,446,l)
);
}
);
width = 600;
},
{
layerId = m004;
shapes = (
{
closed = 1;
nodes = (
(222,386,o),
(200,468,o),
(200,568,c),
(200,679,o),
(222,752,o),
(300,752,c),
(378,752,o),
(400,679,o),
(400,568,c),
(400,468,o),
(378,386,o),
(300,386,c)
);
},
{
closed = 1;
nodes = (
(401,346,o),
(440,437,o),
(440,568,c),
(440,700,o),
(401,792,o),
(300,792,c),
(199,792,o),
(160,700,o),
(160,568,c),
(160,437,o),
(199,346,o),
(300,346,c)
);
},
{
closed = 1;
nodes = (
(421,645,l),
(404,684,l),
(184,496,l),
(200,456,l)
);
}
);
width = 600;
}
);
unicode = 8304;
},
{
glyphname = onesuperior;
lastChange = "2024-10-25 20:54:15 +0000";
layers = (
{
layerId = m003;
shapes = (
{
closed = 1;
nodes = (
(162,346,l),
(447,346,l),
(447,416,l),
(162,416,l)
);
},
{
closed = 1;
nodes = (
(341,780,l),
(258,780,l),
(150,624,l),
(209,585,l),
(235,629,l),
(274,732,l),
(304,732,l),
(271,612,l),
(271,363,l),
(341,363,l)
);
}
);
width = 600;
},
{
layerId = m002;
shapes = (
{
closed = 1;
nodes = (
(152,346,l),
(457,346,l),
(457,446,l),
(152,446,l)
);
},
{
closed = 1;
nodes = (
(356,780,l),
(238,780,l),
(132,627,l),
(212,576,l),
(231,608,l),
(266,700,l),
(296,700,l),
(256,578,l),
(256,363,l),
(356,363,l)
);
}
);
width = 600;
},
{
layerId = m004;
shapes = (
{
closed = 1;
nodes = (
(162,346,l),
(447,346,l),
(447,386,l),
(162,386,l)
);
},
{
closed = 1;
nodes = (
(326,780,l),
(269,780,l),
(160,617,l),
(194,594,l),
(220,635,l),
(272,750,l),
(302,750,l),
(286,612,l),
(286,363,l),
(326,363,l)
);
}
);
width = 600;
}
);
unicode = 185;
},
{
glyphname = twosuperior;
lastChange = "2024-10-25 21:06:50 +0000";
layers = (
{
layerId = m003;
shapes = (
{
attr = {
identifier = ID0x330176bc0;
};
closed = 1;
nodes = (
(227,642,l),
(227,685,o),
(246,716,o),
(297,716,c),
(344,717,o),
(367,688,o),
(367,645,c),
(367,599,o),
(335,584,o),
(280,565,c),
(211,540,o),
(163,502,o),
(160,417,c),
(160,346,l),
(437,346,l),
(437,416,l),
(229,416,l),
(228,466,o),
(257,482,o),
(304,499,c),
(364,520,o),
(436,551,o),
(437,645,c),
(437,722,o),
(387,787,o),
(297,786,c),
(196,786,o),
(157,711,o),
(157,642,c),
(157,620,l),
(227,620,l)
);
}
);
width = 600;
},
{
layerId = m002;
shapes = (
{
attr = {
identifier = ID0x330176bc0;
};
closed = 1;
nodes = (
(247,640,l),
(247,661,o),
(259,686,o),
(298,686,c),
(330,687,o),
(347,670,o),
(347,643,c),
(347,611,o),
(335,599,o),
(280,580,cs),
(201,552,o),
(153,509,o),
(150,423,c),
(150,346,l),
(447,346,l),
(447,446,l),
(256,446,l),
(259,459,o),
(261,469,o),
(309,486,cs),
(409,522,o),
(446,559,o),
(447,645,c),
(447,727,o),
(387,787,o),
(297,786,c),
(196,786,o),
(147,722,o),
(147,642,c),
(147,610,l),
(247,610,l)
);
}
);
width = 600;
},
{
layerId = m004;
shapes = (
{
attr = {
identifier = ID0x330176bc0;
};
closed = 1;
nodes = (
(197,642,l),
(197,695,o),
(232,746,o),
(297,746,c),
(344,747,o),
(397,716,o),
(397,646,c),
(397,581,o),
(335,564,o),
(280,545,cs),
(201,518,o),
(163,482,o),
(160,387,c),
(160,346,l),
(437,346,l),
(437,386,l),
(200,386,l),
(199,470,o),
(239,490,o),
(297,511,cs),
(365,536,o),
(436,563,o),
(437,646,c),
(437,720,o),
(387,787,o),
(297,786,c),
(202,786,o),
(157,711,o),
(157,642,c),
(157,620,l),
(197,620,l)
);
}
);
width = 600;
}
);
unicode = 178;
},
{
glyphname = threesuperior;
lastChange = "2024-11-10 21:22:29 +0000";
layers = (
{
layerId = m003;
shapes = (
{
closed = 1;
nodes = (
(171,411,o),
(212,342,o),
(314,345,cs),
(399,347,o),
(444,404,o),
(444,471,cs),
(444,545,o),
(399,575,o),
(350,575,c),
(350,605,l),
(399,607,o),
(424,640,o),
(424,686,cs),
(424,741,o),
(384,792,o),
(297,792,cs),
(210,792,o),
(171,737,o),
(171,677,c),
(241,677,l),
(241,709,o),
(268,722,o),
(297,722,cs),
(335,722,o),
(354,703,o),
(354,677,cs),
(354,640,o),
(328,624,o),
(288,624,cs),
(259,624,l),
(259,554,l),
(292,554,ls),
(358,554,o),
(374,522,o),
(374,479,cs),
(374,443,o),
(350,415,o),
(312,415,cs),
(256,415,o),
(241,448,o),
(241,484,c),
(171,484,l)
);
}
);
width = 600;
},
{
layerId = m002;
shapes = (
{
closed = 1;
nodes = (
(161,411,o),
(212,342,o),
(314,345,cs),
(399,347,o),
(454,404,o),
(454,471,cs),
(454,545,o),
(409,575,o),
(370,575,c),
(370,605,l),
(409,607,o),
(434,640,o),
(434,686,cs),
(434,741,o),
(384,792,o),
(297,792,cs),
(210,792,o),
(161,737,o),
(161,667,c),
(261,667,l),
(261,680,o),
(272,692,o),
(298,692,cs),
(322,692,o),
(334,683,o),
(334,665,cs),
(334,646,o),
(318,635,o),
(288,635,cs),
(259,635,l),
(259,535,l),
(292,535,ls),
(338,535,o),
(354,513,o),
(354,487,cs),
(354,463,o),
(338,445,o),
(309,445,cs),
(273,445,o),
(261,468,o),
(261,494,c),
(161,494,l)
);
}
);
width = 600;
},
{
layerId = m004;
shapes = (
{
closed = 1;
nodes = (
(171,411,o),
(212,342,o),
(314,345,cs),
(399,347,o),
(444,404,o),
(444,471,cs),
(444,545,o),
(399,575,o),
(350,575,c),
(350,605,l),
(399,607,o),
(424,640,o),
(424,686,cs),
(424,741,o),
(384,792,o),
(297,792,cs),
(210,792,o),
(171,737,o),
(171,677,c),
(211,677,l),
(211,729,o),
(248,752,o),
(297,752,cs),
(355,752,o),
(384,725,o),
(384,679,cs),
(384,632,o),
(348,609,o),
(288,609,cs),
(259,609,l),
(259,569,l),
(292,569,ls),
(368,569,o),
(404,532,o),
(404,479,cs),
(404,423,o),
(370,385,o),
(312,385,cs),
(236,385,o),
(211,438,o),
(211,484,c),
(171,484,l)
);
}
);
width = 600;
}
);
unicode = 179;
},
{
glyphname = foursuperior;
lastChange = "2024-10-25 21:21:52 +0000";
layers = (
{
layerId = m003;
shapes = (
{
closed = 1;
nodes = (
(336,346,l),
(407,346,l),
(407,449,l),
(455,449,l),
(455,519,l),
(407,519,l),
(407,780,l),
(323,780,l),
(165,519,l),
(165,449,l),
(336,449,l)
);
},
{
closed = 1;
nodes = (
(246,519,l),
(313,639,l),
(335,717,l),
(365,717,l),
(336,586,l),
(336,519,l)
);
}
);
width = 600;
},
{
layerId = m002;
shapes = (
{
closed = 1;
nodes = (
(321,346,l),
(421,346,l),
(421,434,l),
(465,434,l),
(465,534,l),
(421,534,l),
(421,780,l),
(307,780,l),
(155,534,l),
(155,434,l),
(321,434,l)
);
},
{
closed = 1;
nodes = (
(261,534,l),
(290,585,l),
(328,691,l),
(358,691,l),
(321,561,l),
(321,534,l)
);
}
);
width = 600;
},
{
layerId = m004;
shapes = (
{
closed = 1;
nodes = (
(352,346,l),
(392,346,l),
(392,465,l),
(455,465,l),
(455,505,l),
(392,505,l),
(392,780,l),
(323,780,l),
(165,505,l),
(165,465,l),
(352,465,l)
);
},
{
closed = 1;
nodes = (
(211,505,l),
(316,685,l),
(335,750,l),
(366,750,l),
(352,666,l),
(352,505,l)
);
}
);
width = 600;
}
);
unicode = 8308;
},
{
glyphname = fivesuperior;
lastChange = "2024-10-25 21:26:11 +0000";
layers = (
{
background = {
shapes = (
{
ref = threesuperior;
}
);
};
layerId = m003;
shapes = (
{
closed = 1;
nodes = (
(170,491,ls),
(170,410,o),
(216,347,o),
(306,347,cs),
(383,347,o),
(435,409,o),
(435,502,cs),
(435,583,o),
(385,645,o),
(315,643,cs),
(270,642,o),
(256,624,o),
(246,594,c),
(216,594,l),
(249,670,l),
(249,716,l),
(427,716,l),
(427,786,l),
(179,786,l),
(179,543,l),
(258,543,l),
(265,568,o),
(292,573,o),
(310,573,cs),
(349,572,o),
(365,546,o),
(365,502,cs),
(365,440,o),
(340,417,o),
(306,417,cs),
(268,417,o),
(240,435,o),
(240,491,cs),
(240,506,l),
(170,506,l)
);
}
);
width = 600;
},
{
layerId = m002;
shapes = (
{
closed = 1;
nodes = (
(160,491,ls),
(160,405,o),
(216,347,o),
(306,347,cs),
(383,347,o),
(445,399,o),
(445,502,cs),
(445,593,o),
(395,660,o),
(325,658,cs),
(280,657,o),
(266,635,o),
(258,620,c),
(228,620,l),
(259,667,l),
(259,686,l),
(437,686,l),
(437,786,l),
(169,786,l),
(169,543,l),
(264,543,l),
(276,555,o),
(288,559,o),
(305,558,cs),
(332,556,o),
(345,541,o),
(345,502,cs),
(345,472,o),
(335,447,o),
(305,447,cs),
(273,447,o),
(260,467,o),
(260,491,cs),
(260,516,l),
(160,516,l)
);
}
);
width = 600;
},
{
layerId = m004;
shapes = (
{
closed = 1;
nodes = (
(170,491,ls),
(170,410,o),
(216,347,o),
(306,347,cs),
(383,347,o),
(435,409,o),
(435,502,cs),
(435,583,o),
(385,644,o),
(315,643,cs),
(265,642,o),
(242,613,o),
(229,573,c),
(199,573,l),
(219,670,l),
(219,746,l),
(427,746,l),
(427,786,l),
(179,786,l),
(179,543,l),
(241,543,l),
(247,564,o),
(259,603,o),
(310,603,cs),
(369,603,o),
(395,556,o),
(395,502,cs),
(395,430,o),
(360,387,o),
(306,387,cs),
(248,387,o),
(210,425,o),
(210,491,cs),
(210,506,l),
(170,506,l)
);
}
);
width = 600;
}
);
unicode = 8309;
},
